<svg xmlns="http://www.w3.org/2000/svg" xmlns:xlink="http://www.w3.org/1999/xlink" width="500" zoomAndPan="magnify" viewBox="0 0 375 374.999991" height="500" preserveAspectRatio="xMidYMid meet" version="1.0"><defs><g/></defs><g fill="#ffffff" fill-opacity="1"><g transform="translate(106.629152, 134.0429)"><g><path d="M 39.390625 -3.4375 C 39.453125 -3.5 39.550781 -3.53125 39.6875 -3.53125 C 39.820312 -3.53125 39.859375 -3.457031 39.796875 -3.3125 C 39.160156 -2.28125 38.421875 -1.46875 37.578125 -0.875 C 36.734375 -0.289062 35.828125 0 34.859375 0 C 33.535156 0 32.40625 -0.382812 31.46875 -1.15625 C 30.53125 -1.925781 29.722656 -2.953125 29.046875 -4.234375 C 28.367188 -5.515625 27.800781 -7 27.34375 -8.6875 C 26.894531 -10.382812 26.472656 -12.148438 26.078125 -13.984375 C 26.078125 -14.203125 26.140625 -14.328125 26.265625 -14.359375 C 26.410156 -14.441406 26.6875 -14.535156 27.09375 -14.640625 C 27.507812 -14.753906 27.878906 -14.867188 28.203125 -14.984375 C 28.296875 -15.015625 28.441406 -15.003906 28.640625 -14.953125 C 28.835938 -14.910156 29.078125 -14.867188 29.359375 -14.828125 C 29.648438 -14.785156 29.988281 -14.753906 30.375 -14.734375 C 30.769531 -14.722656 31.222656 -14.773438 31.734375 -14.890625 C 33.035156 -15.191406 34.046875 -15.863281 34.765625 -16.90625 C 35.492188 -17.945312 35.859375 -19.359375 35.859375 -21.140625 C 35.859375 -22.015625 35.710938 -22.84375 35.421875 -23.625 C 35.140625 -24.414062 34.71875 -25.101562 34.15625 -25.6875 C 33.601562 -26.28125 32.910156 -26.765625 32.078125 -27.140625 C 31.253906 -27.523438 30.28125 -27.757812 29.15625 -27.84375 C 28.375 -26.851562 27.671875 -25.617188 27.046875 -24.140625 C 26.429688 -22.660156 25.867188 -20.953125 25.359375 -19.015625 C 24.453125 -15.691406 23.398438 -12.832031 22.203125 -10.4375 C 21.015625 -8.039062 19.695312 -6.070312 18.25 -4.53125 C 16.800781 -2.988281 15.226562 -1.847656 13.53125 -1.109375 C 11.84375 -0.367188 10.078125 0 8.234375 0 C 6.148438 0 4.632812 -0.472656 3.6875 -1.421875 C 2.738281 -2.378906 2.265625 -3.625 2.265625 -5.15625 C 2.265625 -6.550781 2.660156 -7.773438 3.453125 -8.828125 C 4.253906 -9.890625 5.234375 -10.628906 6.390625 -11.046875 C 6.691406 -11.171875 6.78125 -11.066406 6.65625 -10.734375 C 4.90625 -9.796875 4.03125 -8.40625 4.03125 -6.5625 C 4.03125 -5.082031 4.5 -3.894531 5.4375 -3 C 6.375 -2.113281 7.773438 -1.671875 9.640625 -1.671875 C 11.148438 -1.671875 12.472656 -1.84375 13.609375 -2.1875 C 14.742188 -2.539062 15.773438 -3.253906 16.703125 -4.328125 C 17.640625 -5.398438 18.523438 -6.929688 19.359375 -8.921875 C 20.191406 -10.910156 21.0625 -13.550781 21.96875 -16.84375 C 23.320312 -21.851562 25.207031 -25.519531 27.625 -27.84375 C 24.8125 -27.757812 22.398438 -27.222656 20.390625 -26.234375 C 18.390625 -25.253906 16.664062 -23.722656 15.21875 -21.640625 C 15.09375 -21.578125 14.984375 -21.578125 14.890625 -21.640625 C 14.804688 -21.703125 14.796875 -21.8125 14.859375 -21.96875 C 16.273438 -24.039062 18.175781 -25.71875 20.5625 -27 C 22.945312 -28.289062 25.828125 -29.007812 29.203125 -29.15625 C 30.316406 -29.914062 31.554688 -30.476562 32.921875 -30.84375 C 33.066406 -30.84375 33.140625 -30.785156 33.140625 -30.671875 C 33.140625 -30.566406 33.066406 -30.484375 32.921875 -30.421875 C 32.109375 -30.210938 31.304688 -29.789062 30.515625 -29.15625 C 31.785156 -29.15625 32.914062 -28.957031 33.90625 -28.5625 C 34.90625 -28.175781 35.753906 -27.648438 36.453125 -26.984375 C 37.148438 -26.316406 37.675781 -25.5625 38.03125 -24.71875 C 38.394531 -23.875 38.578125 -23 38.578125 -22.09375 C 38.578125 -20.832031 38.34375 -19.6875 37.875 -18.65625 C 37.40625 -17.625 36.738281 -16.742188 35.875 -16.015625 C 35.019531 -15.296875 33.976562 -14.765625 32.75 -14.421875 C 31.53125 -14.078125 30.164062 -13.976562 28.65625 -14.125 C 29.113281 -11.769531 29.613281 -9.800781 30.15625 -8.21875 C 30.695312 -6.632812 31.289062 -5.375 31.9375 -4.4375 C 32.59375 -3.5 33.316406 -2.832031 34.109375 -2.4375 C 34.910156 -2.050781 35.78125 -1.859375 36.71875 -1.859375 C 37.75 -1.859375 38.640625 -2.382812 39.390625 -3.4375 Z M 39.390625 -3.4375 "/></g></g></g><g fill="#ffffff" fill-opacity="1"><g transform="translate(146.023822, 134.0429)"><g><path d="M 8.109375 -11.59375 C 9.160156 -11.59375 9.941406 -11.273438 10.453125 -10.640625 C 10.972656 -10.003906 11.234375 -9.265625 11.234375 -8.421875 C 11.234375 -7.242188 11 -6.148438 10.53125 -5.140625 C 10.0625 -4.128906 9.484375 -3.238281 8.796875 -2.46875 C 8.117188 -1.695312 7.390625 -1.09375 6.609375 -0.65625 C 5.828125 -0.21875 5.117188 0 4.484375 0 C 3.453125 0 2.671875 -0.304688 2.140625 -0.921875 C 1.617188 -1.546875 1.359375 -2.34375 1.359375 -3.3125 C 1.359375 -4.1875 1.546875 -5.101562 1.921875 -6.0625 C 2.296875 -7.03125 2.789062 -7.921875 3.40625 -8.734375 C 4.03125 -9.554688 4.75 -10.238281 5.5625 -10.78125 C 6.382812 -11.320312 7.234375 -11.59375 8.109375 -11.59375 Z M 5.609375 -1.40625 C 6.546875 -1.40625 7.335938 -1.894531 7.984375 -2.875 C 8.640625 -3.851562 8.96875 -5.203125 8.96875 -6.921875 C 8.96875 -7.828125 8.785156 -8.582031 8.421875 -9.1875 C 8.054688 -9.789062 7.53125 -10.09375 6.84375 -10.09375 C 5.875 -10.09375 5.085938 -9.625 4.484375 -8.6875 C 3.878906 -7.757812 3.578125 -6.390625 3.578125 -4.578125 C 3.578125 -3.515625 3.765625 -2.71875 4.140625 -2.1875 C 4.515625 -1.664062 5.003906 -1.40625 5.609375 -1.40625 Z M 5.609375 -1.40625 "/></g></g></g><g fill="#ffffff" fill-opacity="1"><g transform="translate(157.706374, 134.0429)"><g><path d="M 14.21875 -3.171875 C 14.28125 -3.234375 14.351562 -3.222656 14.4375 -3.140625 C 14.53125 -3.066406 14.5625 -2.972656 14.53125 -2.859375 C 13.988281 -2.097656 13.363281 -1.429688 12.65625 -0.859375 C 11.945312 -0.285156 11.242188 0 10.546875 0 C 10.035156 0 9.632812 -0.164062 9.34375 -0.5 C 9.0625 -0.832031 8.921875 -1.269531 8.921875 -1.8125 C 8.921875 -2.863281 9.109375 -4.007812 9.484375 -5.25 C 9.859375 -6.488281 10.363281 -7.742188 11 -9.015625 C 11.09375 -9.222656 11.140625 -9.445312 11.140625 -9.6875 C 11.140625 -9.988281 11.003906 -10.140625 10.734375 -10.140625 C 9.617188 -10.140625 8.378906 -9.375 7.015625 -7.84375 C 5.660156 -6.320312 4.410156 -3.90625 3.265625 -0.59375 C 3.234375 -0.5 3.132812 -0.410156 2.96875 -0.328125 C 2.800781 -0.253906 2.609375 -0.195312 2.390625 -0.15625 C 2.179688 -0.113281 1.972656 -0.078125 1.765625 -0.046875 C 1.554688 -0.015625 1.390625 0 1.265625 0 C 1.117188 0 1.003906 -0.03125 0.921875 -0.09375 C 0.847656 -0.15625 0.84375 -0.257812 0.90625 -0.40625 C 1.414062 -1.707031 1.9375 -3.132812 2.46875 -4.6875 C 3 -6.238281 3.457031 -7.800781 3.84375 -9.375 C 3.9375 -9.675781 3.953125 -9.894531 3.890625 -10.03125 C 3.828125 -10.164062 3.722656 -10.234375 3.578125 -10.234375 C 3.242188 -10.234375 2.925781 -10.085938 2.625 -9.796875 C 2.320312 -9.515625 2.050781 -9.207031 1.8125 -8.875 C 1.71875 -8.8125 1.632812 -8.828125 1.5625 -8.921875 C 1.488281 -9.015625 1.46875 -9.101562 1.5 -9.1875 C 1.644531 -9.40625 1.84375 -9.648438 2.09375 -9.921875 C 2.351562 -10.191406 2.648438 -10.453125 2.984375 -10.703125 C 3.316406 -10.960938 3.664062 -11.175781 4.03125 -11.34375 C 4.394531 -11.507812 4.753906 -11.59375 5.109375 -11.59375 C 5.628906 -11.59375 5.972656 -11.429688 6.140625 -11.109375 C 6.304688 -10.796875 6.34375 -10.414062 6.25 -9.96875 C 6.09375 -9.300781 5.929688 -8.671875 5.765625 -8.078125 C 5.609375 -7.492188 5.40625 -6.835938 5.15625 -6.109375 C 5.519531 -6.773438 5.96875 -7.429688 6.5 -8.078125 C 7.03125 -8.734375 7.617188 -9.320312 8.265625 -9.84375 C 8.910156 -10.375 9.609375 -10.796875 10.359375 -11.109375 C 11.117188 -11.429688 11.921875 -11.59375 12.765625 -11.59375 C 13.128906 -11.59375 13.410156 -11.5 13.609375 -11.3125 C 13.804688 -11.132812 13.90625 -10.925781 13.90625 -10.6875 C 13.90625 -10.257812 13.796875 -9.878906 13.578125 -9.546875 C 12.953125 -8.398438 12.414062 -7.21875 11.96875 -6 C 11.53125 -4.78125 11.3125 -3.6875 11.3125 -2.71875 C 11.3125 -1.9375 11.570312 -1.546875 12.09375 -1.546875 C 12.425781 -1.546875 12.753906 -1.679688 13.078125 -1.953125 C 13.410156 -2.222656 13.789062 -2.628906 14.21875 -3.171875 Z M 14.21875 -3.171875 "/></g></g></g><g fill="#ffffff" fill-opacity="1"><g transform="translate(172.286924, 134.0429)"><g><path d="M 7.203125 -13.546875 C 7.109375 -13.453125 7.007812 -13.445312 6.90625 -13.53125 C 6.800781 -13.625 6.71875 -13.753906 6.65625 -13.921875 C 6.59375 -14.085938 6.5625 -14.269531 6.5625 -14.46875 C 6.5625 -14.664062 6.609375 -14.835938 6.703125 -14.984375 C 7.035156 -15.410156 7.523438 -15.945312 8.171875 -16.59375 C 8.816406 -17.238281 9.488281 -17.789062 10.1875 -18.25 C 10.25 -18.28125 10.320312 -18.253906 10.40625 -18.171875 C 10.5 -18.097656 10.53125 -18.035156 10.5 -17.984375 C 9.863281 -17.398438 9.257812 -16.707031 8.6875 -15.90625 C 8.113281 -15.113281 7.617188 -14.328125 7.203125 -13.546875 Z M 2.359375 -8.421875 C 2.265625 -8.359375 2.1875 -8.378906 2.125 -8.484375 C 2.0625 -8.597656 2.046875 -8.695312 2.078125 -8.78125 C 3.203125 -9.6875 4.757812 -10.625 6.75 -11.59375 C 6.988281 -11.59375 7.109375 -11.457031 7.109375 -11.1875 C 6.710938 -10.488281 6.328125 -9.734375 5.953125 -8.921875 C 5.578125 -8.109375 5.242188 -7.300781 4.953125 -6.5 C 4.671875 -5.695312 4.4375 -4.925781 4.25 -4.1875 C 4.070312 -3.445312 3.984375 -2.835938 3.984375 -2.359375 C 3.984375 -1.753906 4.195312 -1.453125 4.625 -1.453125 C 4.945312 -1.453125 5.265625 -1.59375 5.578125 -1.875 C 5.898438 -2.164062 6.273438 -2.535156 6.703125 -2.984375 C 6.765625 -3.046875 6.835938 -3.039062 6.921875 -2.96875 C 7.015625 -2.894531 7.03125 -2.78125 6.96875 -2.625 C 6.3125 -1.84375 5.65625 -1.207031 5 -0.71875 C 4.351562 -0.238281 3.726562 0 3.125 0 C 2.070312 0 1.546875 -0.5 1.546875 -1.5 C 1.546875 -2.039062 1.625 -2.679688 1.78125 -3.421875 C 1.945312 -4.160156 2.171875 -4.914062 2.453125 -5.6875 C 2.742188 -6.457031 3.0625 -7.210938 3.40625 -7.953125 C 3.757812 -8.691406 4.117188 -9.332031 4.484375 -9.875 C 4.148438 -9.6875 3.78125 -9.457031 3.375 -9.1875 C 2.96875 -8.914062 2.628906 -8.660156 2.359375 -8.421875 Z M 2.359375 -8.421875 "/></g></g></g><g fill="#ffffff" fill-opacity="1"><g transform="translate(179.803609, 134.0429)"><g/></g></g><g fill="#ffffff" fill-opacity="1"><g transform="translate(186.595791, 134.0429)"><g><path d="M 2.265625 -5.9375 C 2.265625 -7.226562 2.601562 -8.328125 3.28125 -9.234375 C 3.957031 -10.140625 4.882812 -10.832031 6.0625 -11.3125 C 6.21875 -11.375 6.320312 -11.328125 6.375 -11.171875 C 6.4375 -11.023438 6.425781 -10.894531 6.34375 -10.78125 C 5.800781 -10.476562 5.367188 -10.007812 5.046875 -9.375 C 4.734375 -8.738281 4.578125 -7.96875 4.578125 -7.0625 C 4.578125 -5.21875 5.253906 -3.765625 6.609375 -2.703125 C 7.972656 -1.648438 9.738281 -1.125 11.90625 -1.125 C 14.75 -1.125 16.78125 -1.679688 18 -2.796875 C 19.21875 -3.921875 19.828125 -5.390625 19.828125 -7.203125 C 19.828125 -8.890625 19.476562 -10.375 18.78125 -11.65625 C 18.09375 -12.9375 17.332031 -14.144531 16.5 -15.28125 C 15.675781 -16.414062 14.914062 -17.554688 14.21875 -18.703125 C 13.519531 -19.847656 13.171875 -21.144531 13.171875 -22.59375 C 13.171875 -23.4375 13.359375 -24.25 13.734375 -25.03125 C 14.117188 -25.820312 14.648438 -26.523438 15.328125 -27.140625 C 16.003906 -27.765625 16.8125 -28.253906 17.75 -28.609375 C 18.6875 -28.972656 19.710938 -29.15625 20.828125 -29.15625 C 22.367188 -29.15625 23.582031 -28.832031 24.46875 -28.1875 C 25.363281 -27.539062 25.8125 -26.765625 25.8125 -25.859375 C 25.8125 -25.335938 25.59375 -24.707031 25.15625 -23.96875 C 24.71875 -23.226562 24.269531 -22.585938 23.8125 -22.046875 C 23.695312 -21.992188 23.59375 -22.007812 23.5 -22.09375 C 23.40625 -22.1875 23.375 -22.296875 23.40625 -22.421875 C 23.5625 -22.660156 23.691406 -22.953125 23.796875 -23.296875 C 23.898438 -23.640625 23.953125 -24.023438 23.953125 -24.453125 C 23.953125 -24.929688 23.84375 -25.390625 23.625 -25.828125 C 23.414062 -26.265625 23.113281 -26.640625 22.71875 -26.953125 C 22.332031 -27.273438 21.882812 -27.535156 21.375 -27.734375 C 20.863281 -27.929688 20.320312 -28.03125 19.75 -28.03125 C 18.238281 -28.03125 17.132812 -27.664062 16.4375 -26.9375 C 15.738281 -26.21875 15.390625 -25.285156 15.390625 -24.140625 C 15.390625 -23.234375 15.5625 -22.378906 15.90625 -21.578125 C 16.257812 -20.773438 16.691406 -19.972656 17.203125 -19.171875 C 17.722656 -18.378906 18.273438 -17.582031 18.859375 -16.78125 C 19.453125 -15.976562 20.003906 -15.144531 20.515625 -14.28125 C 21.023438 -13.425781 21.453125 -12.519531 21.796875 -11.5625 C 22.148438 -10.613281 22.328125 -9.582031 22.328125 -8.46875 C 22.328125 -7.289062 22.03125 -6.1875 21.4375 -5.15625 C 20.851562 -4.132812 20.046875 -3.238281 19.015625 -2.46875 C 17.992188 -1.695312 16.800781 -1.09375 15.4375 -0.65625 C 14.082031 -0.21875 12.617188 0 11.046875 0 C 8.179688 0 6 -0.554688 4.5 -1.671875 C 3.007812 -2.785156 2.265625 -4.207031 2.265625 -5.9375 Z M 2.265625 -5.9375 "/></g></g></g><g fill="#ffffff" fill-opacity="1"><g transform="translate(209.825064, 134.0429)"><g><path d="M 1.09375 -0.40625 C 2.445312 -5.601562 4.003906 -10.28125 5.765625 -14.4375 C 7.535156 -18.601562 9.398438 -22.148438 11.359375 -25.078125 C 13.328125 -28.015625 15.3125 -30.273438 17.3125 -31.859375 C 19.320312 -33.441406 21.234375 -34.234375 23.046875 -34.234375 C 23.804688 -34.234375 24.40625 -34.054688 24.84375 -33.703125 C 25.28125 -33.359375 25.578125 -32.9375 25.734375 -32.4375 C 25.898438 -31.945312 25.921875 -31.410156 25.796875 -30.828125 C 25.679688 -30.253906 25.457031 -29.742188 25.125 -29.296875 C 25.039062 -29.203125 24.953125 -29.171875 24.859375 -29.203125 C 24.765625 -29.234375 24.71875 -29.3125 24.71875 -29.4375 C 24.875 -30.039062 24.707031 -30.613281 24.21875 -31.15625 C 23.738281 -31.695312 22.972656 -31.96875 21.921875 -31.96875 C 20.285156 -31.96875 18.734375 -31.53125 17.265625 -30.65625 C 15.804688 -29.78125 14.378906 -28.320312 12.984375 -26.28125 C 11.597656 -24.25 10.238281 -21.546875 8.90625 -18.171875 C 7.582031 -14.804688 6.226562 -10.617188 4.84375 -5.609375 C 5.300781 -6.429688 5.820312 -7.203125 6.40625 -7.921875 C 7 -8.648438 7.640625 -9.285156 8.328125 -9.828125 C 9.023438 -10.367188 9.765625 -10.796875 10.546875 -11.109375 C 11.335938 -11.429688 12.15625 -11.59375 13 -11.59375 C 13.363281 -11.59375 13.625 -11.5 13.78125 -11.3125 C 13.945312 -11.132812 14.03125 -10.925781 14.03125 -10.6875 C 14.03125 -10.289062 13.894531 -9.851562 13.625 -9.375 C 12.988281 -8.257812 12.472656 -7.113281 12.078125 -5.9375 C 11.691406 -4.757812 11.5 -3.6875 11.5 -2.71875 C 11.5 -2.289062 11.539062 -1.941406 11.625 -1.671875 C 11.71875 -1.398438 11.890625 -1.265625 12.140625 -1.265625 C 12.441406 -1.265625 12.769531 -1.421875 13.125 -1.734375 C 13.488281 -2.054688 13.789062 -2.414062 14.03125 -2.8125 C 14.125 -2.863281 14.210938 -2.851562 14.296875 -2.78125 C 14.390625 -2.707031 14.425781 -2.625 14.40625 -2.53125 C 14.007812 -1.875 13.457031 -1.285156 12.75 -0.765625 C 12.039062 -0.253906 11.398438 0 10.828125 0 C 10.304688 0 9.878906 -0.140625 9.546875 -0.421875 C 9.222656 -0.710938 9.0625 -1.207031 9.0625 -1.90625 C 9.0625 -2.445312 9.113281 -3.023438 9.21875 -3.640625 C 9.320312 -4.265625 9.457031 -4.878906 9.625 -5.484375 C 9.789062 -6.085938 9.984375 -6.679688 10.203125 -7.265625 C 10.429688 -7.859375 10.679688 -8.394531 10.953125 -8.875 C 11.109375 -9.238281 11.1875 -9.492188 11.1875 -9.640625 C 11.1875 -9.910156 11.035156 -10.046875 10.734375 -10.046875 C 10.160156 -10.046875 9.539062 -9.828125 8.875 -9.390625 C 8.207031 -8.953125 7.554688 -8.332031 6.921875 -7.53125 C 6.296875 -6.738281 5.6875 -5.78125 5.09375 -4.65625 C 4.507812 -3.539062 4.003906 -2.304688 3.578125 -0.953125 C 3.515625 -0.742188 3.269531 -0.53125 2.84375 -0.3125 C 2.425781 -0.101562 1.960938 0 1.453125 0 C 1.148438 0 1.03125 -0.132812 1.09375 -0.40625 Z M 1.09375 -0.40625 "/></g></g></g><g fill="#ffffff" fill-opacity="1"><g transform="translate(224.496183, 134.0429)"><g><path d="M 7.203125 -13.546875 C 7.109375 -13.453125 7.007812 -13.445312 6.90625 -13.53125 C 6.800781 -13.625 6.71875 -13.753906 6.65625 -13.921875 C 6.59375 -14.085938 6.5625 -14.269531 6.5625 -14.46875 C 6.5625 -14.664062 6.609375 -14.835938 6.703125 -14.984375 C 7.035156 -15.410156 7.523438 -15.945312 8.171875 -16.59375 C 8.816406 -17.238281 9.488281 -17.789062 10.1875 -18.25 C 10.25 -18.28125 10.320312 -18.253906 10.40625 -18.171875 C 10.5 -18.097656 10.53125 -18.035156 10.5 -17.984375 C 9.863281 -17.398438 9.257812 -16.707031 8.6875 -15.90625 C 8.113281 -15.113281 7.617188 -14.328125 7.203125 -13.546875 Z M 2.359375 -8.421875 C 2.265625 -8.359375 2.1875 -8.378906 2.125 -8.484375 C 2.0625 -8.597656 2.046875 -8.695312 2.078125 -8.78125 C 3.203125 -9.6875 4.757812 -10.625 6.75 -11.59375 C 6.988281 -11.59375 7.109375 -11.457031 7.109375 -11.1875 C 6.710938 -10.488281 6.328125 -9.734375 5.953125 -8.921875 C 5.578125 -8.109375 5.242188 -7.300781 4.953125 -6.5 C 4.671875 -5.695312 4.4375 -4.925781 4.25 -4.1875 C 4.070312 -3.445312 3.984375 -2.835938 3.984375 -2.359375 C 3.984375 -1.753906 4.195312 -1.453125 4.625 -1.453125 C 4.945312 -1.453125 5.265625 -1.59375 5.578125 -1.875 C 5.898438 -2.164062 6.273438 -2.535156 6.703125 -2.984375 C 6.765625 -3.046875 6.835938 -3.039062 6.921875 -2.96875 C 7.015625 -2.894531 7.03125 -2.78125 6.96875 -2.625 C 6.3125 -1.84375 5.65625 -1.207031 5 -0.71875 C 4.351562 -0.238281 3.726562 0 3.125 0 C 2.070312 0 1.546875 -0.5 1.546875 -1.5 C 1.546875 -2.039062 1.625 -2.679688 1.78125 -3.421875 C 1.945312 -4.160156 2.171875 -4.914062 2.453125 -5.6875 C 2.742188 -6.457031 3.0625 -7.210938 3.40625 -7.953125 C 3.757812 -8.691406 4.117188 -9.332031 4.484375 -9.875 C 4.148438 -9.6875 3.78125 -9.457031 3.375 -9.1875 C 2.96875 -8.914062 2.628906 -8.660156 2.359375 -8.421875 Z M 2.359375 -8.421875 "/></g></g></g><g fill="#ffffff" fill-opacity="1"><g transform="translate(232.012868, 134.0429)"><g><path d="M 20.734375 -33.640625 C 21.191406 -33.640625 21.5625 -33.523438 21.84375 -33.296875 C 22.132812 -33.078125 22.332031 -32.773438 22.4375 -32.390625 C 22.539062 -32.015625 22.554688 -31.585938 22.484375 -31.109375 C 22.410156 -30.628906 22.238281 -30.144531 21.96875 -29.65625 C 21.90625 -29.59375 21.828125 -29.59375 21.734375 -29.65625 C 21.640625 -29.71875 21.578125 -29.796875 21.546875 -29.890625 C 21.609375 -30.242188 21.476562 -30.539062 21.15625 -30.78125 C 20.84375 -31.03125 20.359375 -31.15625 19.703125 -31.15625 C 18.460938 -31.15625 17.210938 -30.691406 15.953125 -29.765625 C 14.703125 -28.847656 13.488281 -27.632812 12.3125 -26.125 C 11.132812 -24.613281 10.03125 -22.878906 9 -20.921875 C 7.976562 -18.960938 7.085938 -16.941406 6.328125 -14.859375 C 5.578125 -12.773438 4.984375 -10.703125 4.546875 -8.640625 C 4.109375 -6.585938 3.890625 -4.71875 3.890625 -3.03125 C 3.890625 -2.125 4.144531 -1.671875 4.65625 -1.671875 C 5.019531 -1.671875 5.375 -1.820312 5.71875 -2.125 C 6.070312 -2.425781 6.472656 -2.878906 6.921875 -3.484375 C 7.015625 -3.546875 7.097656 -3.535156 7.171875 -3.453125 C 7.253906 -3.378906 7.28125 -3.285156 7.25 -3.171875 C 6.644531 -2.265625 5.929688 -1.507812 5.109375 -0.90625 C 4.296875 -0.300781 3.554688 0 2.890625 0 C 2.316406 0 1.914062 -0.164062 1.6875 -0.5 C 1.46875 -0.832031 1.359375 -1.253906 1.359375 -1.765625 C 1.359375 -3.179688 1.660156 -4.953125 2.265625 -7.078125 C 2.867188 -9.210938 3.675781 -11.460938 4.6875 -13.828125 C 5.695312 -16.203125 6.863281 -18.566406 8.1875 -20.921875 C 9.519531 -23.273438 10.898438 -25.394531 12.328125 -27.28125 C 13.765625 -29.164062 15.207031 -30.695312 16.65625 -31.875 C 18.113281 -33.050781 19.472656 -33.640625 20.734375 -33.640625 Z M 20.734375 -33.640625 "/></g></g></g></svg>