<svg xmlns="http://www.w3.org/2000/svg" xmlns:xlink="http://www.w3.org/1999/xlink" width="500" zoomAndPan="magnify" viewBox="0 0 375 374.999991" height="500" preserveAspectRatio="xMidYMid meet" version="1.0"><defs><g/></defs><g fill="#ffffff" fill-opacity="1"><g transform="translate(37.500002, 151.476917)"><g><path d="M 43.84375 -62.015625 C 45.269531 -62.453125 46.582031 -62.300781 47.78125 -61.5625 C 48.988281 -60.820312 49.976562 -59.804688 50.75 -58.515625 C 51.519531 -57.234375 51.957031 -55.929688 52.0625 -54.609375 C 52.007812 -54.722656 51.992188 -54.679688 52.015625 -54.484375 C 52.046875 -54.296875 52.0625 -54.203125 52.0625 -54.203125 C 52.0625 -53.984375 52.070312 -53.679688 52.09375 -53.296875 C 52.125 -52.910156 52.085938 -52.691406 51.984375 -52.640625 C 52.035156 -52.691406 52.035156 -52.8125 51.984375 -53 C 51.929688 -53.195312 51.875 -53.378906 51.8125 -53.546875 C 51.875 -52.828125 51.863281 -52.125 51.78125 -51.4375 C 51.695312 -50.757812 51.597656 -50.0625 51.484375 -49.34375 C 51.597656 -49.5625 51.695312 -49.78125 51.78125 -50 C 51.863281 -50.226562 51.90625 -50.34375 51.90625 -50.34375 C 52.007812 -49.789062 51.9375 -49.070312 51.6875 -48.1875 C 51.445312 -47.3125 51.144531 -46.476562 50.78125 -45.6875 C 50.425781 -44.894531 50.171875 -44.28125 50.015625 -43.84375 C 49.460938 -42.25 48.773438 -40.710938 47.953125 -39.234375 C 47.128906 -37.753906 46.222656 -36.328125 45.234375 -34.953125 C 44.359375 -33.804688 43.46875 -32.671875 42.5625 -31.546875 C 41.65625 -30.421875 40.679688 -29.363281 39.640625 -28.375 C 38.765625 -27.445312 37.695312 -26.363281 36.4375 -25.125 C 35.175781 -23.894531 33.890625 -23.113281 32.578125 -22.78125 C 36.578125 -26.238281 40.054688 -30.101562 43.015625 -34.375 C 45.972656 -38.65625 47.921875 -43.457031 48.859375 -48.78125 C 48.140625 -44.9375 46.679688 -41.328125 44.484375 -37.953125 C 42.296875 -34.585938 39.890625 -31.53125 37.265625 -28.78125 C 35.941406 -27.363281 34.660156 -25.898438 33.421875 -24.390625 C 32.191406 -22.878906 30.8125 -21.601562 29.28125 -20.5625 C 28.1875 -19.851562 26.925781 -19.085938 25.5 -18.265625 C 24.070312 -17.441406 22.617188 -16.753906 21.140625 -16.203125 C 19.660156 -15.648438 18.234375 -15.40625 16.859375 -15.46875 C 17.515625 -14.257812 18.1875 -13.050781 18.875 -11.84375 C 19.5625 -10.632812 20.257812 -9.457031 20.96875 -8.3125 L 18.34375 -13 C 18.945312 -12.0625 19.671875 -10.945312 20.515625 -9.65625 C 21.367188 -8.375 22.234375 -7.101562 23.109375 -5.84375 C 23.984375 -4.582031 24.75 -3.5 25.40625 -2.59375 C 26.070312 -1.6875 26.488281 -1.125 26.65625 -0.90625 L 32.328125 5.59375 C 32.984375 6.300781 33.664062 7.109375 34.375 8.015625 C 35.09375 8.921875 35.804688 9.675781 36.515625 10.28125 C 36.460938 10.164062 36.40625 10.050781 36.34375 9.9375 C 36.289062 9.832031 36.238281 9.753906 36.1875 9.703125 C 36.1875 9.648438 36.429688 9.773438 36.921875 10.078125 C 37.421875 10.378906 37.929688 10.679688 38.453125 10.984375 C 38.972656 11.285156 39.285156 11.460938 39.390625 11.515625 C 39.835938 11.679688 40.265625 11.832031 40.671875 11.96875 C 41.085938 12.101562 41.484375 12.144531 41.859375 12.09375 C 42.960938 12.09375 44.085938 11.75 45.234375 11.0625 C 46.390625 10.375 47.320312 9.675781 48.03125 8.96875 C 48.414062 8.53125 48.785156 8.203125 49.140625 7.984375 C 49.492188 7.765625 49.703125 8.203125 49.765625 9.296875 C 49.816406 10.066406 49.515625 10.859375 48.859375 11.671875 C 47.535156 13.378906 45.96875 15.054688 44.15625 16.703125 C 42.351562 18.347656 40.273438 19.28125 37.921875 19.5 C 37.035156 19.550781 36.195312 19.453125 35.40625 19.203125 C 34.613281 18.953125 33.832031 18.609375 33.0625 18.171875 C 32.957031 18.066406 32.546875 17.679688 31.828125 17.015625 C 31.117188 16.359375 30.445312 15.703125 29.8125 15.046875 C 29.1875 14.390625 28.875 14.035156 28.875 13.984375 C 28.925781 13.984375 28.960938 13.992188 28.984375 14.015625 C 29.015625 14.046875 29.03125 14.0625 29.03125 14.0625 C 28.976562 13.957031 28.921875 13.890625 28.859375 13.859375 C 28.804688 13.828125 28.753906 13.785156 28.703125 13.734375 C 28.816406 13.898438 28.707031 13.875 28.375 13.65625 C 28.039062 13.4375 27.847656 13.300781 27.796875 13.25 C 27.523438 12.96875 27.28125 12.675781 27.0625 12.375 C 26.84375 12.070312 26.59375 11.757812 26.3125 11.4375 C 25.9375 10.882812 25.539062 10.359375 25.125 9.859375 C 24.71875 9.367188 24.296875 8.851562 23.859375 8.3125 C 23.742188 8.195312 23.492188 7.878906 23.109375 7.359375 C 22.722656 6.835938 22.3125 6.234375 21.875 5.546875 C 21.4375 4.867188 21.078125 4.238281 20.796875 3.65625 C 20.523438 3.082031 20.472656 2.738281 20.640625 2.625 C 20.753906 2.570312 20.835938 2.613281 20.890625 2.75 C 20.941406 2.894531 21 2.96875 21.0625 2.96875 C 20.894531 2.6875 20.726562 2.410156 20.5625 2.140625 C 20.394531 1.867188 20.257812 1.59375 20.15625 1.3125 C 20.15625 1.363281 20.164062 1.414062 20.1875 1.46875 C 20.21875 1.53125 20.207031 1.617188 20.15625 1.734375 C 20.09375 1.734375 19.867188 1.375 19.484375 0.65625 C 19.109375 -0.0507812 18.660156 -0.898438 18.140625 -1.890625 C 17.617188 -2.878906 17.148438 -3.785156 16.734375 -4.609375 C 16.328125 -5.429688 16.066406 -5.925781 15.953125 -6.09375 C 15.566406 -6.851562 15.15625 -7.585938 14.71875 -8.296875 C 14.28125 -9.015625 13.953125 -9.785156 13.734375 -10.609375 C 13.566406 -11.160156 13.5 -11.585938 13.53125 -11.890625 C 13.5625 -12.191406 13.4375 -12.5625 13.15625 -13 C 11.945312 -10.144531 10.804688 -7.164062 9.734375 -4.0625 C 8.671875 -0.96875 7.921875 2.113281 7.484375 5.1875 C 7.367188 5.070312 7.3125 4.960938 7.3125 4.859375 C 6.71875 5.453125 5.953125 5.859375 5.015625 6.078125 C 4.085938 6.304688 3.179688 6.28125 2.296875 6 C 1.421875 5.726562 0.789062 5.179688 0.40625 4.359375 C 0.0195312 3.429688 -0.101562 2.375 0.03125 1.1875 C 0.175781 0.0078125 0.425781 -1.164062 0.78125 -2.34375 C 1.132812 -3.519531 1.394531 -4.546875 1.5625 -5.421875 C 2 -7.234375 2.394531 -9.03125 2.75 -10.8125 C 3.113281 -12.59375 3.59375 -14.332031 4.1875 -16.03125 C 4.46875 -16.695312 4.757812 -17.34375 5.0625 -17.96875 C 5.363281 -18.601562 5.648438 -19.222656 5.921875 -19.828125 C 5.972656 -19.929688 6.050781 -20.21875 6.15625 -20.6875 C 6.269531 -21.15625 6.378906 -21.609375 6.484375 -22.046875 C 6.597656 -22.484375 6.6875 -22.703125 6.75 -22.703125 C 6.800781 -22.648438 6.828125 -22.539062 6.828125 -22.375 C 6.878906 -22.476562 6.914062 -22.582031 6.9375 -22.6875 C 6.96875 -22.800781 6.984375 -22.914062 6.984375 -23.03125 C 6.878906 -22.8125 6.835938 -22.8125 6.859375 -23.03125 C 6.890625 -23.25 6.929688 -23.535156 6.984375 -23.890625 C 7.046875 -24.242188 7.078125 -24.421875 7.078125 -24.421875 C 7.234375 -24.921875 7.40625 -25.414062 7.59375 -25.90625 C 7.789062 -26.40625 8 -26.898438 8.21875 -27.390625 C 8.550781 -28.160156 8.828125 -28.914062 9.046875 -29.65625 C 9.265625 -30.394531 9.457031 -31.144531 9.625 -31.90625 C 9.675781 -32.070312 9.835938 -32.539062 10.109375 -33.3125 C 10.390625 -34.082031 10.71875 -34.929688 11.09375 -35.859375 C 11.476562 -36.796875 11.847656 -37.601562 12.203125 -38.28125 C 12.566406 -38.96875 12.832031 -39.285156 13 -39.234375 C 13.101562 -39.234375 13.097656 -39.132812 12.984375 -38.9375 C 12.878906 -38.75 12.851562 -38.628906 12.90625 -38.578125 C 13.070312 -38.960938 13.238281 -39.332031 13.40625 -39.6875 C 13.570312 -40.039062 13.707031 -40.410156 13.8125 -40.796875 C 13.707031 -40.578125 13.597656 -40.441406 13.484375 -40.390625 C 13.429688 -40.390625 13.625 -40.894531 14.0625 -41.90625 C 14.5 -42.914062 15.03125 -44.109375 15.65625 -45.484375 C 16.289062 -46.859375 16.851562 -48.101562 17.34375 -49.21875 C 17.84375 -50.34375 18.148438 -51.015625 18.265625 -51.234375 C 18.640625 -52.171875 19.019531 -53.101562 19.40625 -54.03125 C 19.789062 -54.96875 20.257812 -55.847656 20.8125 -56.671875 C 21.082031 -56.992188 21.335938 -57.25 21.578125 -57.4375 C 21.828125 -57.632812 22.035156 -57.84375 22.203125 -58.0625 C 22.316406 -58.226562 22.414062 -58.445312 22.5 -58.71875 C 22.582031 -59 22.675781 -59.25 22.78125 -59.46875 C 23 -59.90625 23.3125 -60.492188 23.71875 -61.234375 C 24.132812 -61.972656 24.617188 -62.453125 25.171875 -62.671875 C 26.046875 -63.054688 26.785156 -62.835938 27.390625 -62.015625 C 27.992188 -61.191406 28.40625 -60.453125 28.625 -59.796875 C 28.894531 -59.140625 28.988281 -58.628906 28.90625 -58.265625 C 28.820312 -57.910156 28.644531 -57.515625 28.375 -57.078125 L 28.625 -57.25 C 28.726562 -57.25 28.644531 -56.972656 28.375 -56.421875 C 28.101562 -55.867188 27.816406 -55.332031 27.515625 -54.8125 C 27.210938 -54.289062 27.003906 -54.03125 26.890625 -54.03125 C 26.835938 -54.03125 26.863281 -54.164062 26.96875 -54.4375 C 27.082031 -54.71875 27.195312 -54.96875 27.3125 -55.1875 C 23.6875 -49.207031 20.664062 -43.328125 18.25 -37.546875 C 15.84375 -31.765625 13.816406 -26.101562 12.171875 -20.5625 C 12.992188 -23.300781 13.96875 -25.972656 15.09375 -28.578125 C 16.21875 -31.179688 17.460938 -33.742188 18.828125 -36.265625 L 18.015625 -34.375 L 19.984375 -38.578125 C 19.273438 -36.765625 18.585938 -34.953125 17.921875 -33.140625 C 17.265625 -31.335938 16.691406 -29.472656 16.203125 -27.546875 C 17.128906 -29.472656 18.097656 -31.335938 19.109375 -33.140625 C 20.128906 -34.953125 21.242188 -36.738281 22.453125 -38.5 C 23.546875 -40.082031 24.695312 -41.570312 25.90625 -42.96875 C 27.113281 -44.375 28.296875 -45.816406 29.453125 -47.296875 C 29.453125 -47.296875 29.570312 -47.554688 29.8125 -48.078125 C 30.0625 -48.597656 30.296875 -48.882812 30.515625 -48.9375 C 30.460938 -48.882812 30.3125 -48.648438 30.0625 -48.234375 C 29.8125 -47.828125 29.71875 -47.648438 29.78125 -47.703125 L 30.921875 -49.1875 C 30.867188 -49.1875 30.816406 -49.210938 30.765625 -49.265625 C 30.867188 -49.867188 31.265625 -50.523438 31.953125 -51.234375 C 32.640625 -51.953125 33.175781 -52.503906 33.5625 -52.890625 C 34.101562 -53.492188 34.660156 -54.082031 35.234375 -54.65625 C 35.816406 -55.226562 36.382812 -55.789062 36.9375 -56.34375 C 37.863281 -57.269531 38.929688 -58.347656 40.140625 -59.578125 C 41.347656 -60.816406 42.582031 -61.628906 43.84375 -62.015625 Z M 43.75 -51.984375 L 43.75 -52.0625 C 43.863281 -53.65625 43.660156 -54.585938 43.140625 -54.859375 C 42.617188 -55.128906 41.945312 -54.988281 41.125 -54.4375 C 40.300781 -53.894531 39.4375 -53.15625 38.53125 -52.21875 C 37.625 -51.289062 36.8125 -50.390625 36.09375 -49.515625 C 35.382812 -48.640625 34.894531 -48.035156 34.625 -47.703125 C 32.4375 -45.015625 30.203125 -42.226562 27.921875 -39.34375 C 25.648438 -36.46875 23.609375 -33.578125 21.796875 -30.671875 C 21.847656 -30.898438 21.984375 -31.015625 22.203125 -31.015625 C 22.203125 -31.015625 22.066406 -30.753906 21.796875 -30.234375 C 21.523438 -29.710938 21.207031 -29.109375 20.84375 -28.421875 C 20.488281 -27.734375 20.160156 -27.097656 19.859375 -26.515625 C 19.554688 -25.941406 19.351562 -25.601562 19.25 -25.5 C 18.695312 -24.457031 18.144531 -23.398438 17.59375 -22.328125 C 17.050781 -21.265625 16.503906 -20.179688 15.953125 -19.078125 C 16.066406 -19.140625 16.425781 -19.304688 17.03125 -19.578125 C 17.632812 -19.847656 18.222656 -20.09375 18.796875 -20.3125 C 19.367188 -20.53125 19.679688 -20.613281 19.734375 -20.5625 C 19.734375 -20.507812 19.429688 -20.332031 18.828125 -20.03125 C 18.234375 -19.726562 17.769531 -19.46875 17.4375 -19.25 C 21.601562 -21 25.382812 -23.410156 28.78125 -26.484375 C 32.1875 -29.554688 35.148438 -32.957031 37.671875 -36.6875 C 36.847656 -35.476562 35.96875 -34.320312 35.03125 -33.21875 C 34.101562 -32.125 33.144531 -31.03125 32.15625 -29.9375 C 31.550781 -29.332031 30.921875 -28.710938 30.265625 -28.078125 C 29.609375 -27.453125 28.953125 -26.835938 28.296875 -26.234375 C 27.960938 -26.015625 27.492188 -25.710938 26.890625 -25.328125 C 26.285156 -24.941406 25.820312 -24.585938 25.5 -24.265625 C 25.882812 -24.703125 26.390625 -25.125 27.015625 -25.53125 C 27.648438 -25.945312 28.160156 -26.347656 28.546875 -26.734375 C 29.523438 -27.554688 30.484375 -28.429688 31.421875 -29.359375 C 32.410156 -30.460938 33.367188 -31.5625 34.296875 -32.65625 C 35.234375 -33.75 36.113281 -34.898438 36.9375 -36.109375 C 38.519531 -38.359375 39.992188 -40.835938 41.359375 -43.546875 C 42.734375 -46.265625 43.53125 -49.050781 43.75 -51.90625 C 43.695312 -51.84375 43.671875 -51.796875 43.671875 -51.765625 C 43.671875 -51.742188 43.695312 -51.816406 43.75 -51.984375 Z M 24.421875 -48.6875 C 24.203125 -48.195312 23.984375 -47.71875 23.765625 -47.25 C 23.546875 -46.78125 23.300781 -46.328125 23.03125 -45.890625 L 25.171875 -50.578125 C 25.273438 -50.742188 25.203125 -50.507812 24.953125 -49.875 C 24.710938 -49.25 24.535156 -48.851562 24.421875 -48.6875 Z M 17.359375 -15.046875 C 17.296875 -15.046875 17.375 -14.851562 17.59375 -14.46875 C 17.820312 -14.09375 18.070312 -13.601562 18.34375 -13 C 18.007812 -13.601562 17.742188 -14.082031 17.546875 -14.4375 C 17.359375 -14.789062 17.296875 -14.992188 17.359375 -15.046875 Z M 23.1875 -5.015625 L 23.28125 -4.859375 L 23.28125 -4.9375 C 23.21875 -5.039062 23.1875 -5.078125 23.1875 -5.046875 C 23.1875 -5.023438 23.1875 -5.015625 23.1875 -5.015625 Z M 23.1875 -5.015625 C 23.1875 -5.015625 23.132812 -5.070312 23.03125 -5.1875 C 23.132812 -5.070312 23.1875 -5.015625 23.1875 -5.015625 Z M 21.0625 -29.53125 C 21.0625 -29.53125 21.070312 -29.539062 21.09375 -29.5625 C 21.125 -29.59375 21.140625 -29.632812 21.140625 -29.6875 C 21.140625 -29.632812 21.125 -29.609375 21.09375 -29.609375 C 21.070312 -29.609375 21.0625 -29.582031 21.0625 -29.53125 Z M 21.0625 -29.53125 "/></g></g></g><g fill="#ffffff" fill-opacity="1"><g transform="translate(81.835167, 151.476917)"><g><path d="M 37.828125 -20.484375 C 38.429688 -19.710938 38.40625 -19.078125 37.75 -18.578125 C 37.09375 -18.085938 36.175781 -17.707031 35 -17.4375 C 33.820312 -17.164062 32.695312 -16.972656 31.625 -16.859375 C 30.550781 -16.753906 29.90625 -16.671875 29.6875 -16.609375 C 29.632812 -16.609375 29.414062 -16.550781 29.03125 -16.4375 C 28.644531 -16.332031 28.484375 -16.3125 28.546875 -16.375 C 28.160156 -16.207031 27.925781 -16.09375 27.84375 -16.03125 C 27.757812 -15.976562 27.582031 -15.757812 27.3125 -15.375 C 26.976562 -14.882812 26.660156 -14.378906 26.359375 -13.859375 C 26.054688 -13.335938 25.769531 -12.832031 25.5 -12.34375 C 25.382812 -12.226562 25.050781 -11.785156 24.5 -11.015625 C 23.957031 -10.253906 23.394531 -9.53125 22.8125 -8.84375 C 22.238281 -8.15625 21.84375 -7.835938 21.625 -7.890625 C 21.625 -7.890625 21.734375 -8.023438 21.953125 -8.296875 C 22.179688 -8.578125 22.265625 -8.742188 22.203125 -8.796875 L 19.828125 -6 C 20.097656 -6.28125 20.234375 -6.363281 20.234375 -6.25 C 20.015625 -5.539062 19.367188 -4.816406 18.296875 -4.078125 C 17.234375 -3.335938 16.398438 -2.742188 15.796875 -2.296875 C 15.140625 -1.804688 14.410156 -1.351562 13.609375 -0.9375 C 12.816406 -0.53125 11.984375 -0.273438 11.109375 -0.171875 C 9.398438 -0.00390625 7.726562 -0.300781 6.09375 -1.0625 C 4.5 -1.882812 3.148438 -3.078125 2.046875 -4.640625 C 0.953125 -6.203125 0.28125 -7.914062 0.03125 -9.78125 C -0.207031 -11.644531 0.109375 -13.398438 0.984375 -15.046875 C 1.703125 -16.367188 2.359375 -17.738281 2.953125 -19.15625 C 3.554688 -20.582031 4.351562 -21.957031 5.34375 -23.28125 C 5.945312 -23.988281 6.5625 -24.671875 7.1875 -25.328125 C 7.820312 -25.984375 8.523438 -26.5625 9.296875 -27.0625 C 9.953125 -27.550781 10.691406 -27.960938 11.515625 -28.296875 C 11.785156 -28.460938 12.164062 -28.582031 12.65625 -28.65625 C 13.15625 -28.738281 13.515625 -28.863281 13.734375 -29.03125 C 14.003906 -29.195312 14.25 -29.675781 14.46875 -30.46875 C 14.695312 -31.269531 14.890625 -31.832031 15.046875 -32.15625 C 15.378906 -32.757812 15.765625 -33.390625 16.203125 -34.046875 C 16.804688 -34.867188 17.453125 -35.664062 18.140625 -36.4375 C 18.828125 -37.207031 19.609375 -37.835938 20.484375 -38.328125 C 21.910156 -39.097656 23.28125 -39.207031 24.59375 -38.65625 C 25.90625 -38.101562 27.082031 -37.304688 28.125 -36.265625 C 28.125 -36.265625 28.359375 -36.097656 28.828125 -35.765625 C 29.296875 -35.441406 29.503906 -35.144531 29.453125 -34.875 L 29.109375 -35.203125 L 29.453125 -34.546875 L 29.53125 -34.46875 C 29.414062 -34.789062 29.507812 -34.773438 29.8125 -34.421875 C 30.113281 -34.066406 30.265625 -33.890625 30.265625 -33.890625 C 30.648438 -33.335938 30.925781 -32.625 31.09375 -31.75 C 31.195312 -31.195312 31.25 -30.617188 31.25 -30.015625 C 31.25 -29.410156 31.195312 -28.8125 31.09375 -28.21875 C 30.925781 -26.675781 30.632812 -25.132812 30.21875 -23.59375 C 29.8125 -22.0625 29.390625 -20.554688 28.953125 -19.078125 C 30.210938 -19.296875 31.445312 -19.539062 32.65625 -19.8125 C 33.863281 -20.09375 35.066406 -20.34375 36.265625 -20.5625 C 36.546875 -20.675781 36.820312 -20.769531 37.09375 -20.84375 C 37.363281 -20.925781 37.609375 -20.832031 37.828125 -20.5625 C 37.890625 -20.507812 37.90625 -20.484375 37.875 -20.484375 C 37.84375 -20.484375 37.828125 -20.484375 37.828125 -20.484375 Z M 9.375 -3.859375 C 11.289062 -4.242188 13.054688 -5.117188 14.671875 -6.484375 C 16.296875 -7.859375 17.710938 -9.453125 18.921875 -11.265625 C 20.128906 -13.078125 21.140625 -14.78125 21.953125 -16.375 C 20.753906 -16.53125 19.523438 -16.828125 18.265625 -17.265625 C 17.003906 -17.710938 15.890625 -18.359375 14.921875 -19.203125 C 13.960938 -20.054688 13.320312 -21.164062 13 -22.53125 C 12.34375 -21.820312 11.351562 -20.125 10.03125 -17.4375 L 10.53125 -18.171875 C 10.476562 -18.015625 10.203125 -17.398438 9.703125 -16.328125 C 9.210938 -15.253906 8.664062 -13.976562 8.0625 -12.5 C 7.457031 -11.019531 7.003906 -9.59375 6.703125 -8.21875 C 6.398438 -6.851562 6.410156 -5.726562 6.734375 -4.84375 C 7.066406 -3.96875 7.921875 -3.640625 9.296875 -3.859375 Z M 25.578125 -26.65625 C 25.742188 -27.363281 25.921875 -28.222656 26.109375 -29.234375 C 26.304688 -30.253906 26.429688 -31.269531 26.484375 -32.28125 C 26.535156 -33.300781 26.34375 -34.164062 25.90625 -34.875 C 25.363281 -35.75 24.707031 -36.019531 23.9375 -35.6875 C 23.164062 -35.363281 22.421875 -34.816406 21.703125 -34.046875 C 20.992188 -33.285156 20.421875 -32.628906 19.984375 -32.078125 C 19.929688 -32.078125 19.90625 -32.0625 19.90625 -32.03125 C 19.90625 -32.007812 19.90625 -32 19.90625 -32 L 19.828125 -31.828125 L 19.828125 -31.90625 C 19.765625 -31.75 19.734375 -31.671875 19.734375 -31.671875 C 19.515625 -31.390625 19.296875 -31.097656 19.078125 -30.796875 C 18.859375 -30.492188 18.613281 -30.125 18.34375 -29.6875 C 18.394531 -29.75 18.570312 -30.007812 18.875 -30.46875 C 19.175781 -30.9375 19.351562 -31.117188 19.40625 -31.015625 C 19.519531 -30.847656 19.453125 -30.503906 19.203125 -29.984375 C 18.953125 -29.460938 18.691406 -28.941406 18.421875 -28.421875 C 18.148438 -27.898438 17.957031 -27.554688 17.84375 -27.390625 C 17.625 -26.734375 17.414062 -26.070312 17.21875 -25.40625 C 17.03125 -24.75 16.882812 -24.066406 16.78125 -23.359375 C 16.726562 -22.648438 16.710938 -21.9375 16.734375 -21.21875 C 16.765625 -20.507812 17.050781 -19.90625 17.59375 -19.40625 C 17.925781 -19.132812 18.335938 -18.941406 18.828125 -18.828125 C 19.328125 -18.722656 19.796875 -18.644531 20.234375 -18.59375 C 20.503906 -18.53125 20.859375 -18.484375 21.296875 -18.453125 C 21.734375 -18.429688 22.066406 -18.445312 22.296875 -18.5 C 22.734375 -18.613281 22.953125 -18.671875 22.953125 -18.671875 C 22.953125 -18.671875 23.0625 -18.863281 23.28125 -19.25 C 23.882812 -20.289062 24.347656 -21.492188 24.671875 -22.859375 C 25.003906 -24.234375 25.304688 -25.5 25.578125 -26.65625 Z M 19.90625 -32 C 19.90625 -32 19.914062 -32 19.9375 -32 C 19.96875 -32 19.984375 -32.023438 19.984375 -32.078125 Z M 19.90625 -32 "/></g></g></g><g fill="#ffffff" fill-opacity="1"><g transform="translate(113.996667, 151.476917)"><g><path d="M 34.046875 -19.578125 C 34.160156 -18.921875 33.96875 -18.207031 33.46875 -17.4375 C 32.976562 -16.664062 32.40625 -15.921875 31.75 -15.203125 C 31.09375 -14.492188 30.597656 -13.921875 30.265625 -13.484375 C 29.390625 -12.335938 28.507812 -11.171875 27.625 -9.984375 C 26.75 -8.804688 25.820312 -7.671875 24.84375 -6.578125 C 24.34375 -6.085938 23.75 -5.507812 23.0625 -4.84375 C 22.382812 -4.1875 21.660156 -3.679688 20.890625 -3.328125 C 20.117188 -2.972656 19.351562 -2.90625 18.59375 -3.125 C 18.425781 -3.175781 18.050781 -3.351562 17.46875 -3.65625 C 16.894531 -3.957031 16.363281 -4.285156 15.875 -4.640625 C 15.382812 -5.003906 15.140625 -5.238281 15.140625 -5.34375 L 15.375 -5.1875 L 14.890625 -5.671875 C 15.109375 -5.347656 15.078125 -5.296875 14.796875 -5.515625 C 14.523438 -5.734375 14.363281 -5.84375 14.3125 -5.84375 C 14.09375 -6.0625 13.898438 -6.320312 13.734375 -6.625 C 13.566406 -6.925781 13.429688 -7.1875 13.328125 -7.40625 C 13.109375 -7.84375 12.96875 -8.289062 12.90625 -8.75 C 12.851562 -9.21875 12.828125 -9.671875 12.828125 -10.109375 C 12.828125 -10.554688 12.851562 -11.007812 12.90625 -11.46875 C 12.96875 -11.9375 13.023438 -12.390625 13.078125 -12.828125 C 13.191406 -13.765625 13.285156 -14.671875 13.359375 -15.546875 C 13.441406 -16.421875 13.625 -17.296875 13.90625 -18.171875 C 13.957031 -18.335938 14.144531 -18.816406 14.46875 -19.609375 C 14.800781 -20.410156 15.160156 -21.191406 15.546875 -21.953125 C 15.929688 -22.722656 16.207031 -23.082031 16.375 -23.03125 C 16.476562 -23.03125 16.460938 -22.929688 16.328125 -22.734375 C 16.191406 -22.546875 16.148438 -22.425781 16.203125 -22.375 L 17.359375 -24.671875 C 17.296875 -24.617188 17.238281 -24.550781 17.1875 -24.46875 C 17.132812 -24.382812 17.050781 -24.316406 16.9375 -24.265625 C 16.882812 -24.316406 17.050781 -24.671875 17.4375 -25.328125 C 17.820312 -25.984375 18.066406 -26.425781 18.171875 -26.65625 C 17.347656 -25.71875 16.59375 -24.753906 15.90625 -23.765625 C 15.226562 -22.785156 14.503906 -21.800781 13.734375 -20.8125 C 13.179688 -20.09375 12.617188 -19.472656 12.046875 -18.953125 C 11.472656 -18.429688 10.992188 -17.84375 10.609375 -17.1875 C 9.734375 -15.707031 8.816406 -14.269531 7.859375 -12.875 C 6.898438 -11.476562 6.0625 -10.007812 5.34375 -8.46875 L 5.015625 -9.125 C 4.523438 -8.519531 3.976562 -8.285156 3.375 -8.421875 C 2.769531 -8.566406 2.207031 -8.898438 1.6875 -9.421875 C 1.164062 -9.941406 0.769531 -10.421875 0.5 -10.859375 C 0.113281 -11.515625 -0.0507812 -12.128906 0 -12.703125 C 0.0507812 -13.285156 0.109375 -13.929688 0.171875 -14.640625 C 0.273438 -15.296875 0.328125 -15.953125 0.328125 -16.609375 C 0.328125 -17.265625 0.4375 -17.953125 0.65625 -18.671875 C 0.925781 -19.546875 1.210938 -20.394531 1.515625 -21.21875 C 1.816406 -22.039062 2.132812 -22.890625 2.46875 -23.765625 C 2.738281 -24.648438 3.023438 -25.515625 3.328125 -26.359375 C 3.628906 -27.210938 3.945312 -28.078125 4.28125 -28.953125 C 4.5 -29.503906 4.769531 -30.09375 5.09375 -30.71875 C 5.425781 -31.351562 5.644531 -31.941406 5.75 -32.484375 C 5.863281 -32.921875 5.929688 -33.304688 5.953125 -33.640625 C 5.984375 -33.972656 6.273438 -34.300781 6.828125 -34.625 C 7.316406 -34.894531 7.820312 -35.046875 8.34375 -35.078125 C 8.863281 -35.109375 9.398438 -35.066406 9.953125 -34.953125 C 10.390625 -34.898438 10.878906 -34.707031 11.421875 -34.375 C 11.972656 -34.050781 12.375 -33.628906 12.625 -33.109375 C 12.875 -32.585938 12.75 -31.96875 12.25 -31.25 C 11.976562 -30.863281 11.625 -30.476562 11.1875 -30.09375 C 10.75 -29.71875 10.363281 -29.3125 10.03125 -28.875 C 9.644531 -28.4375 9.425781 -28.066406 9.375 -27.765625 C 9.320312 -27.460938 9.210938 -27.035156 9.046875 -26.484375 C 8.992188 -26.148438 8.828125 -25.832031 8.546875 -25.53125 C 8.273438 -25.238281 8.054688 -24.925781 7.890625 -24.59375 C 7.671875 -24.15625 7.460938 -23.660156 7.265625 -23.109375 C 7.078125 -22.566406 6.90625 -22.019531 6.75 -21.46875 C 6.6875 -21.132812 6.65625 -20.832031 6.65625 -20.5625 C 6.65625 -20.289062 6.628906 -19.988281 6.578125 -19.65625 C 6.523438 -18.78125 6.390625 -17.914062 6.171875 -17.0625 C 5.953125 -16.21875 5.785156 -15.351562 5.671875 -14.46875 C 5.722656 -14.632812 5.84375 -14.828125 6.03125 -15.046875 C 6.226562 -15.265625 6.359375 -15.347656 6.421875 -15.296875 C 6.472656 -15.242188 6.347656 -14.984375 6.046875 -14.515625 C 5.742188 -14.046875 5.617188 -13.8125 5.671875 -13.8125 L 10.53125 -20.890625 C 9.976562 -20.179688 9.523438 -19.601562 9.171875 -19.15625 C 8.816406 -18.71875 8.640625 -18.5 8.640625 -18.5 C 8.578125 -18.5625 8.863281 -19.015625 9.5 -19.859375 C 10.132812 -20.710938 10.941406 -21.78125 11.921875 -23.0625 C 12.910156 -24.351562 13.9375 -25.65625 15 -26.96875 C 16.070312 -28.289062 17.003906 -29.441406 17.796875 -30.421875 C 18.597656 -31.410156 19.109375 -32.015625 19.328125 -32.234375 C 20.535156 -33.335938 21.796875 -33.804688 23.109375 -33.640625 C 24.429688 -33.472656 25.363281 -32.429688 25.90625 -30.515625 C 26.34375 -29.140625 26.273438 -27.90625 25.703125 -26.8125 C 25.128906 -25.71875 24.359375 -24.675781 23.390625 -23.6875 C 22.429688 -22.695312 21.625 -21.710938 20.96875 -20.734375 C 20.425781 -19.910156 19.929688 -19.03125 19.484375 -18.09375 C 19.046875 -17.164062 18.609375 -16.257812 18.171875 -15.375 C 17.898438 -14.832031 17.53125 -14.050781 17.0625 -13.03125 C 16.601562 -12.019531 16.316406 -11.046875 16.203125 -10.109375 C 16.316406 -10.710938 16.535156 -11.359375 16.859375 -12.046875 C 17.191406 -12.734375 17.4375 -13.269531 17.59375 -13.65625 C 18.257812 -15.351562 19.222656 -16.804688 20.484375 -18.015625 C 20.203125 -17.460938 19.910156 -16.9375 19.609375 -16.4375 C 19.316406 -15.945312 19.03125 -15.457031 18.75 -14.96875 L 19.171875 -15.46875 C 19.222656 -15.46875 19.175781 -15.234375 19.03125 -14.765625 C 18.894531 -14.296875 18.757812 -13.8125 18.625 -13.3125 C 18.488281 -12.820312 18.394531 -12.550781 18.34375 -12.5 C 18.175781 -12.007812 18.023438 -11.503906 17.890625 -10.984375 C 17.753906 -10.460938 17.65625 -9.925781 17.59375 -9.375 C 17.539062 -9.320312 17.523438 -9.078125 17.546875 -8.640625 C 17.578125 -8.203125 17.59375 -7.984375 17.59375 -7.984375 L 17.6875 -7.890625 C 17.6875 -7.953125 17.796875 -7.992188 18.015625 -8.015625 C 18.234375 -8.046875 18.367188 -8.085938 18.421875 -8.140625 C 19.023438 -8.359375 19.628906 -8.710938 20.234375 -9.203125 C 20.835938 -9.703125 21.382812 -10.144531 21.875 -10.53125 C 22.863281 -11.289062 23.835938 -12.097656 24.796875 -12.953125 C 25.753906 -13.804688 26.703125 -14.644531 27.640625 -15.46875 C 28.347656 -16.125 29.113281 -16.78125 29.9375 -17.4375 C 30.757812 -18.09375 31.445312 -18.78125 32 -19.5 C 32.269531 -19.875 32.625 -20.226562 33.0625 -20.5625 C 33.5 -20.894531 33.828125 -20.566406 34.046875 -19.578125 Z M 34.046875 -19.578125 "/></g></g></g><g fill="#ffffff" fill-opacity="1"><g transform="translate(142.045443, 151.476917)"><g><path d="M 21.546875 -20.234375 C 21.710938 -19.460938 21.535156 -18.664062 21.015625 -17.84375 C 20.492188 -17.019531 20.015625 -16.335938 19.578125 -15.796875 C 18.859375 -14.753906 18.15625 -13.738281 17.46875 -12.75 C 16.789062 -11.757812 16.066406 -10.769531 15.296875 -9.78125 C 14.472656 -8.6875 13.523438 -7.425781 12.453125 -6 C 11.390625 -4.570312 10.144531 -3.695312 8.71875 -3.375 C 8.5 -3.375 8.085938 -3.441406 7.484375 -3.578125 C 6.878906 -3.710938 6.316406 -3.875 5.796875 -4.0625 C 5.273438 -4.257812 5.015625 -4.441406 5.015625 -4.609375 L 5.1875 -4.609375 C 4.851562 -4.773438 4.726562 -4.773438 4.8125 -4.609375 C 4.894531 -4.441406 4.6875 -4.550781 4.1875 -4.9375 C 3.8125 -5.207031 3.5 -5.503906 3.25 -5.828125 C 3 -6.160156 2.738281 -6.519531 2.46875 -6.90625 C 2.03125 -7.507812 1.5625 -8.113281 1.0625 -8.71875 C 0.570312 -9.320312 0.242188 -9.976562 0.078125 -10.6875 C 0.078125 -10.851562 0.0625 -11.207031 0.03125 -11.75 C 0.0078125 -12.300781 0.0234375 -12.820312 0.078125 -13.3125 C 0.140625 -13.8125 0.28125 -14.0625 0.5 -14.0625 C 0.601562 -14.0625 0.628906 -13.992188 0.578125 -13.859375 C 0.523438 -13.722656 0.523438 -13.65625 0.578125 -13.65625 L 0.828125 -15.140625 C 0.710938 -14.972656 0.628906 -14.863281 0.578125 -14.8125 C 0.523438 -14.8125 0.550781 -15.109375 0.65625 -15.703125 C 0.769531 -16.304688 0.921875 -17.019531 1.109375 -17.84375 C 1.296875 -18.664062 1.472656 -19.40625 1.640625 -20.0625 C 1.804688 -20.726562 1.914062 -21.113281 1.96875 -21.21875 C 2.300781 -22.09375 2.617188 -22.96875 2.921875 -23.84375 C 3.222656 -24.726562 3.785156 -25.414062 4.609375 -25.90625 C 5.210938 -26.34375 5.894531 -26.535156 6.65625 -26.484375 C 7.425781 -26.429688 8.195312 -26.238281 8.96875 -25.90625 C 9.289062 -25.800781 9.796875 -25.566406 10.484375 -25.203125 C 11.171875 -24.847656 11.515625 -24.453125 11.515625 -24.015625 C 11.515625 -23.796875 11.429688 -23.628906 11.265625 -23.515625 C 11.097656 -23.410156 10.960938 -23.300781 10.859375 -23.1875 C 10.910156 -23.25 11.019531 -23.28125 11.1875 -23.28125 C 11.289062 -23.21875 11.148438 -22.882812 10.765625 -22.28125 C 10.390625 -21.6875 10.144531 -21.414062 10.03125 -21.46875 C 9.976562 -21.46875 9.976562 -21.546875 10.03125 -21.703125 C 10.082031 -21.867188 10.140625 -22.007812 10.203125 -22.125 C 8.660156 -19.601562 7.367188 -16.832031 6.328125 -13.8125 C 6.492188 -14.195312 6.769531 -14.84375 7.15625 -15.75 C 7.539062 -16.65625 7.9375 -17.503906 8.34375 -18.296875 C 8.757812 -19.097656 8.992188 -19.46875 9.046875 -19.40625 C 9.097656 -19.40625 8.957031 -19.0625 8.625 -18.375 C 8.300781 -17.695312 7.90625 -16.835938 7.4375 -15.796875 C 6.976562 -14.753906 6.566406 -13.695312 6.203125 -12.625 C 5.847656 -11.550781 5.65625 -10.585938 5.625 -9.734375 C 5.601562 -8.890625 5.867188 -8.332031 6.421875 -8.0625 C 6.859375 -7.84375 7.363281 -7.867188 7.9375 -8.140625 C 8.507812 -8.410156 9.070312 -8.765625 9.625 -9.203125 C 10.175781 -9.648438 10.585938 -9.984375 10.859375 -10.203125 C 11.628906 -10.804688 12.492188 -11.476562 13.453125 -12.21875 C 14.410156 -12.957031 15.160156 -13.679688 15.703125 -14.390625 C 15.597656 -14.285156 15.410156 -14.234375 15.140625 -14.234375 C 15.078125 -14.335938 15.222656 -14.691406 15.578125 -15.296875 C 15.941406 -15.898438 16.410156 -16.582031 16.984375 -17.34375 C 17.554688 -18.113281 18.101562 -18.8125 18.625 -19.4375 C 19.144531 -20.070312 19.488281 -20.445312 19.65625 -20.5625 C 19.925781 -20.78125 20.296875 -20.914062 20.765625 -20.96875 C 21.234375 -21.03125 21.492188 -20.785156 21.546875 -20.234375 Z M 7.15625 -30.59375 C 7.15625 -30.59375 7.070312 -30.71875 6.90625 -30.96875 C 6.738281 -31.21875 6.65625 -31.367188 6.65625 -31.421875 C 6.65625 -31.523438 6.640625 -31.796875 6.609375 -32.234375 C 6.585938 -32.679688 6.617188 -33.09375 6.703125 -33.46875 C 6.785156 -33.851562 6.960938 -33.96875 7.234375 -33.8125 C 7.234375 -33.914062 7.382812 -34.144531 7.6875 -34.5 C 7.988281 -34.851562 8.003906 -34.757812 7.734375 -34.21875 C 8.441406 -35.144531 9.097656 -36.269531 9.703125 -37.59375 L 8.71875 -36.109375 C 9.101562 -36.878906 9.515625 -37.851562 9.953125 -39.03125 C 10.390625 -40.207031 10.632812 -40.929688 10.6875 -41.203125 C 10.6875 -41.265625 10.671875 -41.429688 10.640625 -41.703125 C 10.617188 -41.972656 10.632812 -42.132812 10.6875 -42.1875 C 9.8125 -42.519531 9.535156 -42.90625 9.859375 -43.34375 C 10.191406 -43.78125 10.550781 -44.140625 10.9375 -44.421875 C 10.769531 -44.421875 10.660156 -44.472656 10.609375 -44.578125 C 10.441406 -44.742188 10.519531 -44.878906 10.84375 -44.984375 C 11.175781 -45.097656 11.398438 -45.179688 11.515625 -45.234375 C 12.117188 -45.515625 12.75 -45.597656 13.40625 -45.484375 C 14.0625 -45.367188 14.664062 -45.175781 15.21875 -44.90625 C 15.65625 -44.632812 16.066406 -44.222656 16.453125 -43.671875 C 16.835938 -43.128906 17.109375 -42.609375 17.265625 -42.109375 C 17.429688 -41.566406 17.363281 -41.019531 17.0625 -40.46875 C 16.757812 -39.914062 16.414062 -39.476562 16.03125 -39.15625 C 15.875 -38.988281 15.671875 -38.835938 15.421875 -38.703125 C 15.171875 -38.566406 14.9375 -38.414062 14.71875 -38.25 C 14.5 -37.96875 14.363281 -37.648438 14.3125 -37.296875 C 14.257812 -36.941406 14.125 -36.628906 13.90625 -36.359375 C 13.789062 -36.140625 13.625 -35.972656 13.40625 -35.859375 C 13.1875 -35.753906 13.019531 -35.59375 12.90625 -35.375 C 12.582031 -35.144531 12.554688 -34.894531 12.828125 -34.625 C 12.503906 -34.457031 12.234375 -34.265625 12.015625 -34.046875 C 11.628906 -33.390625 11.269531 -32.851562 10.9375 -32.4375 C 10.613281 -32.03125 10.203125 -31.632812 9.703125 -31.25 C 10.140625 -31.53125 10.535156 -31.820312 10.890625 -32.125 C 11.253906 -32.425781 11.628906 -32.847656 12.015625 -33.390625 C 12.671875 -34.210938 13.460938 -34.816406 14.390625 -35.203125 C 14.003906 -34.765625 13.703125 -34.296875 13.484375 -33.796875 C 13.265625 -33.304688 12.910156 -32.898438 12.421875 -32.578125 C 12.085938 -32.410156 11.90625 -32.367188 11.875 -32.453125 C 11.851562 -32.535156 11.84375 -32.585938 11.84375 -32.609375 C 11.84375 -32.640625 11.648438 -32.488281 11.265625 -32.15625 C 11.265625 -32.15625 11.332031 -32.164062 11.46875 -32.1875 C 11.601562 -32.21875 11.617188 -32.179688 11.515625 -32.078125 C 11.128906 -31.742188 10.742188 -31.359375 10.359375 -30.921875 C 9.972656 -30.484375 9.535156 -30.15625 9.046875 -29.9375 C 8.828125 -29.882812 8.609375 -29.800781 8.390625 -29.6875 C 8.171875 -29.582031 7.925781 -29.582031 7.65625 -29.6875 C 7.375 -29.851562 7.242188 -30.019531 7.265625 -30.1875 C 7.296875 -30.351562 7.257812 -30.488281 7.15625 -30.59375 Z M 5.59375 -11.015625 C 5.644531 -11.128906 5.644531 -11.160156 5.59375 -11.109375 L 5.421875 -10.453125 L 5.59375 -10.9375 Z M 8.3125 -35.453125 L 8.640625 -35.9375 C 8.578125 -35.78125 8.503906 -35.660156 8.421875 -35.578125 C 8.347656 -35.492188 8.3125 -35.453125 8.3125 -35.453125 Z M 7.484375 -33.890625 C 7.429688 -33.835938 7.375 -33.8125 7.3125 -33.8125 C 7.375 -33.8125 7.40625 -33.796875 7.40625 -33.765625 C 7.40625 -33.734375 7.40625 -33.71875 7.40625 -33.71875 C 7.457031 -33.78125 7.484375 -33.835938 7.484375 -33.890625 Z M 7.484375 -33.890625 "/></g></g></g><g fill="#ffffff" fill-opacity="1"><g transform="translate(157.591542, 151.476917)"><g><path d="M 49.34375 -60.703125 C 50.0625 -60.148438 50.570312 -59.503906 50.875 -58.765625 C 51.175781 -58.023438 51.488281 -57.269531 51.8125 -56.5 C 52.3125 -55.625 52.257812 -54.648438 51.65625 -53.578125 C 51.050781 -52.515625 50.503906 -51.597656 50.015625 -50.828125 C 49.296875 -49.734375 48.5 -48.664062 47.625 -47.625 C 46.75 -46.582031 45.84375 -45.566406 44.90625 -44.578125 C 44.195312 -43.867188 43.472656 -43.128906 42.734375 -42.359375 C 41.992188 -41.585938 41.15625 -40.929688 40.21875 -40.390625 C 39.664062 -40.054688 39.101562 -39.875 38.53125 -39.84375 C 37.957031 -39.820312 37.585938 -39.960938 37.421875 -40.265625 C 37.253906 -40.566406 37.5 -41.046875 38.15625 -41.703125 C 38.320312 -41.804688 38.554688 -42.160156 38.859375 -42.765625 C 39.160156 -43.367188 39.515625 -44.054688 39.921875 -44.828125 C 40.335938 -45.597656 40.75 -46.269531 41.15625 -46.84375 C 41.570312 -47.414062 41.914062 -47.703125 42.1875 -47.703125 C 42.132812 -47.648438 41.972656 -47.347656 41.703125 -46.796875 C 41.429688 -46.253906 41.179688 -45.789062 40.953125 -45.40625 C 41.503906 -46.164062 42.203125 -47.21875 43.046875 -48.5625 C 43.898438 -49.90625 44.65625 -51.316406 45.3125 -52.796875 C 45.976562 -54.285156 46.296875 -55.644531 46.265625 -56.875 C 46.234375 -58.113281 45.644531 -59.003906 44.5 -59.546875 C 43.5625 -59.984375 42.460938 -60.066406 41.203125 -59.796875 C 39.941406 -59.523438 38.847656 -59.222656 37.921875 -58.890625 C 35.835938 -58.179688 33.832031 -57.082031 31.90625 -55.59375 C 34.539062 -57.570312 37.445312 -58.835938 40.625 -59.390625 C 41.34375 -59.492188 42.125 -59.570312 42.96875 -59.625 C 43.820312 -59.6875 44.523438 -59.46875 45.078125 -58.96875 C 45.679688 -58.363281 45.910156 -57.734375 45.765625 -57.078125 C 45.628906 -56.421875 45.507812 -55.789062 45.40625 -55.1875 C 45.40625 -55.90625 45.414062 -56.5625 45.4375 -57.15625 C 45.46875 -57.757812 45.332031 -58.28125 45.03125 -58.71875 C 44.726562 -59.164062 44.054688 -59.414062 43.015625 -59.46875 C 41.753906 -59.519531 40.476562 -59.351562 39.1875 -58.96875 C 37.90625 -58.582031 36.710938 -58.117188 35.609375 -57.578125 C 33.691406 -56.640625 31.894531 -55.390625 30.21875 -53.828125 C 28.550781 -52.265625 27.222656 -50.523438 26.234375 -48.609375 C 25.140625 -46.472656 24.644531 -44.289062 24.75 -42.0625 C 24.863281 -39.84375 25.316406 -37.648438 26.109375 -35.484375 C 26.910156 -33.316406 27.84375 -31.175781 28.90625 -29.0625 C 29.976562 -26.957031 30.925781 -24.945312 31.75 -23.03125 C 30.925781 -24.625 30.0625 -26.1875 29.15625 -27.71875 C 28.25 -29.25 27.414062 -30.785156 26.65625 -32.328125 C 27.25 -31.066406 27.710938 -29.832031 28.046875 -28.625 C 28.378906 -27.414062 28.898438 -26.179688 29.609375 -24.921875 C 30.546875 -23.390625 31.460938 -21.894531 32.359375 -20.4375 C 33.265625 -18.988281 33.992188 -17.382812 34.546875 -15.625 C 35.640625 -11.945312 35.664062 -8.585938 34.625 -5.546875 C 33.582031 -2.503906 31.632812 0.25 28.78125 2.71875 L 30.4375 1.5625 C 30.4375 2.164062 30.066406 2.796875 29.328125 3.453125 C 28.585938 4.109375 27.664062 4.738281 26.5625 5.34375 C 25.46875 5.945312 24.425781 6.46875 23.4375 6.90625 C 22.445312 7.34375 21.734375 7.644531 21.296875 7.8125 C 18.828125 8.800781 16.097656 9.335938 13.109375 9.421875 C 10.128906 9.503906 7.40625 8.941406 4.9375 7.734375 C 3.175781 6.796875 1.910156 5.585938 1.140625 4.109375 C 0.378906 2.628906 0 1.023438 0 -0.703125 C 0 -2.429688 0.269531 -4.171875 0.8125 -5.921875 C 1.363281 -7.671875 2.082031 -9.234375 2.96875 -10.609375 C 3.1875 -10.941406 3.664062 -11.585938 4.40625 -12.546875 C 5.144531 -13.503906 5.992188 -14.445312 6.953125 -15.375 C 7.910156 -16.3125 8.828125 -16.984375 9.703125 -17.390625 C 10.578125 -17.804688 11.234375 -17.601562 11.671875 -16.78125 C 11.953125 -16.34375 11.910156 -15.722656 11.546875 -14.921875 C 11.191406 -14.128906 10.769531 -13.320312 10.28125 -12.5 C 9.789062 -11.675781 9.460938 -11.046875 9.296875 -10.609375 C 8.960938 -9.898438 8.6875 -9.1875 8.46875 -8.46875 C 8.25 -7.757812 8.054688 -7.019531 7.890625 -6.25 C 7.617188 -4.9375 7.425781 -3.535156 7.3125 -2.046875 C 7.207031 -0.566406 7.429688 0.800781 7.984375 2.0625 C 8.640625 3.59375 9.734375 4.453125 11.265625 4.640625 C 12.804688 4.835938 14.285156 4.742188 15.703125 4.359375 C 17.679688 3.753906 19.519531 2.765625 21.21875 1.390625 C 22.914062 0.0234375 24.285156 -1.535156 25.328125 -3.296875 C 25.878906 -4.222656 26.332031 -5.191406 26.6875 -6.203125 C 27.039062 -7.222656 27.25 -8.253906 27.3125 -9.296875 C 27.3125 -10.066406 27.226562 -10.859375 27.0625 -11.671875 C 27.007812 -11.898438 26.898438 -12.175781 26.734375 -12.5 C 26.566406 -12.832031 26.507812 -13.132812 26.5625 -13.40625 C 26.5625 -13.238281 26.628906 -13.03125 26.765625 -12.78125 C 26.910156 -12.539062 27.007812 -12.3125 27.0625 -12.09375 C 27.007812 -12.363281 26.941406 -12.632812 26.859375 -12.90625 C 26.773438 -13.1875 26.707031 -13.488281 26.65625 -13.8125 C 26.65625 -13.757812 26.597656 -13.84375 26.484375 -14.0625 C 26.367188 -14.28125 26.285156 -14.390625 26.234375 -14.390625 C 25.960938 -15.046875 25.742188 -15.648438 25.578125 -16.203125 L 24.09375 -19.90625 C 23.269531 -22.039062 22.390625 -24.164062 21.453125 -26.28125 C 20.523438 -28.394531 19.597656 -30.519531 18.671875 -32.65625 C 18.015625 -34.238281 17.476562 -35.867188 17.0625 -37.546875 C 16.65625 -39.222656 16.394531 -40.910156 16.28125 -42.609375 C 16.28125 -42.878906 16.253906 -43.476562 16.203125 -44.40625 C 16.148438 -45.34375 16.175781 -46.234375 16.28125 -47.078125 C 16.394531 -47.929688 16.671875 -48.359375 17.109375 -48.359375 C 17.054688 -48.359375 16.988281 -48.140625 16.90625 -47.703125 C 16.820312 -47.265625 16.804688 -47.046875 16.859375 -47.046875 C 17.191406 -48.578125 17.769531 -50.113281 18.59375 -51.65625 L 18.015625 -50.828125 C 18.179688 -51.816406 18.601562 -52.773438 19.28125 -53.703125 C 19.96875 -54.640625 20.734375 -55.53125 21.578125 -56.375 C 22.429688 -57.226562 23.191406 -57.957031 23.859375 -58.5625 C 26.816406 -61.300781 30.242188 -63.164062 34.140625 -64.15625 C 36.109375 -64.644531 37.992188 -64.753906 39.796875 -64.484375 C 41.609375 -64.210938 43.445312 -63.691406 45.3125 -62.921875 C 46.082031 -62.648438 46.8125 -62.332031 47.5 -61.96875 C 48.1875 -61.613281 48.800781 -61.191406 49.34375 -60.703125 Z M 3.375 5.921875 C 2.332031 4.546875 1.738281 2.789062 1.59375 0.65625 C 1.457031 -1.476562 1.707031 -3.679688 2.34375 -5.953125 C 2.976562 -8.234375 3.84375 -10.171875 4.9375 -11.765625 C 3.675781 -10.003906 2.660156 -8.097656 1.890625 -6.046875 C 1.117188 -3.992188 0.816406 -1.941406 0.984375 0.109375 C 1.148438 2.171875 1.945312 4.109375 3.375 5.921875 Z M 24.59375 -41.953125 L 24.59375 -40.796875 C 24.59375 -40.960938 24.601562 -41.140625 24.625 -41.328125 C 24.65625 -41.523438 24.644531 -41.734375 24.59375 -41.953125 Z M 24.59375 -41.953125 "/></g></g></g><g fill="#ffffff" fill-opacity="1"><g transform="translate(198.636524, 151.476917)"><g><path d="M 40.796875 -20.234375 C 40.898438 -20.234375 41.085938 -20.164062 41.359375 -20.03125 C 41.640625 -19.894531 41.644531 -19.796875 41.375 -19.734375 C 41.476562 -19.796875 41.363281 -19.441406 41.03125 -18.671875 C 40.707031 -17.898438 40.335938 -17.101562 39.921875 -16.28125 C 39.515625 -15.457031 39.257812 -14.96875 39.15625 -14.8125 C 38.550781 -13.820312 37.914062 -12.832031 37.25 -11.84375 C 36.59375 -10.851562 35.9375 -9.894531 35.28125 -8.96875 C 34.070312 -7.15625 32.878906 -5.273438 31.703125 -3.328125 C 30.523438 -1.378906 29.140625 0.359375 27.546875 1.890625 C 27.003906 2.441406 26.472656 2.851562 25.953125 3.125 C 25.429688 3.394531 24.785156 3.503906 24.015625 3.453125 C 23.085938 3.398438 22.28125 3.179688 21.59375 2.796875 C 20.90625 2.410156 20.257812 1.914062 19.65625 1.3125 C 19.601562 1.207031 19.367188 0.972656 18.953125 0.609375 C 18.546875 0.253906 18.175781 -0.125 17.84375 -0.53125 C 17.519531 -0.945312 17.382812 -1.234375 17.4375 -1.390625 L 17.9375 -0.65625 C 17.707031 -0.988281 17.515625 -1.425781 17.359375 -1.96875 L 17.359375 -1.640625 C 17.296875 -1.585938 17.179688 -1.796875 17.015625 -2.265625 C 16.859375 -2.734375 16.722656 -3.226562 16.609375 -3.75 C 16.503906 -4.269531 16.453125 -4.582031 16.453125 -4.6875 C 16.398438 -5.289062 16.425781 -5.90625 16.53125 -6.53125 C 16.644531 -7.164062 16.753906 -7.785156 16.859375 -8.390625 C 17.128906 -9.378906 17.414062 -10.363281 17.71875 -11.34375 C 18.019531 -12.332031 18.28125 -13.320312 18.5 -14.3125 C 18.78125 -15.351562 19.164062 -16.363281 19.65625 -17.34375 C 20.144531 -18.332031 20.640625 -19.320312 21.140625 -20.3125 C 21.191406 -20.425781 21.367188 -20.769531 21.671875 -21.34375 C 21.972656 -21.914062 22.273438 -22.476562 22.578125 -23.03125 C 22.878906 -23.582031 23.082031 -23.859375 23.1875 -23.859375 C 23.1875 -23.796875 23.128906 -23.640625 23.015625 -23.390625 C 22.910156 -23.148438 22.890625 -23.003906 22.953125 -22.953125 L 24.1875 -25.75 L 23.9375 -25.5 L 26.3125 -31.25 C 24.78125 -30.050781 23.394531 -28.65625 22.15625 -27.0625 C 20.925781 -25.46875 19.707031 -23.929688 18.5 -22.453125 C 17.957031 -21.742188 17.394531 -21.003906 16.8125 -20.234375 C 16.238281 -19.460938 15.597656 -18.773438 14.890625 -18.171875 C 14.671875 -17.953125 14.488281 -17.859375 14.34375 -17.890625 C 14.207031 -17.921875 14.03125 -17.796875 13.8125 -17.515625 C 13.65625 -17.296875 13.503906 -17.0625 13.359375 -16.8125 C 13.222656 -16.570312 13.101562 -16.3125 13 -16.03125 C 12.0625 -14.5 11.03125 -13.003906 9.90625 -11.546875 C 8.78125 -10.097656 7.726562 -8.609375 6.75 -7.078125 L 5.265625 -4.4375 C 5.210938 -4.21875 5.15625 -4.039062 5.09375 -3.90625 C 5.039062 -3.769531 4.929688 -3.59375 4.765625 -3.375 C 4.222656 -2.820312 3.550781 -2.613281 2.75 -2.75 C 1.957031 -2.894531 1.34375 -3.238281 0.90625 -3.78125 C 0.519531 -4.21875 0.285156 -4.695312 0.203125 -5.21875 C 0.117188 -5.738281 0.078125 -6.25 0.078125 -6.75 C -0.0859375 -8.550781 -0.0195312 -10.398438 0.28125 -12.296875 C 0.582031 -14.191406 0.898438 -16.015625 1.234375 -17.765625 C 1.941406 -21.660156 2.773438 -25.523438 3.734375 -29.359375 C 4.703125 -33.203125 5.816406 -36.988281 7.078125 -40.71875 C 8.171875 -44.0625 9.507812 -47.265625 11.09375 -50.328125 C 12.6875 -53.398438 14.28125 -56.5 15.875 -59.625 C 15.875 -59.6875 15.957031 -60.015625 16.125 -60.609375 C 16.289062 -61.210938 16.484375 -61.570312 16.703125 -61.6875 C 16.640625 -61.632812 16.523438 -61.359375 16.359375 -60.859375 C 16.203125 -60.367188 16.125 -60.125 16.125 -60.125 L 17.109375 -62.015625 C 17.109375 -62.015625 17.09375 -62.015625 17.0625 -62.015625 C 17.039062 -62.015625 17 -62.039062 16.9375 -62.09375 C 16.9375 -62.863281 17.28125 -63.726562 17.96875 -64.6875 C 18.65625 -65.644531 19.191406 -66.425781 19.578125 -67.03125 C 20.179688 -67.96875 20.785156 -68.898438 21.390625 -69.828125 C 21.992188 -70.765625 22.625 -71.671875 23.28125 -72.546875 C 24.425781 -74.140625 25.601562 -75.753906 26.8125 -77.390625 C 28.019531 -79.035156 29.390625 -80.460938 30.921875 -81.671875 C 31.742188 -82.273438 32.648438 -82.820312 33.640625 -83.3125 C 34.628906 -83.8125 35.644531 -84.003906 36.6875 -83.890625 C 37.832031 -83.890625 38.789062 -83.507812 39.5625 -82.75 C 39.675781 -82.632812 39.867188 -82.34375 40.140625 -81.875 C 40.410156 -81.414062 40.640625 -80.9375 40.828125 -80.4375 C 41.023438 -79.945312 41.039062 -79.644531 40.875 -79.53125 C 40.875 -79.53125 40.804688 -79.734375 40.671875 -80.140625 C 40.535156 -80.554688 40.441406 -80.765625 40.390625 -80.765625 C 40.660156 -80.109375 40.820312 -79.421875 40.875 -78.703125 C 40.925781 -77.992188 40.925781 -77.3125 40.875 -76.65625 C 40.988281 -76.820312 41.046875 -76.90625 41.046875 -76.90625 C 41.148438 -76.90625 41.132812 -76.519531 41 -75.75 C 40.863281 -74.976562 40.6875 -74.070312 40.46875 -73.03125 C 40.25 -71.988281 40.039062 -71.039062 39.84375 -70.1875 C 39.65625 -69.34375 39.535156 -68.835938 39.484375 -68.671875 C 39.097656 -67.253906 38.613281 -65.84375 38.03125 -64.4375 C 37.457031 -63.039062 36.867188 -61.660156 36.265625 -60.296875 C 34.898438 -57.441406 33.351562 -54.53125 31.625 -51.5625 C 29.894531 -48.601562 27.988281 -45.890625 25.90625 -43.421875 C 25.519531 -42.984375 25.082031 -42.585938 24.59375 -42.234375 C 24.101562 -41.878906 23.664062 -41.507812 23.28125 -41.125 C 22.894531 -40.6875 22.535156 -40.191406 22.203125 -39.640625 C 21.878906 -39.097656 21.5 -38.578125 21.0625 -38.078125 C 20.019531 -36.867188 18.921875 -35.6875 17.765625 -34.53125 C 16.609375 -33.382812 15.429688 -32.265625 14.234375 -31.171875 C 13.515625 -30.515625 12.988281 -29.9375 12.65625 -29.4375 C 12.332031 -28.945312 12.003906 -28.238281 11.671875 -27.3125 C 11.398438 -26.425781 11.128906 -25.554688 10.859375 -24.703125 C 10.585938 -23.859375 10.3125 -23.023438 10.03125 -22.203125 C 9.488281 -20.554688 8.96875 -18.910156 8.46875 -17.265625 C 7.976562 -15.628906 7.515625 -13.957031 7.078125 -12.25 C 7.785156 -13.351562 8.507812 -14.410156 9.25 -15.421875 C 9.988281 -16.429688 10.742188 -17.457031 11.515625 -18.5 C 10.960938 -17.894531 10.519531 -17.390625 10.1875 -16.984375 C 9.863281 -16.578125 9.703125 -16.375 9.703125 -16.375 C 9.648438 -16.375 9.960938 -16.8125 10.640625 -17.6875 C 11.328125 -18.5625 12.207031 -19.640625 13.28125 -20.921875 C 14.351562 -22.210938 15.4375 -23.53125 16.53125 -24.875 C 17.625 -26.21875 18.582031 -27.394531 19.40625 -28.40625 C 20.226562 -29.425781 20.75 -30.046875 20.96875 -30.265625 C 21.570312 -30.921875 22.296875 -31.6875 23.140625 -32.5625 C 23.992188 -33.445312 24.898438 -34.203125 25.859375 -34.828125 C 26.828125 -35.460938 27.800781 -35.78125 28.78125 -35.78125 C 29.769531 -35.78125 30.703125 -35.234375 31.578125 -34.140625 C 32.617188 -32.867188 32.90625 -31.519531 32.4375 -30.09375 C 31.976562 -28.675781 31.445312 -27.335938 30.84375 -26.078125 C 29.800781 -23.828125 28.691406 -21.441406 27.515625 -18.921875 C 26.335938 -16.398438 25.414062 -13.984375 24.75 -11.671875 C 24.8125 -11.734375 24.921875 -11.96875 25.078125 -12.375 C 25.242188 -12.789062 25.382812 -12.941406 25.5 -12.828125 C 25.664062 -12.660156 25.648438 -12.207031 25.453125 -11.46875 C 25.265625 -10.726562 25.046875 -9.988281 24.796875 -9.25 C 24.546875 -8.507812 24.394531 -8.003906 24.34375 -7.734375 C 24.34375 -7.566406 24.285156 -7.207031 24.171875 -6.65625 C 24.066406 -6.113281 24.015625 -5.59375 24.015625 -5.09375 C 24.015625 -4.601562 24.125 -4.273438 24.34375 -4.109375 C 24.726562 -3.890625 25.148438 -3.914062 25.609375 -4.1875 C 26.078125 -4.46875 26.546875 -4.828125 27.015625 -5.265625 C 27.484375 -5.703125 27.828125 -6.03125 28.046875 -6.25 C 29.523438 -7.675781 30.945312 -9.179688 32.3125 -10.765625 C 33.6875 -12.359375 35.0625 -13.925781 36.4375 -15.46875 C 36.925781 -16.070312 37.429688 -16.703125 37.953125 -17.359375 C 38.472656 -18.015625 39.007812 -18.617188 39.5625 -19.171875 C 39.675781 -19.273438 39.851562 -19.476562 40.09375 -19.78125 C 40.34375 -20.082031 40.578125 -20.234375 40.796875 -20.234375 Z M 33.640625 -75.59375 C 33.640625 -75.53125 33.625 -75.5 33.59375 -75.5 C 33.570312 -75.5 33.5625 -75.5 33.5625 -75.5 C 32.082031 -73.144531 30.679688 -70.71875 29.359375 -68.21875 C 28.046875 -65.726562 26.757812 -63.25 25.5 -60.78125 C 24.34375 -58.53125 23.160156 -56.238281 21.953125 -53.90625 C 20.753906 -51.582031 19.660156 -49.296875 18.671875 -47.046875 C 18.773438 -47.265625 18.894531 -47.457031 19.03125 -47.625 C 19.175781 -47.789062 19.273438 -47.898438 19.328125 -47.953125 C 19.328125 -47.953125 19.175781 -47.539062 18.875 -46.71875 C 18.570312 -45.894531 18.269531 -45.046875 17.96875 -44.171875 C 17.664062 -43.296875 17.460938 -42.773438 17.359375 -42.609375 L 14.890625 -36.109375 C 17.847656 -39.234375 20.601562 -42.535156 23.15625 -46.015625 C 25.707031 -49.492188 28.023438 -53.070312 30.109375 -56.75 C 29.285156 -55.382812 28.445312 -54.039062 27.59375 -52.71875 C 26.738281 -51.40625 25.847656 -50.117188 24.921875 -48.859375 L 21.625 -44.25 L 20.15625 -42.765625 L 20.8125 -43.515625 C 21.25 -44.003906 21.644531 -44.492188 22 -44.984375 C 22.351562 -45.484375 22.722656 -45.976562 23.109375 -46.46875 C 23.828125 -47.457031 24.523438 -48.457031 25.203125 -49.46875 C 25.890625 -50.488281 26.5625 -51.519531 27.21875 -52.5625 C 28.59375 -54.695312 29.882812 -56.859375 31.09375 -59.046875 C 32.300781 -61.242188 33.394531 -63.492188 34.375 -65.796875 C 34.875 -67.003906 35.351562 -68.222656 35.8125 -69.453125 C 36.28125 -70.691406 36.679688 -71.941406 37.015625 -73.203125 C 37.117188 -73.640625 37.265625 -74.238281 37.453125 -75 C 37.648438 -75.769531 37.757812 -76.523438 37.78125 -77.265625 C 37.8125 -78.015625 37.640625 -78.550781 37.265625 -78.875 C 36.878906 -79.207031 36.46875 -79.179688 36.03125 -78.796875 C 35.59375 -78.410156 35.164062 -77.914062 34.75 -77.3125 C 34.34375 -76.707031 34.03125 -76.242188 33.8125 -75.921875 C 33.863281 -75.972656 33.832031 -75.890625 33.71875 -75.671875 L 33.71875 -75.75 C 33.71875 -75.695312 33.703125 -75.671875 33.671875 -75.671875 C 33.648438 -75.671875 33.640625 -75.671875 33.640625 -75.671875 Z M 13 -35.28125 L 12.90625 -35.03125 C 12.851562 -34.8125 12.785156 -34.46875 12.703125 -34 C 12.617188 -33.539062 12.609375 -33.3125 12.671875 -33.3125 C 12.609375 -33.3125 12.726562 -33.765625 13.03125 -34.671875 C 13.332031 -35.578125 13.703125 -36.617188 14.140625 -37.796875 C 14.585938 -38.972656 15 -40.050781 15.375 -41.03125 C 15.757812 -42.019531 15.976562 -42.628906 16.03125 -42.859375 C 16.363281 -43.734375 16.75 -44.566406 17.1875 -45.359375 C 17.625 -46.148438 17.984375 -46.988281 18.265625 -47.875 C 18.585938 -48.800781 18.953125 -49.6875 19.359375 -50.53125 C 19.773438 -51.382812 20.203125 -52.253906 20.640625 -53.140625 C 20.859375 -53.578125 21.378906 -54.601562 22.203125 -56.21875 C 23.023438 -57.832031 23.957031 -59.679688 25 -61.765625 C 26.039062 -63.847656 27.054688 -65.90625 28.046875 -67.9375 C 29.035156 -69.96875 29.832031 -71.664062 30.4375 -73.03125 C 31.039062 -74.40625 31.285156 -75.117188 31.171875 -75.171875 C 31.117188 -75.171875 30.816406 -74.664062 30.265625 -73.65625 C 29.722656 -72.644531 29.039062 -71.367188 28.21875 -69.828125 C 27.394531 -68.296875 26.570312 -66.734375 25.75 -65.140625 C 24.925781 -63.546875 24.195312 -62.132812 23.5625 -60.90625 C 22.9375 -59.675781 22.539062 -58.894531 22.375 -58.5625 C 21.550781 -56.863281 20.660156 -55.160156 19.703125 -53.453125 C 18.742188 -51.753906 17.929688 -50.003906 17.265625 -48.203125 C 16.554688 -46.054688 15.765625 -43.925781 14.890625 -41.8125 C 14.015625 -39.707031 13.382812 -37.53125 13 -35.28125 Z M 18.671875 -41.046875 C 18.890625 -41.367188 19.082031 -41.613281 19.25 -41.78125 C 19.132812 -41.675781 19.035156 -41.550781 18.953125 -41.40625 C 18.867188 -41.269531 18.773438 -41.148438 18.671875 -41.046875 Z M 33.640625 -75.59375 L 33.71875 -75.671875 L 33.640625 -75.671875 Z M 13 -35.203125 C 13 -35.148438 12.984375 -35.125 12.953125 -35.125 C 12.921875 -35.125 12.90625 -35.09375 12.90625 -35.03125 C 12.90625 -35.03125 12.921875 -35.046875 12.953125 -35.078125 C 12.984375 -35.109375 13 -35.148438 13 -35.203125 Z M 13 -35.203125 "/></g></g></g><g fill="#ffffff" fill-opacity="1"><g transform="translate(234.088207, 151.476917)"><g><path d="M 21.546875 -20.234375 C 21.710938 -19.460938 21.535156 -18.664062 21.015625 -17.84375 C 20.492188 -17.019531 20.015625 -16.335938 19.578125 -15.796875 C 18.859375 -14.753906 18.15625 -13.738281 17.46875 -12.75 C 16.789062 -11.757812 16.066406 -10.769531 15.296875 -9.78125 C 14.472656 -8.6875 13.523438 -7.425781 12.453125 -6 C 11.390625 -4.570312 10.144531 -3.695312 8.71875 -3.375 C 8.5 -3.375 8.085938 -3.441406 7.484375 -3.578125 C 6.878906 -3.710938 6.316406 -3.875 5.796875 -4.0625 C 5.273438 -4.257812 5.015625 -4.441406 5.015625 -4.609375 L 5.1875 -4.609375 C 4.851562 -4.773438 4.726562 -4.773438 4.8125 -4.609375 C 4.894531 -4.441406 4.6875 -4.550781 4.1875 -4.9375 C 3.8125 -5.207031 3.5 -5.503906 3.25 -5.828125 C 3 -6.160156 2.738281 -6.519531 2.46875 -6.90625 C 2.03125 -7.507812 1.5625 -8.113281 1.0625 -8.71875 C 0.570312 -9.320312 0.242188 -9.976562 0.078125 -10.6875 C 0.078125 -10.851562 0.0625 -11.207031 0.03125 -11.75 C 0.0078125 -12.300781 0.0234375 -12.820312 0.078125 -13.3125 C 0.140625 -13.8125 0.28125 -14.0625 0.5 -14.0625 C 0.601562 -14.0625 0.628906 -13.992188 0.578125 -13.859375 C 0.523438 -13.722656 0.523438 -13.65625 0.578125 -13.65625 L 0.828125 -15.140625 C 0.710938 -14.972656 0.628906 -14.863281 0.578125 -14.8125 C 0.523438 -14.8125 0.550781 -15.109375 0.65625 -15.703125 C 0.769531 -16.304688 0.921875 -17.019531 1.109375 -17.84375 C 1.296875 -18.664062 1.472656 -19.40625 1.640625 -20.0625 C 1.804688 -20.726562 1.914062 -21.113281 1.96875 -21.21875 C 2.300781 -22.09375 2.617188 -22.96875 2.921875 -23.84375 C 3.222656 -24.726562 3.785156 -25.414062 4.609375 -25.90625 C 5.210938 -26.34375 5.894531 -26.535156 6.65625 -26.484375 C 7.425781 -26.429688 8.195312 -26.238281 8.96875 -25.90625 C 9.289062 -25.800781 9.796875 -25.566406 10.484375 -25.203125 C 11.171875 -24.847656 11.515625 -24.453125 11.515625 -24.015625 C 11.515625 -23.796875 11.429688 -23.628906 11.265625 -23.515625 C 11.097656 -23.410156 10.960938 -23.300781 10.859375 -23.1875 C 10.910156 -23.25 11.019531 -23.28125 11.1875 -23.28125 C 11.289062 -23.21875 11.148438 -22.882812 10.765625 -22.28125 C 10.390625 -21.6875 10.144531 -21.414062 10.03125 -21.46875 C 9.976562 -21.46875 9.976562 -21.546875 10.03125 -21.703125 C 10.082031 -21.867188 10.140625 -22.007812 10.203125 -22.125 C 8.660156 -19.601562 7.367188 -16.832031 6.328125 -13.8125 C 6.492188 -14.195312 6.769531 -14.84375 7.15625 -15.75 C 7.539062 -16.65625 7.9375 -17.503906 8.34375 -18.296875 C 8.757812 -19.097656 8.992188 -19.46875 9.046875 -19.40625 C 9.097656 -19.40625 8.957031 -19.0625 8.625 -18.375 C 8.300781 -17.695312 7.90625 -16.835938 7.4375 -15.796875 C 6.976562 -14.753906 6.566406 -13.695312 6.203125 -12.625 C 5.847656 -11.550781 5.65625 -10.585938 5.625 -9.734375 C 5.601562 -8.890625 5.867188 -8.332031 6.421875 -8.0625 C 6.859375 -7.84375 7.363281 -7.867188 7.9375 -8.140625 C 8.507812 -8.410156 9.070312 -8.765625 9.625 -9.203125 C 10.175781 -9.648438 10.585938 -9.984375 10.859375 -10.203125 C 11.628906 -10.804688 12.492188 -11.476562 13.453125 -12.21875 C 14.410156 -12.957031 15.160156 -13.679688 15.703125 -14.390625 C 15.597656 -14.285156 15.410156 -14.234375 15.140625 -14.234375 C 15.078125 -14.335938 15.222656 -14.691406 15.578125 -15.296875 C 15.941406 -15.898438 16.410156 -16.582031 16.984375 -17.34375 C 17.554688 -18.113281 18.101562 -18.8125 18.625 -19.4375 C 19.144531 -20.070312 19.488281 -20.445312 19.65625 -20.5625 C 19.925781 -20.78125 20.296875 -20.914062 20.765625 -20.96875 C 21.234375 -21.03125 21.492188 -20.785156 21.546875 -20.234375 Z M 7.15625 -30.59375 C 7.15625 -30.59375 7.070312 -30.71875 6.90625 -30.96875 C 6.738281 -31.21875 6.65625 -31.367188 6.65625 -31.421875 C 6.65625 -31.523438 6.640625 -31.796875 6.609375 -32.234375 C 6.585938 -32.679688 6.617188 -33.09375 6.703125 -33.46875 C 6.785156 -33.851562 6.960938 -33.96875 7.234375 -33.8125 C 7.234375 -33.914062 7.382812 -34.144531 7.6875 -34.5 C 7.988281 -34.851562 8.003906 -34.757812 7.734375 -34.21875 C 8.441406 -35.144531 9.097656 -36.269531 9.703125 -37.59375 L 8.71875 -36.109375 C 9.101562 -36.878906 9.515625 -37.851562 9.953125 -39.03125 C 10.390625 -40.207031 10.632812 -40.929688 10.6875 -41.203125 C 10.6875 -41.265625 10.671875 -41.429688 10.640625 -41.703125 C 10.617188 -41.972656 10.632812 -42.132812 10.6875 -42.1875 C 9.8125 -42.519531 9.535156 -42.90625 9.859375 -43.34375 C 10.191406 -43.78125 10.550781 -44.140625 10.9375 -44.421875 C 10.769531 -44.421875 10.660156 -44.472656 10.609375 -44.578125 C 10.441406 -44.742188 10.519531 -44.878906 10.84375 -44.984375 C 11.175781 -45.097656 11.398438 -45.179688 11.515625 -45.234375 C 12.117188 -45.515625 12.75 -45.597656 13.40625 -45.484375 C 14.0625 -45.367188 14.664062 -45.175781 15.21875 -44.90625 C 15.65625 -44.632812 16.066406 -44.222656 16.453125 -43.671875 C 16.835938 -43.128906 17.109375 -42.609375 17.265625 -42.109375 C 17.429688 -41.566406 17.363281 -41.019531 17.0625 -40.46875 C 16.757812 -39.914062 16.414062 -39.476562 16.03125 -39.15625 C 15.875 -38.988281 15.671875 -38.835938 15.421875 -38.703125 C 15.171875 -38.566406 14.9375 -38.414062 14.71875 -38.25 C 14.5 -37.96875 14.363281 -37.648438 14.3125 -37.296875 C 14.257812 -36.941406 14.125 -36.628906 13.90625 -36.359375 C 13.789062 -36.140625 13.625 -35.972656 13.40625 -35.859375 C 13.1875 -35.753906 13.019531 -35.59375 12.90625 -35.375 C 12.582031 -35.144531 12.554688 -34.894531 12.828125 -34.625 C 12.503906 -34.457031 12.234375 -34.265625 12.015625 -34.046875 C 11.628906 -33.390625 11.269531 -32.851562 10.9375 -32.4375 C 10.613281 -32.03125 10.203125 -31.632812 9.703125 -31.25 C 10.140625 -31.53125 10.535156 -31.820312 10.890625 -32.125 C 11.253906 -32.425781 11.628906 -32.847656 12.015625 -33.390625 C 12.671875 -34.210938 13.460938 -34.816406 14.390625 -35.203125 C 14.003906 -34.765625 13.703125 -34.296875 13.484375 -33.796875 C 13.265625 -33.304688 12.910156 -32.898438 12.421875 -32.578125 C 12.085938 -32.410156 11.90625 -32.367188 11.875 -32.453125 C 11.851562 -32.535156 11.84375 -32.585938 11.84375 -32.609375 C 11.84375 -32.640625 11.648438 -32.488281 11.265625 -32.15625 C 11.265625 -32.15625 11.332031 -32.164062 11.46875 -32.1875 C 11.601562 -32.21875 11.617188 -32.179688 11.515625 -32.078125 C 11.128906 -31.742188 10.742188 -31.359375 10.359375 -30.921875 C 9.972656 -30.484375 9.535156 -30.15625 9.046875 -29.9375 C 8.828125 -29.882812 8.609375 -29.800781 8.390625 -29.6875 C 8.171875 -29.582031 7.925781 -29.582031 7.65625 -29.6875 C 7.375 -29.851562 7.242188 -30.019531 7.265625 -30.1875 C 7.296875 -30.351562 7.257812 -30.488281 7.15625 -30.59375 Z M 5.59375 -11.015625 C 5.644531 -11.128906 5.644531 -11.160156 5.59375 -11.109375 L 5.421875 -10.453125 L 5.59375 -10.9375 Z M 8.3125 -35.453125 L 8.640625 -35.9375 C 8.578125 -35.78125 8.503906 -35.660156 8.421875 -35.578125 C 8.347656 -35.492188 8.3125 -35.453125 8.3125 -35.453125 Z M 7.484375 -33.890625 C 7.429688 -33.835938 7.375 -33.8125 7.3125 -33.8125 C 7.375 -33.8125 7.40625 -33.796875 7.40625 -33.765625 C 7.40625 -33.734375 7.40625 -33.71875 7.40625 -33.71875 C 7.457031 -33.78125 7.484375 -33.835938 7.484375 -33.890625 Z M 7.484375 -33.890625 "/></g></g></g><g fill="#ffffff" fill-opacity="1"><g transform="translate(249.634306, 151.476917)"><g><path d="M 32.90625 -20.96875 C 33.5625 -21.625 34.023438 -21.816406 34.296875 -21.546875 C 34.566406 -21.273438 34.71875 -20.820312 34.75 -20.1875 C 34.78125 -19.5625 34.738281 -19.03125 34.625 -18.59375 C 34.40625 -17.707031 34.046875 -16.835938 33.546875 -15.984375 C 33.054688 -15.140625 32.566406 -14.304688 32.078125 -13.484375 C 30.867188 -11.515625 29.6875 -9.5 28.53125 -7.4375 C 27.382812 -5.382812 26.125 -3.367188 24.75 -1.390625 C 23.269531 0.742188 21.722656 2.863281 20.109375 4.96875 C 18.492188 7.082031 16.726562 9.070312 14.8125 10.9375 C 13.769531 11.925781 12.585938 12.789062 11.265625 13.53125 C 9.953125 14.269531 8.625 14.625 7.28125 14.59375 C 5.9375 14.570312 4.609375 13.984375 3.296875 12.828125 C 2.140625 11.734375 1.328125 10.429688 0.859375 8.921875 C 0.398438 7.410156 0.140625 5.816406 0.078125 4.140625 C 0.0234375 2.472656 0.0234375 0.925781 0.078125 -0.5 C 0.242188 -2.800781 0.585938 -5.070312 1.109375 -7.3125 C 1.628906 -9.5625 2.164062 -11.785156 2.71875 -13.984375 C 2.769531 -14.085938 2.796875 -14.492188 2.796875 -15.203125 C 2.796875 -15.921875 2.90625 -16.421875 3.125 -16.703125 C 3.070312 -16.640625 3.046875 -16.484375 3.046875 -16.234375 C 3.046875 -15.992188 3.019531 -15.738281 2.96875 -15.46875 C 3.070312 -15.738281 3.164062 -16.023438 3.25 -16.328125 C 3.332031 -16.628906 3.425781 -16.914062 3.53125 -17.1875 L 3.296875 -17.1875 C 3.179688 -18.007812 3.328125 -18.984375 3.734375 -20.109375 C 4.148438 -21.234375 4.46875 -22.179688 4.6875 -22.953125 C 4.957031 -23.878906 5.257812 -24.835938 5.59375 -25.828125 C 5.925781 -26.816406 6.253906 -27.773438 6.578125 -28.703125 C 7.179688 -30.460938 7.8125 -32.21875 8.46875 -33.96875 C 9.125 -35.71875 9.726562 -37.472656 10.28125 -39.234375 C 10.832031 -40.984375 11.488281 -42.707031 12.25 -44.40625 C 13.019531 -46.113281 13.816406 -47.789062 14.640625 -49.4375 C 15.410156 -51.019531 16.234375 -52.582031 17.109375 -54.125 C 17.210938 -54.289062 17.429688 -54.6875 17.765625 -55.3125 C 18.097656 -55.945312 18.453125 -56.5625 18.828125 -57.15625 C 19.210938 -57.757812 19.460938 -58.035156 19.578125 -57.984375 L 18.921875 -56.59375 L 21.546875 -61.109375 L 21.46875 -61.03125 C 21.6875 -61.351562 21.914062 -61.773438 22.15625 -62.296875 C 22.40625 -62.816406 22.640625 -63.191406 22.859375 -63.421875 L 24.75 -65.96875 C 25.351562 -66.675781 26.007812 -67.441406 26.71875 -68.265625 C 27.4375 -69.085938 28.265625 -69.632812 29.203125 -69.90625 C 30.410156 -70.289062 31.519531 -70.207031 32.53125 -69.65625 C 33.539062 -69.113281 34.375 -68.320312 35.03125 -67.28125 C 35.695312 -66.238281 36.109375 -65.171875 36.265625 -64.078125 L 36.359375 -63.984375 L 36.359375 -63.578125 C 36.515625 -61.929688 36.347656 -60.203125 35.859375 -58.390625 C 35.367188 -56.585938 34.738281 -54.820312 33.96875 -53.09375 C 33.195312 -51.363281 32.429688 -49.785156 31.671875 -48.359375 C 31.003906 -47.046875 30.300781 -45.660156 29.5625 -44.203125 C 28.820312 -42.753906 27.929688 -41.484375 26.890625 -40.390625 C 26.179688 -39.617188 25.609375 -38.804688 25.171875 -37.953125 C 24.734375 -37.109375 24.210938 -36.21875 23.609375 -35.28125 C 22.066406 -32.757812 20.445312 -30.265625 18.75 -27.796875 C 17.050781 -25.328125 15.269531 -22.941406 13.40625 -20.640625 C 12.96875 -20.097656 12.597656 -19.59375 12.296875 -19.125 C 11.992188 -18.65625 11.734375 -18.035156 11.515625 -17.265625 C 11.296875 -16.503906 11.078125 -15.722656 10.859375 -14.921875 C 10.640625 -14.128906 10.421875 -13.320312 10.203125 -12.5 C 9.984375 -11.675781 9.765625 -10.851562 9.546875 -10.03125 C 9.328125 -9.207031 9.109375 -8.382812 8.890625 -7.5625 C 8.828125 -7.175781 8.660156 -6.570312 8.390625 -5.75 C 8.117188 -4.9375 8.007812 -4.472656 8.0625 -4.359375 C 7.84375 -3.429688 7.675781 -2.414062 7.5625 -1.3125 L 8.21875 -3.78125 C 8.4375 -3.457031 8.453125 -2.828125 8.265625 -1.890625 C 8.078125 -0.960938 7.953125 -0.304688 7.890625 0.078125 C 7.734375 1.285156 7.65625 2.578125 7.65625 3.953125 C 7.65625 4.441406 7.679688 5.097656 7.734375 5.921875 C 7.785156 6.742188 7.960938 7.5 8.265625 8.1875 C 8.566406 8.875 9.046875 9.269531 9.703125 9.375 C 10.640625 9.488281 11.570312 9.1875 12.5 8.46875 C 13.4375 7.757812 14.285156 6.9375 15.046875 6 C 15.816406 5.070312 16.421875 4.332031 16.859375 3.78125 C 18.554688 1.75 20.128906 -0.375 21.578125 -2.59375 C 23.035156 -4.8125 24.453125 -7.019531 25.828125 -9.21875 C 26.597656 -10.363281 27.320312 -11.507812 28 -12.65625 C 28.6875 -13.8125 29.390625 -14.992188 30.109375 -16.203125 C 30.546875 -16.972656 30.984375 -17.804688 31.421875 -18.703125 C 31.859375 -19.609375 32.351562 -20.363281 32.90625 -20.96875 Z M 22.625 -50.421875 C 21.082031 -46.742188 19.691406 -42.984375 18.453125 -39.140625 C 17.222656 -35.304688 16.007812 -31.582031 14.8125 -27.96875 C 17.875 -32.84375 20.953125 -37.867188 24.046875 -43.046875 C 27.148438 -48.234375 29.632812 -53.570312 31.5 -59.0625 C 30.789062 -57.082031 29.953125 -55.144531 28.984375 -53.25 C 28.023438 -51.363281 27.082031 -49.515625 26.15625 -47.703125 C 25.601562 -46.660156 25.039062 -45.628906 24.46875 -44.609375 C 23.894531 -43.597656 23.304688 -42.570312 22.703125 -41.53125 C 22.316406 -40.925781 21.832031 -40.195312 21.25 -39.34375 C 20.675781 -38.5 20.253906 -37.75 19.984375 -37.09375 C 20.316406 -38.1875 20.894531 -39.304688 21.71875 -40.453125 C 22.539062 -41.609375 23.222656 -42.679688 23.765625 -43.671875 L 27.21875 -50.09375 C 28.207031 -52.0625 29.289062 -54.210938 30.46875 -56.546875 C 31.644531 -58.878906 32.265625 -61.195312 32.328125 -63.5 L 32.328125 -63.578125 C 32.378906 -64.671875 32.226562 -65.257812 31.875 -65.34375 C 31.519531 -65.425781 31.082031 -65.25 30.5625 -64.8125 C 30.039062 -64.375 29.554688 -63.863281 29.109375 -63.28125 C 28.671875 -62.707031 28.375 -62.3125 28.21875 -62.09375 C 27.0625 -60.226562 26.046875 -58.304688 25.171875 -56.328125 C 24.296875 -54.359375 23.445312 -52.390625 22.625 -50.421875 Z M 19.984375 -56.171875 C 19.546875 -55.296875 19.117188 -54.445312 18.703125 -53.625 C 18.296875 -52.800781 17.898438 -51.925781 17.515625 -51 C 17.460938 -50.9375 17.4375 -50.828125 17.4375 -50.671875 C 18.363281 -52.316406 19.320312 -53.945312 20.3125 -55.5625 C 21.300781 -57.175781 22.234375 -58.832031 23.109375 -60.53125 C 22.722656 -59.820312 22.210938 -59.109375 21.578125 -58.390625 C 20.953125 -57.679688 20.421875 -56.941406 19.984375 -56.171875 Z M 4.4375 -13.65625 C 4.5 -13.707031 4.53125 -13.773438 4.53125 -13.859375 C 4.53125 -13.941406 4.472656 -13.957031 4.359375 -13.90625 C 4.191406 -13.90625 4.007812 -13.53125 3.8125 -12.78125 C 3.625 -12.039062 3.476562 -11.207031 3.375 -10.28125 L 3.375 -10.359375 C 3.101562 -8.929688 2.882812 -7.460938 2.71875 -5.953125 C 2.550781 -4.453125 2.410156 -2.960938 2.296875 -1.484375 L 2.546875 -4.109375 L 2.546875 -3.859375 C 2.546875 -4.140625 2.570312 -4.414062 2.625 -4.6875 C 2.6875 -4.957031 2.742188 -5.234375 2.796875 -5.515625 C 3.066406 -6.773438 3.269531 -8.113281 3.40625 -9.53125 C 3.550781 -10.957031 3.867188 -12.25 4.359375 -13.40625 C 4.359375 -13.40625 4.359375 -13.429688 4.359375 -13.484375 C 4.359375 -13.546875 4.382812 -13.601562 4.4375 -13.65625 Z M 4.4375 -13.65625 "/></g></g></g></svg>