<svg xmlns="http://www.w3.org/2000/svg" xmlns:xlink="http://www.w3.org/1999/xlink" width="500" zoomAndPan="magnify" viewBox="0 0 375 74.999997" height="100" preserveAspectRatio="xMidYMid meet" version="1.0"><defs><g/></defs><g fill="#ffffff" fill-opacity="1"><g transform="translate(88.16833, 57.132229)"><g><path d="M 29.03125 -41.0625 C 29.976562 -41.351562 30.847656 -41.253906 31.640625 -40.765625 C 32.441406 -40.273438 33.097656 -39.601562 33.609375 -38.75 C 34.117188 -37.894531 34.410156 -37.035156 34.484375 -36.171875 C 34.441406 -36.242188 34.429688 -36.210938 34.453125 -36.078125 C 34.472656 -35.953125 34.484375 -35.890625 34.484375 -35.890625 C 34.484375 -35.742188 34.488281 -35.546875 34.5 -35.296875 C 34.519531 -35.046875 34.492188 -34.898438 34.421875 -34.859375 C 34.460938 -34.898438 34.460938 -34.984375 34.421875 -35.109375 C 34.390625 -35.234375 34.351562 -35.347656 34.3125 -35.453125 C 34.351562 -34.984375 34.34375 -34.519531 34.28125 -34.0625 C 34.226562 -33.613281 34.164062 -33.15625 34.09375 -32.6875 C 34.164062 -32.832031 34.226562 -32.972656 34.28125 -33.109375 C 34.34375 -33.253906 34.375 -33.328125 34.375 -33.328125 C 34.445312 -32.972656 34.398438 -32.503906 34.234375 -31.921875 C 34.066406 -31.335938 33.863281 -30.78125 33.625 -30.25 C 33.394531 -29.726562 33.222656 -29.320312 33.109375 -29.03125 C 32.753906 -27.976562 32.300781 -26.960938 31.75 -25.984375 C 31.207031 -25.003906 30.609375 -24.0625 29.953125 -23.15625 C 29.378906 -22.382812 28.789062 -21.625 28.1875 -20.875 C 27.582031 -20.132812 26.9375 -19.441406 26.25 -18.796875 C 25.664062 -18.171875 24.957031 -17.453125 24.125 -16.640625 C 23.289062 -15.828125 22.4375 -15.3125 21.5625 -15.09375 C 24.21875 -17.375 26.523438 -19.929688 28.484375 -22.765625 C 30.441406 -25.597656 31.734375 -28.773438 32.359375 -32.296875 C 31.878906 -29.753906 30.910156 -27.363281 29.453125 -25.125 C 28.003906 -22.894531 26.410156 -20.875 24.671875 -19.0625 C 23.796875 -18.113281 22.953125 -17.140625 22.140625 -16.140625 C 21.328125 -15.148438 20.410156 -14.304688 19.390625 -13.609375 C 18.660156 -13.140625 17.820312 -12.632812 16.875 -12.09375 C 15.9375 -11.550781 14.976562 -11.097656 14 -10.734375 C 13.019531 -10.367188 12.078125 -10.203125 11.171875 -10.234375 C 11.597656 -9.441406 12.039062 -8.644531 12.5 -7.84375 C 12.957031 -7.039062 13.421875 -6.257812 13.890625 -5.5 L 12.140625 -8.609375 C 12.546875 -7.992188 13.03125 -7.257812 13.59375 -6.40625 C 14.15625 -5.550781 14.722656 -4.703125 15.296875 -3.859375 C 15.878906 -3.023438 16.390625 -2.304688 16.828125 -1.703125 C 17.265625 -1.109375 17.535156 -0.738281 17.640625 -0.59375 L 21.40625 3.703125 C 21.84375 4.171875 22.296875 4.703125 22.765625 5.296875 C 23.234375 5.898438 23.707031 6.40625 24.1875 6.8125 C 24.144531 6.738281 24.101562 6.664062 24.0625 6.59375 C 24.03125 6.519531 24 6.460938 23.96875 6.421875 C 23.96875 6.390625 24.128906 6.472656 24.453125 6.671875 C 24.785156 6.867188 25.125 7.066406 25.46875 7.265625 C 25.8125 7.472656 26.019531 7.59375 26.09375 7.625 C 26.382812 7.726562 26.664062 7.828125 26.9375 7.921875 C 27.207031 8.015625 27.46875 8.039062 27.71875 8 C 28.445312 8 29.191406 7.769531 29.953125 7.3125 C 30.722656 6.863281 31.34375 6.40625 31.8125 5.9375 C 32.0625 5.644531 32.304688 5.425781 32.546875 5.28125 C 32.785156 5.132812 32.921875 5.425781 32.953125 6.15625 C 32.992188 6.664062 32.796875 7.191406 32.359375 7.734375 C 31.484375 8.859375 30.445312 9.960938 29.25 11.046875 C 28.050781 12.140625 26.671875 12.757812 25.109375 12.90625 C 24.523438 12.945312 23.96875 12.882812 23.4375 12.71875 C 22.914062 12.550781 22.398438 12.320312 21.890625 12.03125 C 21.816406 11.957031 21.546875 11.703125 21.078125 11.265625 C 20.609375 10.835938 20.164062 10.40625 19.75 9.96875 C 19.332031 9.53125 19.125 9.296875 19.125 9.265625 C 19.15625 9.265625 19.179688 9.269531 19.203125 9.28125 C 19.222656 9.300781 19.234375 9.3125 19.234375 9.3125 C 19.191406 9.238281 19.148438 9.191406 19.109375 9.171875 C 19.078125 9.160156 19.046875 9.132812 19.015625 9.09375 C 19.085938 9.207031 19.015625 9.191406 18.796875 9.046875 C 18.578125 8.898438 18.445312 8.804688 18.40625 8.765625 C 18.226562 8.585938 18.066406 8.394531 17.921875 8.1875 C 17.773438 7.988281 17.613281 7.785156 17.4375 7.578125 C 17.175781 7.210938 16.910156 6.863281 16.640625 6.53125 C 16.367188 6.207031 16.085938 5.863281 15.796875 5.5 C 15.722656 5.425781 15.554688 5.21875 15.296875 4.875 C 15.046875 4.53125 14.773438 4.128906 14.484375 3.671875 C 14.191406 3.222656 13.957031 2.804688 13.78125 2.421875 C 13.601562 2.046875 13.566406 1.820312 13.671875 1.75 C 13.742188 1.707031 13.796875 1.726562 13.828125 1.8125 C 13.867188 1.90625 13.90625 1.953125 13.9375 1.953125 C 13.832031 1.773438 13.722656 1.59375 13.609375 1.40625 C 13.503906 1.226562 13.414062 1.050781 13.34375 0.875 C 13.34375 0.90625 13.351562 0.9375 13.375 0.96875 C 13.394531 1.007812 13.382812 1.066406 13.34375 1.140625 C 13.3125 1.140625 13.164062 0.90625 12.90625 0.4375 C 12.65625 -0.03125 12.359375 -0.59375 12.015625 -1.25 C 11.671875 -1.90625 11.359375 -2.503906 11.078125 -3.046875 C 10.804688 -3.597656 10.632812 -3.925781 10.5625 -4.03125 C 10.3125 -4.539062 10.039062 -5.03125 9.75 -5.5 C 9.457031 -5.96875 9.238281 -6.476562 9.09375 -7.03125 C 8.988281 -7.394531 8.941406 -7.675781 8.953125 -7.875 C 8.972656 -8.070312 8.894531 -8.316406 8.71875 -8.609375 C 7.914062 -6.722656 7.160156 -4.753906 6.453125 -2.703125 C 5.742188 -0.648438 5.242188 1.394531 4.953125 3.4375 C 4.878906 3.363281 4.84375 3.289062 4.84375 3.21875 C 4.445312 3.613281 3.9375 3.882812 3.3125 4.03125 C 2.695312 4.175781 2.097656 4.15625 1.515625 3.96875 C 0.941406 3.789062 0.523438 3.429688 0.265625 2.890625 C 0.015625 2.265625 -0.0664062 1.5625 0.015625 0.78125 C 0.109375 0.0078125 0.273438 -0.765625 0.515625 -1.546875 C 0.753906 -2.328125 0.925781 -3.007812 1.03125 -3.59375 C 1.320312 -4.789062 1.582031 -5.976562 1.8125 -7.15625 C 2.050781 -8.34375 2.375 -9.5 2.78125 -10.625 C 2.957031 -11.0625 3.144531 -11.488281 3.34375 -11.90625 C 3.550781 -12.320312 3.742188 -12.726562 3.921875 -13.125 C 3.953125 -13.195312 4.003906 -13.382812 4.078125 -13.6875 C 4.148438 -14 4.222656 -14.300781 4.296875 -14.59375 C 4.367188 -14.882812 4.425781 -15.03125 4.46875 -15.03125 C 4.5 -15 4.515625 -14.925781 4.515625 -14.8125 C 4.554688 -14.882812 4.582031 -14.957031 4.59375 -15.03125 C 4.613281 -15.101562 4.625 -15.175781 4.625 -15.25 C 4.550781 -15.101562 4.523438 -15.101562 4.546875 -15.25 C 4.566406 -15.394531 4.59375 -15.582031 4.625 -15.8125 C 4.664062 -16.050781 4.6875 -16.171875 4.6875 -16.171875 C 4.789062 -16.503906 4.90625 -16.832031 5.03125 -17.15625 C 5.164062 -17.476562 5.304688 -17.804688 5.453125 -18.140625 C 5.671875 -18.648438 5.847656 -19.148438 5.984375 -19.640625 C 6.128906 -20.128906 6.257812 -20.628906 6.375 -21.140625 C 6.40625 -21.242188 6.507812 -21.550781 6.6875 -22.0625 C 6.875 -22.570312 7.09375 -23.132812 7.34375 -23.75 C 7.601562 -24.363281 7.847656 -24.894531 8.078125 -25.34375 C 8.316406 -25.800781 8.492188 -26.015625 8.609375 -25.984375 C 8.679688 -25.984375 8.679688 -25.914062 8.609375 -25.78125 C 8.535156 -25.65625 8.515625 -25.578125 8.546875 -25.546875 C 8.660156 -25.796875 8.769531 -26.039062 8.875 -26.28125 C 8.988281 -26.519531 9.082031 -26.765625 9.15625 -27.015625 C 9.082031 -26.867188 9.007812 -26.78125 8.9375 -26.75 C 8.894531 -26.75 9.019531 -27.082031 9.3125 -27.75 C 9.601562 -28.425781 9.957031 -29.21875 10.375 -30.125 C 10.789062 -31.03125 11.160156 -31.851562 11.484375 -32.59375 C 11.816406 -33.34375 12.019531 -33.789062 12.09375 -33.9375 C 12.34375 -34.550781 12.59375 -35.164062 12.84375 -35.78125 C 13.101562 -36.40625 13.414062 -36.988281 13.78125 -37.53125 C 13.957031 -37.75 14.128906 -37.921875 14.296875 -38.046875 C 14.460938 -38.171875 14.597656 -38.304688 14.703125 -38.453125 C 14.773438 -38.566406 14.835938 -38.710938 14.890625 -38.890625 C 14.953125 -39.066406 15.019531 -39.226562 15.09375 -39.375 C 15.238281 -39.664062 15.445312 -40.054688 15.71875 -40.546875 C 15.988281 -41.035156 16.304688 -41.351562 16.671875 -41.5 C 17.242188 -41.757812 17.726562 -41.613281 18.125 -41.0625 C 18.53125 -40.519531 18.804688 -40.03125 18.953125 -39.59375 C 19.140625 -39.15625 19.203125 -38.816406 19.140625 -38.578125 C 19.085938 -38.347656 18.972656 -38.085938 18.796875 -37.796875 L 18.953125 -37.90625 C 19.023438 -37.90625 18.96875 -37.722656 18.78125 -37.359375 C 18.601562 -37.003906 18.414062 -36.648438 18.21875 -36.296875 C 18.019531 -35.953125 17.882812 -35.78125 17.8125 -35.78125 C 17.769531 -35.78125 17.785156 -35.867188 17.859375 -36.046875 C 17.929688 -36.234375 18.003906 -36.398438 18.078125 -36.546875 C 15.679688 -32.585938 13.6875 -28.691406 12.09375 -24.859375 C 10.5 -21.035156 9.15625 -17.285156 8.0625 -13.609375 C 8.601562 -15.429688 9.242188 -17.203125 9.984375 -18.921875 C 10.734375 -20.648438 11.5625 -22.347656 12.46875 -24.015625 L 11.921875 -22.765625 L 13.234375 -25.546875 C 12.765625 -24.347656 12.3125 -23.148438 11.875 -21.953125 C 11.4375 -20.753906 11.054688 -19.519531 10.734375 -18.25 C 11.347656 -19.519531 11.988281 -20.753906 12.65625 -21.953125 C 13.332031 -23.148438 14.070312 -24.328125 14.875 -25.484375 C 15.59375 -26.546875 16.351562 -27.535156 17.15625 -28.453125 C 17.957031 -29.378906 18.738281 -30.332031 19.5 -31.3125 C 19.5 -31.3125 19.578125 -31.484375 19.734375 -31.828125 C 19.898438 -32.179688 20.054688 -32.375 20.203125 -32.40625 C 20.171875 -32.375 20.070312 -32.21875 19.90625 -31.9375 C 19.738281 -31.664062 19.675781 -31.550781 19.71875 -31.59375 L 20.484375 -32.578125 C 20.441406 -32.578125 20.40625 -32.59375 20.375 -32.625 C 20.445312 -33.019531 20.707031 -33.453125 21.15625 -33.921875 C 21.613281 -34.398438 21.96875 -34.765625 22.21875 -35.015625 C 22.582031 -35.421875 22.953125 -35.8125 23.328125 -36.1875 C 23.710938 -36.570312 24.085938 -36.945312 24.453125 -37.3125 C 25.066406 -37.925781 25.773438 -38.640625 26.578125 -39.453125 C 27.378906 -40.273438 28.195312 -40.8125 29.03125 -41.0625 Z M 28.984375 -34.421875 L 28.984375 -34.484375 C 29.054688 -35.535156 28.914062 -36.148438 28.5625 -36.328125 C 28.21875 -36.515625 27.773438 -36.425781 27.234375 -36.0625 C 26.691406 -35.695312 26.117188 -35.203125 25.515625 -34.578125 C 24.921875 -33.960938 24.382812 -33.363281 23.90625 -32.78125 C 23.4375 -32.207031 23.113281 -31.8125 22.9375 -31.59375 C 21.476562 -29.8125 19.992188 -27.96875 18.484375 -26.0625 C 16.984375 -24.15625 15.632812 -22.238281 14.4375 -20.3125 C 14.46875 -20.457031 14.554688 -20.53125 14.703125 -20.53125 C 14.703125 -20.53125 14.609375 -20.359375 14.421875 -20.015625 C 14.242188 -19.671875 14.035156 -19.269531 13.796875 -18.8125 C 13.566406 -18.363281 13.351562 -17.945312 13.15625 -17.5625 C 12.957031 -17.1875 12.820312 -16.960938 12.75 -16.890625 C 12.382812 -16.191406 12.019531 -15.488281 11.65625 -14.78125 C 11.289062 -14.070312 10.925781 -13.359375 10.5625 -12.640625 C 10.632812 -12.671875 10.867188 -12.773438 11.265625 -12.953125 C 11.671875 -13.140625 12.0625 -13.304688 12.4375 -13.453125 C 12.820312 -13.597656 13.035156 -13.648438 13.078125 -13.609375 C 13.078125 -13.578125 12.875 -13.460938 12.46875 -13.265625 C 12.070312 -13.066406 11.765625 -12.894531 11.546875 -12.75 C 14.304688 -13.90625 16.8125 -15.5 19.0625 -17.53125 C 21.3125 -19.570312 23.273438 -21.828125 24.953125 -24.296875 C 24.398438 -23.492188 23.816406 -22.726562 23.203125 -22 C 22.585938 -21.28125 21.953125 -20.554688 21.296875 -19.828125 C 20.898438 -19.429688 20.484375 -19.019531 20.046875 -18.59375 C 19.609375 -18.175781 19.171875 -17.769531 18.734375 -17.375 C 18.515625 -17.226562 18.207031 -17.023438 17.8125 -16.765625 C 17.414062 -16.515625 17.109375 -16.28125 16.890625 -16.0625 C 17.140625 -16.351562 17.472656 -16.632812 17.890625 -16.90625 C 18.304688 -17.1875 18.644531 -17.453125 18.90625 -17.703125 C 19.550781 -18.242188 20.1875 -18.820312 20.8125 -19.4375 C 21.457031 -20.164062 22.085938 -20.894531 22.703125 -21.625 C 23.328125 -22.351562 23.910156 -23.113281 24.453125 -23.90625 C 25.503906 -25.394531 26.484375 -27.035156 27.390625 -28.828125 C 28.304688 -30.628906 28.835938 -32.476562 28.984375 -34.375 C 28.941406 -34.332031 28.921875 -34.300781 28.921875 -34.28125 C 28.921875 -34.269531 28.941406 -34.316406 28.984375 -34.421875 Z M 16.171875 -32.25 C 16.023438 -31.914062 15.878906 -31.59375 15.734375 -31.28125 C 15.597656 -30.976562 15.4375 -30.679688 15.25 -30.390625 L 16.671875 -33.5 C 16.742188 -33.601562 16.695312 -33.445312 16.53125 -33.03125 C 16.363281 -32.613281 16.242188 -32.351562 16.171875 -32.25 Z M 11.5 -9.96875 C 11.457031 -9.96875 11.507812 -9.835938 11.65625 -9.578125 C 11.800781 -9.328125 11.960938 -9.003906 12.140625 -8.609375 C 11.921875 -9.003906 11.75 -9.316406 11.625 -9.546875 C 11.5 -9.785156 11.457031 -9.925781 11.5 -9.96875 Z M 15.359375 -3.328125 L 15.421875 -3.21875 L 15.421875 -3.265625 C 15.378906 -3.335938 15.359375 -3.363281 15.359375 -3.34375 C 15.359375 -3.332031 15.359375 -3.328125 15.359375 -3.328125 Z M 15.359375 -3.328125 C 15.359375 -3.328125 15.320312 -3.363281 15.25 -3.4375 C 15.320312 -3.363281 15.359375 -3.328125 15.359375 -3.328125 Z M 13.9375 -19.546875 C 13.9375 -19.546875 13.945312 -19.554688 13.96875 -19.578125 C 13.988281 -19.597656 14 -19.625 14 -19.65625 C 14 -19.625 13.988281 -19.609375 13.96875 -19.609375 C 13.945312 -19.609375 13.9375 -19.585938 13.9375 -19.546875 Z M 13.9375 -19.546875 "/></g></g></g><g fill="#ffffff" fill-opacity="1"><g transform="translate(117.527571, 57.132229)"><g><path d="M 25.0625 -13.5625 C 25.457031 -13.050781 25.4375 -12.628906 25 -12.296875 C 24.5625 -11.972656 23.953125 -11.722656 23.171875 -11.546875 C 22.390625 -11.367188 21.644531 -11.242188 20.9375 -11.171875 C 20.226562 -11.097656 19.800781 -11.039062 19.65625 -11 C 19.625 -11 19.476562 -10.960938 19.21875 -10.890625 C 18.96875 -10.816406 18.863281 -10.800781 18.90625 -10.84375 C 18.644531 -10.726562 18.488281 -10.648438 18.4375 -10.609375 C 18.382812 -10.578125 18.265625 -10.4375 18.078125 -10.1875 C 17.859375 -9.863281 17.648438 -9.523438 17.453125 -9.171875 C 17.253906 -8.828125 17.066406 -8.492188 16.890625 -8.171875 C 16.816406 -8.097656 16.597656 -7.804688 16.234375 -7.296875 C 15.867188 -6.785156 15.492188 -6.300781 15.109375 -5.84375 C 14.734375 -5.394531 14.472656 -5.191406 14.328125 -5.234375 C 14.328125 -5.234375 14.398438 -5.320312 14.546875 -5.5 C 14.691406 -5.6875 14.742188 -5.796875 14.703125 -5.828125 L 13.125 -3.96875 C 13.3125 -4.15625 13.40625 -4.210938 13.40625 -4.140625 C 13.257812 -3.671875 12.832031 -3.1875 12.125 -2.6875 C 11.414062 -2.195312 10.859375 -1.8125 10.453125 -1.53125 C 10.015625 -1.195312 9.53125 -0.894531 9 -0.625 C 8.476562 -0.351562 7.929688 -0.179688 7.359375 -0.109375 C 6.234375 -0.00390625 5.125 -0.203125 4.03125 -0.703125 C 2.976562 -1.253906 2.085938 -2.046875 1.359375 -3.078125 C 0.628906 -4.109375 0.179688 -5.238281 0.015625 -6.46875 C -0.140625 -7.707031 0.0703125 -8.875 0.65625 -9.96875 C 1.125 -10.84375 1.554688 -11.75 1.953125 -12.6875 C 2.359375 -13.632812 2.890625 -14.546875 3.546875 -15.421875 C 3.941406 -15.890625 4.347656 -16.34375 4.765625 -16.78125 C 5.179688 -17.21875 5.644531 -17.597656 6.15625 -17.921875 C 6.59375 -18.242188 7.082031 -18.515625 7.625 -18.734375 C 7.800781 -18.847656 8.050781 -18.929688 8.375 -18.984375 C 8.707031 -19.035156 8.945312 -19.117188 9.09375 -19.234375 C 9.28125 -19.335938 9.441406 -19.648438 9.578125 -20.171875 C 9.722656 -20.703125 9.851562 -21.078125 9.96875 -21.296875 C 10.1875 -21.691406 10.441406 -22.109375 10.734375 -22.546875 C 11.128906 -23.085938 11.550781 -23.613281 12 -24.125 C 12.457031 -24.632812 12.976562 -25.050781 13.5625 -25.375 C 14.507812 -25.882812 15.414062 -25.957031 16.28125 -25.59375 C 17.15625 -25.238281 17.9375 -24.710938 18.625 -24.015625 C 18.625 -24.015625 18.773438 -23.90625 19.078125 -23.6875 C 19.390625 -23.46875 19.53125 -23.269531 19.5 -23.09375 L 19.28125 -23.3125 L 19.5 -22.875 L 19.546875 -22.828125 C 19.472656 -23.046875 19.535156 -23.035156 19.734375 -22.796875 C 19.941406 -22.554688 20.046875 -22.4375 20.046875 -22.4375 C 20.296875 -22.070312 20.476562 -21.601562 20.59375 -21.03125 C 20.664062 -20.664062 20.703125 -20.28125 20.703125 -19.875 C 20.703125 -19.476562 20.664062 -19.082031 20.59375 -18.6875 C 20.476562 -17.664062 20.285156 -16.644531 20.015625 -15.625 C 19.742188 -14.613281 19.460938 -13.617188 19.171875 -12.640625 C 20.003906 -12.785156 20.820312 -12.945312 21.625 -13.125 C 22.425781 -13.3125 23.222656 -13.472656 24.015625 -13.609375 C 24.203125 -13.679688 24.382812 -13.742188 24.5625 -13.796875 C 24.75 -13.859375 24.914062 -13.796875 25.0625 -13.609375 C 25.09375 -13.578125 25.097656 -13.5625 25.078125 -13.5625 C 25.066406 -13.5625 25.0625 -13.5625 25.0625 -13.5625 Z M 6.203125 -2.5625 C 7.472656 -2.8125 8.644531 -3.390625 9.71875 -4.296875 C 10.789062 -5.210938 11.722656 -6.269531 12.515625 -7.46875 C 13.316406 -8.664062 13.992188 -9.789062 14.546875 -10.84375 C 13.742188 -10.945312 12.925781 -11.144531 12.09375 -11.4375 C 11.257812 -11.726562 10.523438 -12.15625 9.890625 -12.71875 C 9.253906 -13.28125 8.828125 -14.015625 8.609375 -14.921875 C 8.171875 -14.453125 7.515625 -13.328125 6.640625 -11.546875 L 6.96875 -12.03125 C 6.9375 -11.925781 6.753906 -11.519531 6.421875 -10.8125 C 6.097656 -10.101562 5.734375 -9.257812 5.328125 -8.28125 C 4.929688 -7.300781 4.632812 -6.351562 4.4375 -5.4375 C 4.238281 -4.53125 4.25 -3.785156 4.46875 -3.203125 C 4.6875 -2.628906 5.25 -2.414062 6.15625 -2.5625 Z M 16.9375 -17.640625 C 17.050781 -18.117188 17.171875 -18.691406 17.296875 -19.359375 C 17.421875 -20.035156 17.5 -20.707031 17.53125 -21.375 C 17.570312 -22.050781 17.445312 -22.625 17.15625 -23.09375 C 16.789062 -23.675781 16.351562 -23.859375 15.84375 -23.640625 C 15.34375 -23.421875 14.851562 -23.054688 14.375 -22.546875 C 13.90625 -22.035156 13.523438 -21.601562 13.234375 -21.25 C 13.203125 -21.25 13.1875 -21.238281 13.1875 -21.21875 C 13.1875 -21.195312 13.1875 -21.1875 13.1875 -21.1875 L 13.125 -21.078125 L 13.125 -21.140625 C 13.09375 -21.023438 13.078125 -20.96875 13.078125 -20.96875 C 12.929688 -20.789062 12.785156 -20.597656 12.640625 -20.390625 C 12.492188 -20.191406 12.328125 -19.945312 12.140625 -19.65625 C 12.179688 -19.695312 12.300781 -19.867188 12.5 -20.171875 C 12.695312 -20.484375 12.816406 -20.601562 12.859375 -20.53125 C 12.929688 -20.425781 12.882812 -20.203125 12.71875 -19.859375 C 12.550781 -19.515625 12.375 -19.164062 12.1875 -18.8125 C 12.007812 -18.46875 11.882812 -18.242188 11.8125 -18.140625 C 11.675781 -17.703125 11.539062 -17.265625 11.40625 -16.828125 C 11.28125 -16.390625 11.179688 -15.9375 11.109375 -15.46875 C 11.078125 -15 11.066406 -14.523438 11.078125 -14.046875 C 11.097656 -13.578125 11.289062 -13.179688 11.65625 -12.859375 C 11.875 -12.671875 12.144531 -12.539062 12.46875 -12.46875 C 12.800781 -12.394531 13.113281 -12.34375 13.40625 -12.3125 C 13.582031 -12.269531 13.816406 -12.238281 14.109375 -12.21875 C 14.398438 -12.207031 14.617188 -12.21875 14.765625 -12.25 C 15.054688 -12.320312 15.203125 -12.359375 15.203125 -12.359375 C 15.203125 -12.359375 15.273438 -12.488281 15.421875 -12.75 C 15.816406 -13.4375 16.125 -14.234375 16.34375 -15.140625 C 16.5625 -16.046875 16.757812 -16.878906 16.9375 -17.640625 Z M 13.1875 -21.1875 C 13.1875 -21.1875 13.191406 -21.1875 13.203125 -21.1875 C 13.222656 -21.1875 13.234375 -21.207031 13.234375 -21.25 Z M 13.1875 -21.1875 "/></g></g></g><g fill="#ffffff" fill-opacity="1"><g transform="translate(138.825276, 57.132229)"><g><path d="M 22.546875 -12.96875 C 22.617188 -12.53125 22.488281 -12.054688 22.15625 -11.546875 C 21.832031 -11.035156 21.453125 -10.546875 21.015625 -10.078125 C 20.585938 -9.609375 20.265625 -9.226562 20.046875 -8.9375 C 19.460938 -8.164062 18.878906 -7.390625 18.296875 -6.609375 C 17.722656 -5.835938 17.109375 -5.085938 16.453125 -4.359375 C 16.117188 -4.035156 15.722656 -3.65625 15.265625 -3.21875 C 14.816406 -2.78125 14.335938 -2.441406 13.828125 -2.203125 C 13.328125 -1.972656 12.820312 -1.925781 12.3125 -2.0625 C 12.195312 -2.101562 11.945312 -2.222656 11.5625 -2.421875 C 11.1875 -2.617188 10.832031 -2.835938 10.5 -3.078125 C 10.175781 -3.316406 10.015625 -3.472656 10.015625 -3.546875 L 10.1875 -3.4375 L 9.859375 -3.765625 C 10.003906 -3.546875 9.984375 -3.507812 9.796875 -3.65625 C 9.617188 -3.800781 9.515625 -3.875 9.484375 -3.875 C 9.335938 -4.007812 9.207031 -4.175781 9.09375 -4.375 C 8.988281 -4.582031 8.898438 -4.757812 8.828125 -4.90625 C 8.679688 -5.195312 8.585938 -5.492188 8.546875 -5.796875 C 8.515625 -6.109375 8.5 -6.410156 8.5 -6.703125 C 8.5 -6.992188 8.515625 -7.289062 8.546875 -7.59375 C 8.585938 -7.90625 8.625 -8.207031 8.65625 -8.5 C 8.726562 -9.113281 8.789062 -9.710938 8.84375 -10.296875 C 8.90625 -10.878906 9.023438 -11.457031 9.203125 -12.03125 C 9.242188 -12.144531 9.367188 -12.460938 9.578125 -12.984375 C 9.796875 -13.515625 10.03125 -14.035156 10.28125 -14.546875 C 10.539062 -15.054688 10.726562 -15.289062 10.84375 -15.25 C 10.914062 -15.25 10.90625 -15.1875 10.8125 -15.0625 C 10.71875 -14.9375 10.691406 -14.851562 10.734375 -14.8125 L 11.5 -16.34375 C 11.457031 -16.300781 11.414062 -16.253906 11.375 -16.203125 C 11.34375 -16.148438 11.289062 -16.101562 11.21875 -16.0625 C 11.1875 -16.101562 11.296875 -16.34375 11.546875 -16.78125 C 11.796875 -17.21875 11.957031 -17.503906 12.03125 -17.640625 C 11.488281 -17.023438 10.988281 -16.390625 10.53125 -15.734375 C 10.082031 -15.085938 9.601562 -14.4375 9.09375 -13.78125 C 8.726562 -13.3125 8.351562 -12.898438 7.96875 -12.546875 C 7.59375 -12.203125 7.28125 -11.816406 7.03125 -11.390625 C 6.445312 -10.398438 5.835938 -9.441406 5.203125 -8.515625 C 4.566406 -7.597656 4.015625 -6.628906 3.546875 -5.609375 L 3.328125 -6.046875 C 2.992188 -5.648438 2.628906 -5.492188 2.234375 -5.578125 C 1.835938 -5.671875 1.460938 -5.890625 1.109375 -6.234375 C 0.765625 -6.578125 0.503906 -6.894531 0.328125 -7.1875 C 0.078125 -7.625 -0.03125 -8.03125 0 -8.40625 C 0.03125 -8.789062 0.0664062 -9.222656 0.109375 -9.703125 C 0.179688 -10.128906 0.21875 -10.5625 0.21875 -11 C 0.21875 -11.4375 0.289062 -11.890625 0.4375 -12.359375 C 0.613281 -12.941406 0.800781 -13.503906 1 -14.046875 C 1.207031 -14.597656 1.421875 -15.160156 1.640625 -15.734375 C 1.816406 -16.316406 2.003906 -16.890625 2.203125 -17.453125 C 2.398438 -18.015625 2.609375 -18.585938 2.828125 -19.171875 C 2.972656 -19.535156 3.15625 -19.925781 3.375 -20.34375 C 3.59375 -20.757812 3.738281 -21.148438 3.8125 -21.515625 C 3.882812 -21.804688 3.925781 -22.0625 3.9375 -22.28125 C 3.957031 -22.5 4.148438 -22.71875 4.515625 -22.9375 C 4.847656 -23.113281 5.1875 -23.210938 5.53125 -23.234375 C 5.875 -23.253906 6.226562 -23.226562 6.59375 -23.15625 C 6.882812 -23.113281 7.207031 -22.984375 7.5625 -22.765625 C 7.925781 -22.546875 8.191406 -22.265625 8.359375 -21.921875 C 8.523438 -21.578125 8.441406 -21.171875 8.109375 -20.703125 C 7.929688 -20.441406 7.695312 -20.179688 7.40625 -19.921875 C 7.113281 -19.671875 6.859375 -19.40625 6.640625 -19.125 C 6.390625 -18.832031 6.242188 -18.582031 6.203125 -18.375 C 6.171875 -18.175781 6.097656 -17.894531 5.984375 -17.53125 C 5.953125 -17.320312 5.84375 -17.113281 5.65625 -16.90625 C 5.476562 -16.707031 5.335938 -16.5 5.234375 -16.28125 C 5.085938 -15.988281 4.945312 -15.660156 4.8125 -15.296875 C 4.6875 -14.941406 4.570312 -14.582031 4.46875 -14.21875 C 4.425781 -14 4.40625 -13.796875 4.40625 -13.609375 C 4.40625 -13.429688 4.390625 -13.234375 4.359375 -13.015625 C 4.316406 -12.429688 4.222656 -11.859375 4.078125 -11.296875 C 3.941406 -10.734375 3.835938 -10.164062 3.765625 -9.59375 C 3.796875 -9.695312 3.875 -9.820312 4 -9.96875 C 4.125 -10.113281 4.207031 -10.164062 4.25 -10.125 C 4.28125 -10.09375 4.195312 -9.921875 4 -9.609375 C 3.800781 -9.304688 3.722656 -9.15625 3.765625 -9.15625 L 6.96875 -13.828125 C 6.601562 -13.359375 6.300781 -12.976562 6.0625 -12.6875 C 5.832031 -12.394531 5.71875 -12.25 5.71875 -12.25 C 5.6875 -12.289062 5.878906 -12.59375 6.296875 -13.15625 C 6.710938 -13.71875 7.242188 -14.425781 7.890625 -15.28125 C 8.546875 -16.132812 9.226562 -16.992188 9.9375 -17.859375 C 10.644531 -18.734375 11.257812 -19.5 11.78125 -20.15625 C 12.3125 -20.8125 12.648438 -21.210938 12.796875 -21.359375 C 13.597656 -22.078125 14.429688 -22.378906 15.296875 -22.265625 C 16.171875 -22.160156 16.789062 -21.472656 17.15625 -20.203125 C 17.445312 -19.296875 17.398438 -18.476562 17.015625 -17.75 C 16.640625 -17.03125 16.132812 -16.34375 15.5 -15.6875 C 14.863281 -15.03125 14.328125 -14.375 13.890625 -13.71875 C 13.523438 -13.175781 13.195312 -12.597656 12.90625 -11.984375 C 12.613281 -11.367188 12.320312 -10.769531 12.03125 -10.1875 C 11.851562 -9.820312 11.609375 -9.300781 11.296875 -8.625 C 10.992188 -7.957031 10.804688 -7.316406 10.734375 -6.703125 C 10.804688 -7.097656 10.953125 -7.519531 11.171875 -7.96875 C 11.390625 -8.425781 11.550781 -8.785156 11.65625 -9.046875 C 12.09375 -10.171875 12.726562 -11.128906 13.5625 -11.921875 C 13.382812 -11.566406 13.191406 -11.222656 12.984375 -10.890625 C 12.785156 -10.566406 12.597656 -10.238281 12.421875 -9.90625 L 12.6875 -10.234375 C 12.726562 -10.234375 12.703125 -10.078125 12.609375 -9.765625 C 12.515625 -9.460938 12.421875 -9.144531 12.328125 -8.8125 C 12.242188 -8.488281 12.179688 -8.3125 12.140625 -8.28125 C 12.035156 -7.945312 11.9375 -7.609375 11.84375 -7.265625 C 11.75 -6.921875 11.6875 -6.566406 11.65625 -6.203125 C 11.625 -6.171875 11.613281 -6.007812 11.625 -5.71875 C 11.644531 -5.425781 11.65625 -5.28125 11.65625 -5.28125 L 11.703125 -5.234375 C 11.703125 -5.265625 11.773438 -5.289062 11.921875 -5.3125 C 12.066406 -5.332031 12.160156 -5.359375 12.203125 -5.390625 C 12.597656 -5.535156 12.992188 -5.769531 13.390625 -6.09375 C 13.796875 -6.425781 14.160156 -6.71875 14.484375 -6.96875 C 15.140625 -7.476562 15.785156 -8.015625 16.421875 -8.578125 C 17.054688 -9.140625 17.679688 -9.691406 18.296875 -10.234375 C 18.773438 -10.671875 19.285156 -11.109375 19.828125 -11.546875 C 20.367188 -11.984375 20.820312 -12.4375 21.1875 -12.90625 C 21.363281 -13.164062 21.597656 -13.398438 21.890625 -13.609375 C 22.179688 -13.828125 22.398438 -13.613281 22.546875 -12.96875 Z M 22.546875 -12.96875 "/></g></g></g><g fill="#ffffff" fill-opacity="1"><g transform="translate(157.399488, 57.132229)"><g><path d="M 14.265625 -13.40625 C 14.378906 -12.894531 14.265625 -12.363281 13.921875 -11.8125 C 13.578125 -11.269531 13.257812 -10.816406 12.96875 -10.453125 C 12.488281 -9.765625 12.019531 -9.09375 11.5625 -8.4375 C 11.113281 -7.789062 10.632812 -7.140625 10.125 -6.484375 C 9.582031 -5.753906 8.957031 -4.914062 8.25 -3.96875 C 7.539062 -3.03125 6.71875 -2.453125 5.78125 -2.234375 C 5.632812 -2.234375 5.359375 -2.273438 4.953125 -2.359375 C 4.554688 -2.453125 4.1875 -2.5625 3.84375 -2.6875 C 3.5 -2.820312 3.328125 -2.941406 3.328125 -3.046875 L 3.4375 -3.046875 C 3.21875 -3.160156 3.132812 -3.160156 3.1875 -3.046875 C 3.238281 -2.941406 3.101562 -3.015625 2.78125 -3.265625 C 2.519531 -3.453125 2.304688 -3.648438 2.140625 -3.859375 C 1.984375 -4.078125 1.816406 -4.316406 1.640625 -4.578125 C 1.347656 -4.972656 1.035156 -5.367188 0.703125 -5.765625 C 0.378906 -6.171875 0.160156 -6.609375 0.046875 -7.078125 C 0.046875 -7.191406 0.0351562 -7.425781 0.015625 -7.78125 C 0.00390625 -8.144531 0.015625 -8.488281 0.046875 -8.8125 C 0.0859375 -9.144531 0.179688 -9.3125 0.328125 -9.3125 C 0.398438 -9.3125 0.414062 -9.265625 0.375 -9.171875 C 0.34375 -9.085938 0.34375 -9.046875 0.375 -9.046875 L 0.546875 -10.015625 C 0.472656 -9.910156 0.414062 -9.835938 0.375 -9.796875 C 0.34375 -9.796875 0.363281 -9.992188 0.4375 -10.390625 C 0.507812 -10.796875 0.609375 -11.269531 0.734375 -11.8125 C 0.859375 -12.363281 0.972656 -12.851562 1.078125 -13.28125 C 1.191406 -13.71875 1.269531 -13.972656 1.3125 -14.046875 C 1.53125 -14.628906 1.738281 -15.210938 1.9375 -15.796875 C 2.132812 -16.378906 2.503906 -16.832031 3.046875 -17.15625 C 3.453125 -17.445312 3.90625 -17.570312 4.40625 -17.53125 C 4.914062 -17.5 5.425781 -17.375 5.9375 -17.15625 C 6.15625 -17.082031 6.488281 -16.925781 6.9375 -16.6875 C 7.394531 -16.457031 7.625 -16.195312 7.625 -15.90625 C 7.625 -15.757812 7.566406 -15.648438 7.453125 -15.578125 C 7.347656 -15.503906 7.257812 -15.429688 7.1875 -15.359375 C 7.226562 -15.398438 7.300781 -15.421875 7.40625 -15.421875 C 7.476562 -15.378906 7.382812 -15.15625 7.125 -14.75 C 6.875 -14.351562 6.710938 -14.175781 6.640625 -14.21875 C 6.609375 -14.21875 6.609375 -14.269531 6.640625 -14.375 C 6.679688 -14.488281 6.71875 -14.582031 6.75 -14.65625 C 5.738281 -12.976562 4.882812 -11.144531 4.1875 -9.15625 C 4.300781 -9.40625 4.484375 -9.828125 4.734375 -10.421875 C 4.992188 -11.023438 5.257812 -11.585938 5.53125 -12.109375 C 5.800781 -12.640625 5.953125 -12.890625 5.984375 -12.859375 C 6.023438 -12.859375 5.9375 -12.628906 5.71875 -12.171875 C 5.5 -11.722656 5.234375 -11.148438 4.921875 -10.453125 C 4.617188 -9.765625 4.347656 -9.066406 4.109375 -8.359375 C 3.878906 -7.648438 3.753906 -7.015625 3.734375 -6.453125 C 3.710938 -5.890625 3.882812 -5.519531 4.25 -5.34375 C 4.539062 -5.195312 4.875 -5.210938 5.25 -5.390625 C 5.632812 -5.578125 6.007812 -5.8125 6.375 -6.09375 C 6.738281 -6.382812 7.007812 -6.601562 7.1875 -6.75 C 7.695312 -7.15625 8.269531 -7.601562 8.90625 -8.09375 C 9.539062 -8.582031 10.039062 -9.0625 10.40625 -9.53125 C 10.332031 -9.457031 10.203125 -9.421875 10.015625 -9.421875 C 9.984375 -9.492188 10.082031 -9.726562 10.3125 -10.125 C 10.550781 -10.53125 10.859375 -10.984375 11.234375 -11.484375 C 11.617188 -11.992188 11.984375 -12.457031 12.328125 -12.875 C 12.679688 -13.300781 12.910156 -13.546875 13.015625 -13.609375 C 13.203125 -13.753906 13.445312 -13.84375 13.75 -13.875 C 14.0625 -13.914062 14.234375 -13.757812 14.265625 -13.40625 Z M 4.734375 -20.265625 C 4.734375 -20.265625 4.675781 -20.34375 4.5625 -20.5 C 4.457031 -20.664062 4.40625 -20.769531 4.40625 -20.8125 C 4.40625 -20.882812 4.394531 -21.0625 4.375 -21.34375 C 4.363281 -21.632812 4.382812 -21.90625 4.4375 -22.15625 C 4.488281 -22.414062 4.609375 -22.492188 4.796875 -22.390625 C 4.796875 -22.460938 4.894531 -22.613281 5.09375 -22.84375 C 5.289062 -23.082031 5.300781 -23.019531 5.125 -22.65625 C 5.59375 -23.269531 6.023438 -24.015625 6.421875 -24.890625 L 5.78125 -23.90625 C 6.03125 -24.414062 6.300781 -25.0625 6.59375 -25.84375 C 6.882812 -26.625 7.046875 -27.101562 7.078125 -27.28125 C 7.078125 -27.320312 7.066406 -27.429688 7.046875 -27.609375 C 7.035156 -27.796875 7.046875 -27.90625 7.078125 -27.9375 C 6.492188 -28.15625 6.3125 -28.410156 6.53125 -28.703125 C 6.75 -28.992188 6.988281 -29.226562 7.25 -29.40625 C 7.132812 -29.40625 7.0625 -29.441406 7.03125 -29.515625 C 6.914062 -29.628906 6.96875 -29.722656 7.1875 -29.796875 C 7.40625 -29.867188 7.550781 -29.921875 7.625 -29.953125 C 8.019531 -30.140625 8.4375 -30.195312 8.875 -30.125 C 9.3125 -30.050781 9.710938 -29.921875 10.078125 -29.734375 C 10.367188 -29.554688 10.640625 -29.285156 10.890625 -28.921875 C 11.148438 -28.554688 11.332031 -28.210938 11.4375 -27.890625 C 11.550781 -27.523438 11.503906 -27.160156 11.296875 -26.796875 C 11.097656 -26.429688 10.875 -26.140625 10.625 -25.921875 C 10.507812 -25.816406 10.367188 -25.71875 10.203125 -25.625 C 10.046875 -25.53125 9.894531 -25.429688 9.75 -25.328125 C 9.601562 -25.148438 9.507812 -24.941406 9.46875 -24.703125 C 9.4375 -24.460938 9.347656 -24.253906 9.203125 -24.078125 C 9.128906 -23.929688 9.019531 -23.820312 8.875 -23.75 C 8.726562 -23.675781 8.617188 -23.566406 8.546875 -23.421875 C 8.328125 -23.273438 8.3125 -23.113281 8.5 -22.9375 C 8.28125 -22.820312 8.097656 -22.691406 7.953125 -22.546875 C 7.703125 -22.109375 7.46875 -21.753906 7.25 -21.484375 C 7.03125 -21.210938 6.753906 -20.953125 6.421875 -20.703125 C 6.710938 -20.878906 6.976562 -21.066406 7.21875 -21.265625 C 7.457031 -21.460938 7.703125 -21.742188 7.953125 -22.109375 C 8.390625 -22.660156 8.914062 -23.0625 9.53125 -23.3125 C 9.28125 -23.019531 9.082031 -22.707031 8.9375 -22.375 C 8.789062 -22.050781 8.550781 -21.78125 8.21875 -21.5625 C 8 -21.457031 7.878906 -21.429688 7.859375 -21.484375 C 7.847656 -21.535156 7.84375 -21.570312 7.84375 -21.59375 C 7.84375 -21.613281 7.71875 -21.515625 7.46875 -21.296875 C 7.46875 -21.296875 7.507812 -21.304688 7.59375 -21.328125 C 7.6875 -21.347656 7.695312 -21.320312 7.625 -21.25 C 7.375 -21.03125 7.117188 -20.773438 6.859375 -20.484375 C 6.609375 -20.191406 6.316406 -19.972656 5.984375 -19.828125 C 5.847656 -19.785156 5.707031 -19.726562 5.5625 -19.65625 C 5.414062 -19.582031 5.25 -19.582031 5.0625 -19.65625 C 4.882812 -19.769531 4.800781 -19.878906 4.8125 -19.984375 C 4.832031 -20.097656 4.804688 -20.191406 4.734375 -20.265625 Z M 3.703125 -7.296875 C 3.742188 -7.367188 3.742188 -7.390625 3.703125 -7.359375 L 3.59375 -6.921875 L 3.703125 -7.25 Z M 5.5 -23.46875 L 5.71875 -23.796875 C 5.6875 -23.691406 5.640625 -23.609375 5.578125 -23.546875 C 5.523438 -23.492188 5.5 -23.46875 5.5 -23.46875 Z M 4.953125 -22.4375 C 4.921875 -22.40625 4.882812 -22.390625 4.84375 -22.390625 C 4.882812 -22.390625 4.90625 -22.378906 4.90625 -22.359375 C 4.90625 -22.335938 4.90625 -22.328125 4.90625 -22.328125 C 4.9375 -22.367188 4.953125 -22.40625 4.953125 -22.4375 Z M 4.953125 -22.4375 "/></g></g></g><g fill="#ffffff" fill-opacity="1"><g transform="translate(167.694288, 57.132229)"><g><path d="M 32.6875 -40.203125 C 33.15625 -39.835938 33.488281 -39.410156 33.6875 -38.921875 C 33.882812 -38.429688 34.09375 -37.929688 34.3125 -37.421875 C 34.644531 -36.835938 34.609375 -36.191406 34.203125 -35.484375 C 33.804688 -34.773438 33.441406 -34.164062 33.109375 -33.65625 C 32.640625 -32.9375 32.113281 -32.226562 31.53125 -31.53125 C 30.957031 -30.84375 30.359375 -30.171875 29.734375 -29.515625 C 29.265625 -29.046875 28.785156 -28.554688 28.296875 -28.046875 C 27.804688 -27.535156 27.253906 -27.101562 26.640625 -26.75 C 26.273438 -26.53125 25.898438 -26.410156 25.515625 -26.390625 C 25.140625 -26.367188 24.894531 -26.457031 24.78125 -26.65625 C 24.675781 -26.863281 24.84375 -27.179688 25.28125 -27.609375 C 25.382812 -27.679688 25.535156 -27.914062 25.734375 -28.3125 C 25.929688 -28.71875 26.164062 -29.175781 26.4375 -29.6875 C 26.71875 -30.195312 26.992188 -30.640625 27.265625 -31.015625 C 27.535156 -31.398438 27.757812 -31.59375 27.9375 -31.59375 C 27.90625 -31.550781 27.796875 -31.347656 27.609375 -30.984375 C 27.429688 -30.628906 27.269531 -30.320312 27.125 -30.0625 C 27.488281 -30.570312 27.953125 -31.269531 28.515625 -32.15625 C 29.078125 -33.050781 29.578125 -33.988281 30.015625 -34.96875 C 30.453125 -35.945312 30.660156 -36.84375 30.640625 -37.65625 C 30.617188 -38.476562 30.226562 -39.070312 29.46875 -39.4375 C 28.851562 -39.726562 28.125 -39.78125 27.28125 -39.59375 C 26.445312 -39.414062 25.722656 -39.21875 25.109375 -39 C 23.734375 -38.53125 22.410156 -37.804688 21.140625 -36.828125 C 22.878906 -38.128906 24.800781 -38.960938 26.90625 -39.328125 C 27.375 -39.398438 27.890625 -39.453125 28.453125 -39.484375 C 29.015625 -39.523438 29.476562 -39.378906 29.84375 -39.046875 C 30.25 -38.648438 30.40625 -38.234375 30.3125 -37.796875 C 30.21875 -37.359375 30.132812 -36.941406 30.0625 -36.546875 C 30.0625 -37.015625 30.070312 -37.445312 30.09375 -37.84375 C 30.113281 -38.25 30.019531 -38.597656 29.8125 -38.890625 C 29.613281 -39.179688 29.171875 -39.34375 28.484375 -39.375 C 27.648438 -39.414062 26.804688 -39.304688 25.953125 -39.046875 C 25.097656 -38.796875 24.304688 -38.488281 23.578125 -38.125 C 22.304688 -37.507812 21.117188 -36.679688 20.015625 -35.640625 C 18.910156 -34.609375 18.03125 -33.457031 17.375 -32.1875 C 16.644531 -30.769531 16.316406 -29.328125 16.390625 -27.859375 C 16.460938 -26.390625 16.757812 -24.9375 17.28125 -23.5 C 17.8125 -22.070312 18.429688 -20.65625 19.140625 -19.25 C 19.847656 -17.851562 20.476562 -16.519531 21.03125 -15.25 C 20.476562 -16.300781 19.898438 -17.332031 19.296875 -18.34375 C 18.703125 -19.363281 18.148438 -20.382812 17.640625 -21.40625 C 18.046875 -20.570312 18.359375 -19.753906 18.578125 -18.953125 C 18.796875 -18.148438 19.140625 -17.332031 19.609375 -16.5 C 20.222656 -15.488281 20.828125 -14.5 21.421875 -13.53125 C 22.023438 -12.570312 22.507812 -11.507812 22.875 -10.34375 C 23.601562 -7.914062 23.617188 -5.691406 22.921875 -3.671875 C 22.234375 -1.660156 20.945312 0.160156 19.0625 1.796875 L 20.15625 1.03125 C 20.15625 1.4375 19.910156 1.851562 19.421875 2.28125 C 18.929688 2.71875 18.320312 3.132812 17.59375 3.53125 C 16.863281 3.9375 16.171875 4.285156 15.515625 4.578125 C 14.867188 4.867188 14.398438 5.066406 14.109375 5.171875 C 12.472656 5.828125 10.664062 6.179688 8.6875 6.234375 C 6.707031 6.285156 4.898438 5.914062 3.265625 5.125 C 2.109375 4.5 1.273438 3.695312 0.765625 2.71875 C 0.253906 1.738281 0 0.679688 0 -0.453125 C 0 -1.597656 0.179688 -2.753906 0.546875 -3.921875 C 0.910156 -5.085938 1.378906 -6.125 1.953125 -7.03125 C 2.097656 -7.25 2.414062 -7.675781 2.90625 -8.3125 C 3.40625 -8.945312 3.972656 -9.570312 4.609375 -10.1875 C 5.242188 -10.800781 5.847656 -11.242188 6.421875 -11.515625 C 7.003906 -11.785156 7.441406 -11.648438 7.734375 -11.109375 C 7.910156 -10.816406 7.878906 -10.40625 7.640625 -9.875 C 7.410156 -9.351562 7.128906 -8.820312 6.796875 -8.28125 C 6.472656 -7.738281 6.257812 -7.320312 6.15625 -7.03125 C 5.9375 -6.550781 5.753906 -6.078125 5.609375 -5.609375 C 5.460938 -5.140625 5.335938 -4.648438 5.234375 -4.140625 C 5.046875 -3.265625 4.914062 -2.335938 4.84375 -1.359375 C 4.769531 -0.378906 4.914062 0.523438 5.28125 1.359375 C 5.71875 2.378906 6.441406 2.953125 7.453125 3.078125 C 8.472656 3.203125 9.457031 3.140625 10.40625 2.890625 C 11.707031 2.484375 12.921875 1.828125 14.046875 0.921875 C 15.171875 0.015625 16.082031 -1.015625 16.78125 -2.171875 C 17.144531 -2.796875 17.441406 -3.441406 17.671875 -4.109375 C 17.910156 -4.785156 18.046875 -5.46875 18.078125 -6.15625 C 18.078125 -6.664062 18.023438 -7.191406 17.921875 -7.734375 C 17.878906 -7.878906 17.800781 -8.0625 17.6875 -8.28125 C 17.582031 -8.5 17.550781 -8.695312 17.59375 -8.875 C 17.59375 -8.769531 17.632812 -8.632812 17.71875 -8.46875 C 17.8125 -8.300781 17.878906 -8.144531 17.921875 -8 C 17.878906 -8.1875 17.832031 -8.367188 17.78125 -8.546875 C 17.726562 -8.734375 17.679688 -8.9375 17.640625 -9.15625 C 17.640625 -9.113281 17.601562 -9.164062 17.53125 -9.3125 C 17.46875 -9.457031 17.414062 -9.53125 17.375 -9.53125 C 17.195312 -9.96875 17.050781 -10.367188 16.9375 -10.734375 L 15.953125 -13.1875 C 15.410156 -14.601562 14.832031 -16.007812 14.21875 -17.40625 C 13.601562 -18.800781 12.984375 -20.207031 12.359375 -21.625 C 11.921875 -22.675781 11.566406 -23.753906 11.296875 -24.859375 C 11.023438 -25.972656 10.851562 -27.09375 10.78125 -28.21875 C 10.78125 -28.394531 10.757812 -28.789062 10.71875 -29.40625 C 10.6875 -30.03125 10.707031 -30.625 10.78125 -31.1875 C 10.851562 -31.75 11.035156 -32.03125 11.328125 -32.03125 C 11.296875 -32.03125 11.25 -31.882812 11.1875 -31.59375 C 11.132812 -31.300781 11.128906 -31.15625 11.171875 -31.15625 C 11.390625 -32.175781 11.769531 -33.191406 12.3125 -34.203125 L 11.921875 -33.65625 C 12.035156 -34.3125 12.316406 -34.945312 12.765625 -35.5625 C 13.222656 -36.1875 13.734375 -36.78125 14.296875 -37.34375 C 14.859375 -37.90625 15.359375 -38.382812 15.796875 -38.78125 C 17.753906 -40.59375 20.023438 -41.828125 22.609375 -42.484375 C 23.910156 -42.804688 25.160156 -42.878906 26.359375 -42.703125 C 27.554688 -42.523438 28.773438 -42.179688 30.015625 -41.671875 C 30.523438 -41.484375 31.003906 -41.269531 31.453125 -41.03125 C 31.910156 -40.800781 32.320312 -40.523438 32.6875 -40.203125 Z M 2.234375 3.921875 C 1.546875 3.015625 1.15625 1.851562 1.0625 0.4375 C 0.96875 -0.976562 1.128906 -2.4375 1.546875 -3.9375 C 1.960938 -5.445312 2.535156 -6.726562 3.265625 -7.78125 C 2.429688 -6.625 1.757812 -5.363281 1.25 -4 C 0.738281 -2.632812 0.535156 -1.273438 0.640625 0.078125 C 0.753906 1.441406 1.285156 2.722656 2.234375 3.921875 Z M 16.28125 -27.78125 L 16.28125 -27.015625 C 16.28125 -27.128906 16.289062 -27.25 16.3125 -27.375 C 16.332031 -27.5 16.320312 -27.632812 16.28125 -27.78125 Z M 16.28125 -27.78125 "/></g></g></g><g fill="#ffffff" fill-opacity="1"><g transform="translate(194.874734, 57.132229)"><g><path d="M 27.015625 -13.40625 C 27.085938 -13.40625 27.210938 -13.359375 27.390625 -13.265625 C 27.578125 -13.171875 27.578125 -13.109375 27.390625 -13.078125 C 27.460938 -13.109375 27.390625 -12.867188 27.171875 -12.359375 C 26.960938 -11.859375 26.71875 -11.332031 26.4375 -10.78125 C 26.164062 -10.238281 25.992188 -9.910156 25.921875 -9.796875 C 25.523438 -9.148438 25.109375 -8.5 24.671875 -7.84375 C 24.234375 -7.1875 23.796875 -6.550781 23.359375 -5.9375 C 22.566406 -4.738281 21.78125 -3.492188 21 -2.203125 C 20.21875 -0.910156 19.300781 0.238281 18.25 1.25 C 17.882812 1.613281 17.53125 1.882812 17.1875 2.0625 C 16.84375 2.25 16.414062 2.320312 15.90625 2.28125 C 15.289062 2.25 14.753906 2.101562 14.296875 1.84375 C 13.835938 1.59375 13.410156 1.269531 13.015625 0.875 C 12.984375 0.800781 12.828125 0.644531 12.546875 0.40625 C 12.273438 0.164062 12.03125 -0.0859375 11.8125 -0.359375 C 11.601562 -0.628906 11.515625 -0.816406 11.546875 -0.921875 L 11.875 -0.4375 C 11.726562 -0.65625 11.601562 -0.945312 11.5 -1.3125 L 11.5 -1.09375 C 11.457031 -1.050781 11.378906 -1.179688 11.265625 -1.484375 C 11.160156 -1.796875 11.070312 -2.125 11 -2.46875 C 10.925781 -2.820312 10.890625 -3.035156 10.890625 -3.109375 C 10.859375 -3.503906 10.878906 -3.910156 10.953125 -4.328125 C 11.023438 -4.742188 11.097656 -5.15625 11.171875 -5.5625 C 11.347656 -6.207031 11.535156 -6.859375 11.734375 -7.515625 C 11.929688 -8.171875 12.101562 -8.828125 12.25 -9.484375 C 12.4375 -10.171875 12.691406 -10.835938 13.015625 -11.484375 C 13.347656 -12.140625 13.675781 -12.796875 14 -13.453125 C 14.03125 -13.523438 14.144531 -13.75 14.34375 -14.125 C 14.550781 -14.507812 14.753906 -14.882812 14.953125 -15.25 C 15.148438 -15.613281 15.285156 -15.796875 15.359375 -15.796875 C 15.359375 -15.753906 15.320312 -15.648438 15.25 -15.484375 C 15.175781 -15.328125 15.160156 -15.234375 15.203125 -15.203125 L 16.015625 -17.046875 L 15.84375 -16.890625 L 17.4375 -20.703125 C 16.414062 -19.898438 15.492188 -18.972656 14.671875 -17.921875 C 13.859375 -16.867188 13.050781 -15.851562 12.25 -14.875 C 11.882812 -14.394531 11.507812 -13.898438 11.125 -13.390625 C 10.75 -12.890625 10.328125 -12.4375 9.859375 -12.03125 C 9.710938 -11.882812 9.59375 -11.820312 9.5 -11.84375 C 9.414062 -11.863281 9.300781 -11.785156 9.15625 -11.609375 C 9.039062 -11.460938 8.9375 -11.304688 8.84375 -11.140625 C 8.757812 -10.972656 8.679688 -10.800781 8.609375 -10.625 C 7.992188 -9.601562 7.3125 -8.609375 6.5625 -7.640625 C 5.820312 -6.679688 5.125 -5.695312 4.46875 -4.6875 L 3.484375 -2.9375 C 3.453125 -2.789062 3.414062 -2.671875 3.375 -2.578125 C 3.34375 -2.492188 3.269531 -2.378906 3.15625 -2.234375 C 2.789062 -1.867188 2.34375 -1.726562 1.8125 -1.8125 C 1.289062 -1.90625 0.882812 -2.132812 0.59375 -2.5 C 0.34375 -2.789062 0.1875 -3.109375 0.125 -3.453125 C 0.0703125 -3.796875 0.046875 -4.132812 0.046875 -4.46875 C -0.0546875 -5.664062 -0.0078125 -6.890625 0.1875 -8.140625 C 0.382812 -9.390625 0.59375 -10.597656 0.8125 -11.765625 C 1.289062 -14.335938 1.847656 -16.894531 2.484375 -19.4375 C 3.117188 -21.988281 3.851562 -24.5 4.6875 -26.96875 C 5.414062 -29.175781 6.304688 -31.296875 7.359375 -33.328125 C 8.410156 -35.367188 9.460938 -37.421875 10.515625 -39.484375 C 10.515625 -39.523438 10.566406 -39.742188 10.671875 -40.140625 C 10.785156 -40.546875 10.914062 -40.78125 11.0625 -40.84375 C 11.019531 -40.8125 10.941406 -40.628906 10.828125 -40.296875 C 10.722656 -39.972656 10.671875 -39.8125 10.671875 -39.8125 L 11.328125 -41.0625 C 11.328125 -41.0625 11.316406 -41.0625 11.296875 -41.0625 C 11.285156 -41.0625 11.257812 -41.082031 11.21875 -41.125 C 11.21875 -41.632812 11.441406 -42.207031 11.890625 -42.84375 C 12.347656 -43.476562 12.707031 -43.992188 12.96875 -44.390625 C 13.363281 -45.003906 13.757812 -45.617188 14.15625 -46.234375 C 14.5625 -46.859375 14.984375 -47.460938 15.421875 -48.046875 C 16.179688 -49.097656 16.957031 -50.164062 17.75 -51.25 C 18.550781 -52.34375 19.460938 -53.289062 20.484375 -54.09375 C 21.023438 -54.488281 21.625 -54.847656 22.28125 -55.171875 C 22.9375 -55.503906 23.609375 -55.632812 24.296875 -55.5625 C 25.054688 -55.5625 25.691406 -55.304688 26.203125 -54.796875 C 26.273438 -54.722656 26.398438 -54.53125 26.578125 -54.21875 C 26.765625 -53.914062 26.921875 -53.597656 27.046875 -53.265625 C 27.171875 -52.941406 27.179688 -52.742188 27.078125 -52.671875 C 27.078125 -52.671875 27.03125 -52.804688 26.9375 -53.078125 C 26.84375 -53.347656 26.78125 -53.484375 26.75 -53.484375 C 26.925781 -53.046875 27.03125 -52.59375 27.0625 -52.125 C 27.101562 -51.65625 27.109375 -51.203125 27.078125 -50.765625 C 27.148438 -50.867188 27.1875 -50.921875 27.1875 -50.921875 C 27.25 -50.921875 27.234375 -50.664062 27.140625 -50.15625 C 27.054688 -49.65625 26.941406 -49.054688 26.796875 -48.359375 C 26.648438 -47.671875 26.515625 -47.046875 26.390625 -46.484375 C 26.265625 -45.921875 26.179688 -45.585938 26.140625 -45.484375 C 25.890625 -44.535156 25.570312 -43.597656 25.1875 -42.671875 C 24.8125 -41.742188 24.421875 -40.828125 24.015625 -39.921875 C 23.109375 -38.035156 22.082031 -36.109375 20.9375 -34.140625 C 19.800781 -32.179688 18.539062 -30.390625 17.15625 -28.765625 C 16.90625 -28.472656 16.613281 -28.207031 16.28125 -27.96875 C 15.957031 -27.726562 15.671875 -27.484375 15.421875 -27.234375 C 15.160156 -26.941406 14.921875 -26.613281 14.703125 -26.25 C 14.484375 -25.882812 14.226562 -25.539062 13.9375 -25.21875 C 13.25 -24.414062 12.523438 -23.632812 11.765625 -22.875 C 11.003906 -22.113281 10.222656 -21.367188 9.421875 -20.640625 C 8.953125 -20.203125 8.609375 -19.820312 8.390625 -19.5 C 8.171875 -19.175781 7.953125 -18.703125 7.734375 -18.078125 C 7.554688 -17.503906 7.375 -16.9375 7.1875 -16.375 C 7.007812 -15.8125 6.828125 -15.253906 6.640625 -14.703125 C 6.273438 -13.617188 5.929688 -12.53125 5.609375 -11.4375 C 5.285156 -10.34375 4.976562 -9.234375 4.6875 -8.109375 C 5.15625 -8.835938 5.632812 -9.535156 6.125 -10.203125 C 6.613281 -10.878906 7.113281 -11.5625 7.625 -12.25 C 7.257812 -11.851562 6.96875 -11.519531 6.75 -11.25 C 6.53125 -10.976562 6.421875 -10.84375 6.421875 -10.84375 C 6.390625 -10.84375 6.597656 -11.128906 7.046875 -11.703125 C 7.503906 -12.285156 8.085938 -13.003906 8.796875 -13.859375 C 9.503906 -14.710938 10.21875 -15.582031 10.9375 -16.46875 C 11.664062 -17.363281 12.300781 -18.144531 12.84375 -18.8125 C 13.394531 -19.488281 13.742188 -19.898438 13.890625 -20.046875 C 14.285156 -20.484375 14.765625 -20.988281 15.328125 -21.5625 C 15.890625 -22.144531 16.488281 -22.644531 17.125 -23.0625 C 17.757812 -23.476562 18.40625 -23.6875 19.0625 -23.6875 C 19.71875 -23.6875 20.335938 -23.328125 20.921875 -22.609375 C 21.609375 -21.773438 21.796875 -20.882812 21.484375 -19.9375 C 21.179688 -18.988281 20.828125 -18.097656 20.421875 -17.265625 C 19.734375 -15.773438 19 -14.191406 18.21875 -12.515625 C 17.4375 -10.847656 16.828125 -9.253906 16.390625 -7.734375 C 16.429688 -7.765625 16.503906 -7.914062 16.609375 -8.1875 C 16.722656 -8.46875 16.816406 -8.570312 16.890625 -8.5 C 16.992188 -8.382812 16.984375 -8.082031 16.859375 -7.59375 C 16.734375 -7.101562 16.585938 -6.613281 16.421875 -6.125 C 16.253906 -5.632812 16.15625 -5.300781 16.125 -5.125 C 16.125 -5.007812 16.085938 -4.769531 16.015625 -4.40625 C 15.941406 -4.050781 15.90625 -3.707031 15.90625 -3.375 C 15.90625 -3.050781 15.976562 -2.832031 16.125 -2.71875 C 16.375 -2.570312 16.65625 -2.585938 16.96875 -2.765625 C 17.28125 -2.953125 17.585938 -3.191406 17.890625 -3.484375 C 18.203125 -3.773438 18.429688 -3.992188 18.578125 -4.140625 C 19.554688 -5.085938 20.5 -6.085938 21.40625 -7.140625 C 22.3125 -8.191406 23.21875 -9.222656 24.125 -10.234375 C 24.457031 -10.640625 24.796875 -11.054688 25.140625 -11.484375 C 25.484375 -11.921875 25.835938 -12.320312 26.203125 -12.6875 C 26.273438 -12.757812 26.390625 -12.894531 26.546875 -13.09375 C 26.710938 -13.300781 26.867188 -13.40625 27.015625 -13.40625 Z M 22.28125 -50.0625 C 22.28125 -50.019531 22.269531 -50 22.25 -50 C 22.226562 -50 22.21875 -50 22.21875 -50 C 21.238281 -48.4375 20.3125 -46.828125 19.4375 -45.171875 C 18.570312 -43.523438 17.722656 -41.882812 16.890625 -40.25 C 16.117188 -38.757812 15.332031 -37.242188 14.53125 -35.703125 C 13.738281 -34.160156 13.015625 -32.644531 12.359375 -31.15625 C 12.429688 -31.300781 12.515625 -31.425781 12.609375 -31.53125 C 12.703125 -31.644531 12.765625 -31.71875 12.796875 -31.75 C 12.796875 -31.75 12.695312 -31.476562 12.5 -30.9375 C 12.300781 -30.394531 12.101562 -29.832031 11.90625 -29.25 C 11.707031 -28.664062 11.570312 -28.320312 11.5 -28.21875 L 9.859375 -23.90625 C 11.816406 -25.976562 13.640625 -28.164062 15.328125 -30.46875 C 17.015625 -32.78125 18.550781 -35.148438 19.9375 -37.578125 C 19.394531 -36.671875 18.84375 -35.78125 18.28125 -34.90625 C 17.71875 -34.039062 17.125 -33.191406 16.5 -32.359375 L 14.328125 -29.296875 L 13.34375 -28.328125 L 13.78125 -28.8125 C 14.070312 -29.132812 14.332031 -29.457031 14.5625 -29.78125 C 14.800781 -30.113281 15.050781 -30.445312 15.3125 -30.78125 C 15.78125 -31.425781 16.238281 -32.082031 16.6875 -32.75 C 17.144531 -33.425781 17.59375 -34.113281 18.03125 -34.8125 C 18.9375 -36.226562 19.785156 -37.660156 20.578125 -39.109375 C 21.378906 -40.554688 22.109375 -42.046875 22.765625 -43.578125 C 23.097656 -44.367188 23.414062 -45.171875 23.71875 -45.984375 C 24.03125 -46.804688 24.296875 -47.640625 24.515625 -48.484375 C 24.585938 -48.765625 24.6875 -49.160156 24.8125 -49.671875 C 24.9375 -50.179688 25.007812 -50.679688 25.03125 -51.171875 C 25.050781 -51.660156 24.929688 -52.015625 24.671875 -52.234375 C 24.421875 -52.453125 24.148438 -52.429688 23.859375 -52.171875 C 23.566406 -51.921875 23.285156 -51.59375 23.015625 -51.1875 C 22.742188 -50.789062 22.535156 -50.488281 22.390625 -50.28125 C 22.421875 -50.3125 22.398438 -50.253906 22.328125 -50.109375 L 22.328125 -50.171875 C 22.328125 -50.128906 22.316406 -50.109375 22.296875 -50.109375 C 22.285156 -50.109375 22.28125 -50.109375 22.28125 -50.109375 Z M 8.609375 -23.359375 L 8.546875 -23.203125 C 8.515625 -23.054688 8.46875 -22.828125 8.40625 -22.515625 C 8.351562 -22.210938 8.347656 -22.0625 8.390625 -22.0625 C 8.347656 -22.0625 8.425781 -22.359375 8.625 -22.953125 C 8.832031 -23.554688 9.078125 -24.25 9.359375 -25.03125 C 9.648438 -25.8125 9.921875 -26.523438 10.171875 -27.171875 C 10.429688 -27.828125 10.582031 -28.226562 10.625 -28.375 C 10.84375 -28.957031 11.09375 -29.507812 11.375 -30.03125 C 11.664062 -30.5625 11.90625 -31.117188 12.09375 -31.703125 C 12.3125 -32.316406 12.554688 -32.90625 12.828125 -33.46875 C 13.097656 -34.03125 13.378906 -34.601562 13.671875 -35.1875 C 13.816406 -35.476562 14.160156 -36.160156 14.703125 -37.234375 C 15.253906 -38.304688 15.875 -39.53125 16.5625 -40.90625 C 17.25 -42.28125 17.914062 -43.640625 18.5625 -44.984375 C 19.21875 -46.328125 19.742188 -47.453125 20.140625 -48.359375 C 20.546875 -49.273438 20.710938 -49.75 20.640625 -49.78125 C 20.609375 -49.78125 20.410156 -49.441406 20.046875 -48.765625 C 19.679688 -48.097656 19.222656 -47.253906 18.671875 -46.234375 C 18.128906 -45.222656 17.585938 -44.191406 17.046875 -43.140625 C 16.503906 -42.085938 16.023438 -41.148438 15.609375 -40.328125 C 15.191406 -39.515625 14.925781 -39 14.8125 -38.78125 C 14.269531 -37.65625 13.679688 -36.53125 13.046875 -35.40625 C 12.410156 -34.28125 11.875 -33.117188 11.4375 -31.921875 C 10.96875 -30.503906 10.441406 -29.09375 9.859375 -27.6875 C 9.273438 -26.289062 8.859375 -24.847656 8.609375 -23.359375 Z M 12.359375 -27.1875 C 12.503906 -27.394531 12.632812 -27.554688 12.75 -27.671875 C 12.675781 -27.597656 12.609375 -27.515625 12.546875 -27.421875 C 12.492188 -27.328125 12.429688 -27.25 12.359375 -27.1875 Z M 22.28125 -50.0625 L 22.328125 -50.109375 L 22.28125 -50.109375 Z M 8.609375 -23.3125 C 8.609375 -23.28125 8.597656 -23.265625 8.578125 -23.265625 C 8.554688 -23.265625 8.546875 -23.242188 8.546875 -23.203125 C 8.546875 -23.203125 8.554688 -23.210938 8.578125 -23.234375 C 8.597656 -23.253906 8.609375 -23.28125 8.609375 -23.3125 Z M 8.609375 -23.3125 "/></g></g></g><g fill="#ffffff" fill-opacity="1"><g transform="translate(218.351234, 57.132229)"><g><path d="M 14.265625 -13.40625 C 14.378906 -12.894531 14.265625 -12.363281 13.921875 -11.8125 C 13.578125 -11.269531 13.257812 -10.816406 12.96875 -10.453125 C 12.488281 -9.765625 12.019531 -9.09375 11.5625 -8.4375 C 11.113281 -7.789062 10.632812 -7.140625 10.125 -6.484375 C 9.582031 -5.753906 8.957031 -4.914062 8.25 -3.96875 C 7.539062 -3.03125 6.71875 -2.453125 5.78125 -2.234375 C 5.632812 -2.234375 5.359375 -2.273438 4.953125 -2.359375 C 4.554688 -2.453125 4.1875 -2.5625 3.84375 -2.6875 C 3.5 -2.820312 3.328125 -2.941406 3.328125 -3.046875 L 3.4375 -3.046875 C 3.21875 -3.160156 3.132812 -3.160156 3.1875 -3.046875 C 3.238281 -2.941406 3.101562 -3.015625 2.78125 -3.265625 C 2.519531 -3.453125 2.304688 -3.648438 2.140625 -3.859375 C 1.984375 -4.078125 1.816406 -4.316406 1.640625 -4.578125 C 1.347656 -4.972656 1.035156 -5.367188 0.703125 -5.765625 C 0.378906 -6.171875 0.160156 -6.609375 0.046875 -7.078125 C 0.046875 -7.191406 0.0351562 -7.425781 0.015625 -7.78125 C 0.00390625 -8.144531 0.015625 -8.488281 0.046875 -8.8125 C 0.0859375 -9.144531 0.179688 -9.3125 0.328125 -9.3125 C 0.398438 -9.3125 0.414062 -9.265625 0.375 -9.171875 C 0.34375 -9.085938 0.34375 -9.046875 0.375 -9.046875 L 0.546875 -10.015625 C 0.472656 -9.910156 0.414062 -9.835938 0.375 -9.796875 C 0.34375 -9.796875 0.363281 -9.992188 0.4375 -10.390625 C 0.507812 -10.796875 0.609375 -11.269531 0.734375 -11.8125 C 0.859375 -12.363281 0.972656 -12.851562 1.078125 -13.28125 C 1.191406 -13.71875 1.269531 -13.972656 1.3125 -14.046875 C 1.53125 -14.628906 1.738281 -15.210938 1.9375 -15.796875 C 2.132812 -16.378906 2.503906 -16.832031 3.046875 -17.15625 C 3.453125 -17.445312 3.90625 -17.570312 4.40625 -17.53125 C 4.914062 -17.5 5.425781 -17.375 5.9375 -17.15625 C 6.15625 -17.082031 6.488281 -16.925781 6.9375 -16.6875 C 7.394531 -16.457031 7.625 -16.195312 7.625 -15.90625 C 7.625 -15.757812 7.566406 -15.648438 7.453125 -15.578125 C 7.347656 -15.503906 7.257812 -15.429688 7.1875 -15.359375 C 7.226562 -15.398438 7.300781 -15.421875 7.40625 -15.421875 C 7.476562 -15.378906 7.382812 -15.15625 7.125 -14.75 C 6.875 -14.351562 6.710938 -14.175781 6.640625 -14.21875 C 6.609375 -14.21875 6.609375 -14.269531 6.640625 -14.375 C 6.679688 -14.488281 6.71875 -14.582031 6.75 -14.65625 C 5.738281 -12.976562 4.882812 -11.144531 4.1875 -9.15625 C 4.300781 -9.40625 4.484375 -9.828125 4.734375 -10.421875 C 4.992188 -11.023438 5.257812 -11.585938 5.53125 -12.109375 C 5.800781 -12.640625 5.953125 -12.890625 5.984375 -12.859375 C 6.023438 -12.859375 5.9375 -12.628906 5.71875 -12.171875 C 5.5 -11.722656 5.234375 -11.148438 4.921875 -10.453125 C 4.617188 -9.765625 4.347656 -9.066406 4.109375 -8.359375 C 3.878906 -7.648438 3.753906 -7.015625 3.734375 -6.453125 C 3.710938 -5.890625 3.882812 -5.519531 4.25 -5.34375 C 4.539062 -5.195312 4.875 -5.210938 5.25 -5.390625 C 5.632812 -5.578125 6.007812 -5.8125 6.375 -6.09375 C 6.738281 -6.382812 7.007812 -6.601562 7.1875 -6.75 C 7.695312 -7.15625 8.269531 -7.601562 8.90625 -8.09375 C 9.539062 -8.582031 10.039062 -9.0625 10.40625 -9.53125 C 10.332031 -9.457031 10.203125 -9.421875 10.015625 -9.421875 C 9.984375 -9.492188 10.082031 -9.726562 10.3125 -10.125 C 10.550781 -10.53125 10.859375 -10.984375 11.234375 -11.484375 C 11.617188 -11.992188 11.984375 -12.457031 12.328125 -12.875 C 12.679688 -13.300781 12.910156 -13.546875 13.015625 -13.609375 C 13.203125 -13.753906 13.445312 -13.84375 13.75 -13.875 C 14.0625 -13.914062 14.234375 -13.757812 14.265625 -13.40625 Z M 4.734375 -20.265625 C 4.734375 -20.265625 4.675781 -20.34375 4.5625 -20.5 C 4.457031 -20.664062 4.40625 -20.769531 4.40625 -20.8125 C 4.40625 -20.882812 4.394531 -21.0625 4.375 -21.34375 C 4.363281 -21.632812 4.382812 -21.90625 4.4375 -22.15625 C 4.488281 -22.414062 4.609375 -22.492188 4.796875 -22.390625 C 4.796875 -22.460938 4.894531 -22.613281 5.09375 -22.84375 C 5.289062 -23.082031 5.300781 -23.019531 5.125 -22.65625 C 5.59375 -23.269531 6.023438 -24.015625 6.421875 -24.890625 L 5.78125 -23.90625 C 6.03125 -24.414062 6.300781 -25.0625 6.59375 -25.84375 C 6.882812 -26.625 7.046875 -27.101562 7.078125 -27.28125 C 7.078125 -27.320312 7.066406 -27.429688 7.046875 -27.609375 C 7.035156 -27.796875 7.046875 -27.90625 7.078125 -27.9375 C 6.492188 -28.15625 6.3125 -28.410156 6.53125 -28.703125 C 6.75 -28.992188 6.988281 -29.226562 7.25 -29.40625 C 7.132812 -29.40625 7.0625 -29.441406 7.03125 -29.515625 C 6.914062 -29.628906 6.96875 -29.722656 7.1875 -29.796875 C 7.40625 -29.867188 7.550781 -29.921875 7.625 -29.953125 C 8.019531 -30.140625 8.4375 -30.195312 8.875 -30.125 C 9.3125 -30.050781 9.710938 -29.921875 10.078125 -29.734375 C 10.367188 -29.554688 10.640625 -29.285156 10.890625 -28.921875 C 11.148438 -28.554688 11.332031 -28.210938 11.4375 -27.890625 C 11.550781 -27.523438 11.503906 -27.160156 11.296875 -26.796875 C 11.097656 -26.429688 10.875 -26.140625 10.625 -25.921875 C 10.507812 -25.816406 10.367188 -25.71875 10.203125 -25.625 C 10.046875 -25.53125 9.894531 -25.429688 9.75 -25.328125 C 9.601562 -25.148438 9.507812 -24.941406 9.46875 -24.703125 C 9.4375 -24.460938 9.347656 -24.253906 9.203125 -24.078125 C 9.128906 -23.929688 9.019531 -23.820312 8.875 -23.75 C 8.726562 -23.675781 8.617188 -23.566406 8.546875 -23.421875 C 8.328125 -23.273438 8.3125 -23.113281 8.5 -22.9375 C 8.28125 -22.820312 8.097656 -22.691406 7.953125 -22.546875 C 7.703125 -22.109375 7.46875 -21.753906 7.25 -21.484375 C 7.03125 -21.210938 6.753906 -20.953125 6.421875 -20.703125 C 6.710938 -20.878906 6.976562 -21.066406 7.21875 -21.265625 C 7.457031 -21.460938 7.703125 -21.742188 7.953125 -22.109375 C 8.390625 -22.660156 8.914062 -23.0625 9.53125 -23.3125 C 9.28125 -23.019531 9.082031 -22.707031 8.9375 -22.375 C 8.789062 -22.050781 8.550781 -21.78125 8.21875 -21.5625 C 8 -21.457031 7.878906 -21.429688 7.859375 -21.484375 C 7.847656 -21.535156 7.84375 -21.570312 7.84375 -21.59375 C 7.84375 -21.613281 7.71875 -21.515625 7.46875 -21.296875 C 7.46875 -21.296875 7.507812 -21.304688 7.59375 -21.328125 C 7.6875 -21.347656 7.695312 -21.320312 7.625 -21.25 C 7.375 -21.03125 7.117188 -20.773438 6.859375 -20.484375 C 6.609375 -20.191406 6.316406 -19.972656 5.984375 -19.828125 C 5.847656 -19.785156 5.707031 -19.726562 5.5625 -19.65625 C 5.414062 -19.582031 5.25 -19.582031 5.0625 -19.65625 C 4.882812 -19.769531 4.800781 -19.878906 4.8125 -19.984375 C 4.832031 -20.097656 4.804688 -20.191406 4.734375 -20.265625 Z M 3.703125 -7.296875 C 3.742188 -7.367188 3.742188 -7.390625 3.703125 -7.359375 L 3.59375 -6.921875 L 3.703125 -7.25 Z M 5.5 -23.46875 L 5.71875 -23.796875 C 5.6875 -23.691406 5.640625 -23.609375 5.578125 -23.546875 C 5.523438 -23.492188 5.5 -23.46875 5.5 -23.46875 Z M 4.953125 -22.4375 C 4.921875 -22.40625 4.882812 -22.390625 4.84375 -22.390625 C 4.882812 -22.390625 4.90625 -22.378906 4.90625 -22.359375 C 4.90625 -22.335938 4.90625 -22.328125 4.90625 -22.328125 C 4.9375 -22.367188 4.953125 -22.40625 4.953125 -22.4375 Z M 4.953125 -22.4375 "/></g></g></g><g fill="#ffffff" fill-opacity="1"><g transform="translate(228.646034, 57.132229)"><g><path d="M 21.78125 -13.890625 C 22.21875 -14.328125 22.523438 -14.453125 22.703125 -14.265625 C 22.890625 -14.085938 22.992188 -13.789062 23.015625 -13.375 C 23.035156 -12.957031 23.007812 -12.601562 22.9375 -12.3125 C 22.789062 -11.726562 22.550781 -11.15625 22.21875 -10.59375 C 21.894531 -10.03125 21.570312 -9.476562 21.25 -8.9375 C 20.445312 -7.625 19.660156 -6.285156 18.890625 -4.921875 C 18.128906 -3.566406 17.296875 -2.234375 16.390625 -0.921875 C 15.410156 0.492188 14.382812 1.898438 13.3125 3.296875 C 12.238281 4.691406 11.066406 6.007812 9.796875 7.25 C 9.109375 7.894531 8.328125 8.460938 7.453125 8.953125 C 6.585938 9.453125 5.707031 9.691406 4.8125 9.671875 C 3.925781 9.648438 3.046875 9.257812 2.171875 8.5 C 1.410156 7.769531 0.875 6.90625 0.5625 5.90625 C 0.257812 4.90625 0.0859375 3.851562 0.046875 2.75 C 0.015625 1.644531 0.015625 0.617188 0.046875 -0.328125 C 0.160156 -1.847656 0.390625 -3.351562 0.734375 -4.84375 C 1.078125 -6.332031 1.429688 -7.804688 1.796875 -9.265625 C 1.835938 -9.335938 1.859375 -9.609375 1.859375 -10.078125 C 1.859375 -10.546875 1.925781 -10.875 2.0625 -11.0625 C 2.03125 -11.019531 2.015625 -10.914062 2.015625 -10.75 C 2.015625 -10.59375 1.992188 -10.421875 1.953125 -10.234375 C 2.023438 -10.421875 2.085938 -10.613281 2.140625 -10.8125 C 2.203125 -11.007812 2.269531 -11.203125 2.34375 -11.390625 L 2.171875 -11.390625 C 2.097656 -11.929688 2.195312 -12.570312 2.46875 -13.3125 C 2.75 -14.0625 2.960938 -14.691406 3.109375 -15.203125 C 3.285156 -15.816406 3.484375 -16.445312 3.703125 -17.09375 C 3.921875 -17.75 4.140625 -18.390625 4.359375 -19.015625 C 4.753906 -20.171875 5.171875 -21.328125 5.609375 -22.484375 C 6.046875 -23.648438 6.445312 -24.816406 6.8125 -25.984375 C 7.175781 -27.140625 7.609375 -28.28125 8.109375 -29.40625 C 8.617188 -30.539062 9.148438 -31.648438 9.703125 -32.734375 C 10.203125 -33.785156 10.742188 -34.820312 11.328125 -35.84375 C 11.398438 -35.945312 11.546875 -36.207031 11.765625 -36.625 C 11.984375 -37.039062 12.21875 -37.445312 12.46875 -37.84375 C 12.726562 -38.25 12.894531 -38.4375 12.96875 -38.40625 L 12.53125 -37.46875 L 14.265625 -40.46875 L 14.21875 -40.421875 C 14.363281 -40.640625 14.515625 -40.921875 14.671875 -41.265625 C 14.835938 -41.609375 14.992188 -41.851562 15.140625 -42 L 16.390625 -43.6875 C 16.796875 -44.15625 17.234375 -44.660156 17.703125 -45.203125 C 18.171875 -45.753906 18.71875 -46.117188 19.34375 -46.296875 C 20.132812 -46.546875 20.863281 -46.488281 21.53125 -46.125 C 22.207031 -45.769531 22.765625 -45.242188 23.203125 -44.546875 C 23.640625 -43.859375 23.910156 -43.15625 24.015625 -42.4375 L 24.078125 -42.375 L 24.078125 -42.109375 C 24.179688 -41.015625 24.070312 -39.867188 23.75 -38.671875 C 23.425781 -37.472656 23.007812 -36.300781 22.5 -35.15625 C 21.988281 -34.007812 21.476562 -32.96875 20.96875 -32.03125 C 20.53125 -31.15625 20.066406 -30.234375 19.578125 -29.265625 C 19.085938 -28.304688 18.5 -27.46875 17.8125 -26.75 C 17.34375 -26.238281 16.960938 -25.703125 16.671875 -25.140625 C 16.378906 -24.578125 16.03125 -23.984375 15.625 -23.359375 C 14.613281 -21.691406 13.546875 -20.039062 12.421875 -18.40625 C 11.296875 -16.769531 10.113281 -15.191406 8.875 -13.671875 C 8.582031 -13.304688 8.335938 -12.96875 8.140625 -12.65625 C 7.941406 -12.351562 7.769531 -11.945312 7.625 -11.4375 C 7.476562 -10.925781 7.332031 -10.40625 7.1875 -9.875 C 7.039062 -9.351562 6.894531 -8.820312 6.75 -8.28125 C 6.601562 -7.738281 6.457031 -7.191406 6.3125 -6.640625 C 6.164062 -6.097656 6.019531 -5.554688 5.875 -5.015625 C 5.84375 -4.753906 5.734375 -4.351562 5.546875 -3.8125 C 5.367188 -3.269531 5.300781 -2.960938 5.34375 -2.890625 C 5.195312 -2.265625 5.085938 -1.59375 5.015625 -0.875 L 5.453125 -2.5 C 5.597656 -2.28125 5.601562 -1.863281 5.46875 -1.25 C 5.34375 -0.632812 5.265625 -0.203125 5.234375 0.046875 C 5.117188 0.847656 5.0625 1.703125 5.0625 2.609375 C 5.0625 2.941406 5.078125 3.378906 5.109375 3.921875 C 5.148438 4.460938 5.269531 4.957031 5.46875 5.40625 C 5.675781 5.863281 5.992188 6.128906 6.421875 6.203125 C 7.046875 6.273438 7.664062 6.078125 8.28125 5.609375 C 8.894531 5.140625 9.457031 4.59375 9.96875 3.96875 C 10.476562 3.351562 10.878906 2.863281 11.171875 2.5 C 12.296875 1.15625 13.335938 -0.25 14.296875 -1.71875 C 15.253906 -3.1875 16.191406 -4.644531 17.109375 -6.09375 C 17.609375 -6.863281 18.085938 -7.628906 18.546875 -8.390625 C 19.003906 -9.148438 19.46875 -9.929688 19.9375 -10.734375 C 20.226562 -11.242188 20.519531 -11.796875 20.8125 -12.390625 C 21.101562 -12.992188 21.425781 -13.492188 21.78125 -13.890625 Z M 14.984375 -33.390625 C 13.960938 -30.953125 13.039062 -28.460938 12.21875 -25.921875 C 11.40625 -23.378906 10.597656 -20.910156 9.796875 -18.515625 C 11.835938 -21.742188 13.882812 -25.070312 15.9375 -28.5 C 17.988281 -31.9375 19.628906 -35.472656 20.859375 -39.109375 C 20.390625 -37.796875 19.835938 -36.515625 19.203125 -35.265625 C 18.566406 -34.015625 17.941406 -32.789062 17.328125 -31.59375 C 16.960938 -30.90625 16.585938 -30.222656 16.203125 -29.546875 C 15.816406 -28.878906 15.425781 -28.195312 15.03125 -27.5 C 14.78125 -27.101562 14.460938 -26.625 14.078125 -26.0625 C 13.703125 -25.5 13.421875 -25 13.234375 -24.5625 C 13.453125 -25.289062 13.832031 -26.035156 14.375 -26.796875 C 14.925781 -27.554688 15.378906 -28.265625 15.734375 -28.921875 L 18.03125 -33.171875 C 18.6875 -34.472656 19.40625 -35.894531 20.1875 -37.4375 C 20.96875 -38.988281 21.375 -40.523438 21.40625 -42.046875 L 21.40625 -42.109375 C 21.4375 -42.828125 21.332031 -43.210938 21.09375 -43.265625 C 20.863281 -43.328125 20.578125 -43.210938 20.234375 -42.921875 C 19.890625 -42.628906 19.570312 -42.289062 19.28125 -41.90625 C 18.988281 -41.53125 18.789062 -41.269531 18.6875 -41.125 C 17.914062 -39.882812 17.238281 -38.609375 16.65625 -37.296875 C 16.082031 -35.992188 15.523438 -34.691406 14.984375 -33.390625 Z M 13.234375 -37.203125 C 12.941406 -36.617188 12.660156 -36.054688 12.390625 -35.515625 C 12.117188 -34.972656 11.859375 -34.390625 11.609375 -33.765625 C 11.566406 -33.734375 11.546875 -33.660156 11.546875 -33.546875 C 12.160156 -34.640625 12.796875 -35.722656 13.453125 -36.796875 C 14.109375 -37.867188 14.726562 -38.96875 15.3125 -40.09375 C 15.050781 -39.613281 14.710938 -39.140625 14.296875 -38.671875 C 13.878906 -38.203125 13.523438 -37.710938 13.234375 -37.203125 Z M 2.9375 -9.046875 C 2.976562 -9.078125 3 -9.117188 3 -9.171875 C 3 -9.234375 2.960938 -9.242188 2.890625 -9.203125 C 2.773438 -9.203125 2.65625 -8.957031 2.53125 -8.46875 C 2.40625 -7.976562 2.304688 -7.425781 2.234375 -6.8125 L 2.234375 -6.859375 C 2.046875 -5.921875 1.898438 -4.953125 1.796875 -3.953125 C 1.691406 -2.953125 1.601562 -1.960938 1.53125 -0.984375 L 1.6875 -2.71875 L 1.6875 -2.5625 C 1.6875 -2.738281 1.703125 -2.914062 1.734375 -3.09375 C 1.773438 -3.28125 1.816406 -3.46875 1.859375 -3.65625 C 2.035156 -4.488281 2.164062 -5.375 2.25 -6.3125 C 2.34375 -7.257812 2.554688 -8.113281 2.890625 -8.875 C 2.890625 -8.875 2.890625 -8.890625 2.890625 -8.921875 C 2.890625 -8.960938 2.90625 -9.003906 2.9375 -9.046875 Z M 2.9375 -9.046875 "/></g></g></g></svg>