<svg version="1.1" id="Layer_1" xmlns="http://www.w3.org/2000/svg" xmlns:xlink="http://www.w3.org/1999/xlink" x="0px" y="0px"
	 width="100%" viewBox="0 0 567 172" enable-background="new 0 0 567 172" xml:space="preserve">
<path fill="#22083E" opacity="1.000000" stroke="none" 
	d="
M370.000000,173.000000 
	C246.666672,173.000000 123.833336,173.000000 1.000000,173.000000 
	C1.000000,115.666664 1.000000,58.333332 1.000000,1.000000 
	C190.000000,1.000000 379.000000,1.000000 568.000000,1.000000 
	C568.000000,58.333332 568.000000,115.666664 568.000000,173.000000 
	C502.166656,173.000000 436.333344,173.000000 370.000000,173.000000 
M94.099968,102.525497 
	C94.145866,101.993927 94.191772,101.462349 94.686546,100.299416 
	C95.275177,98.116768 95.863808,95.934113 96.908051,93.328041 
	C97.066154,92.531662 97.224251,91.735291 97.843323,90.314980 
	C106.308517,72.603912 114.770386,54.891258 123.245499,37.184944 
	C123.890549,35.837292 124.932655,34.594711 125.211594,33.188519 
	C125.380203,32.338516 124.657410,30.969299 123.905891,30.401739 
	C123.419594,30.034477 121.861450,30.399843 121.307396,30.957409 
	C120.277046,31.994272 119.635460,33.415344 118.821434,34.669594 
	C110.933762,46.822830 103.498940,59.302162 95.044868,71.047836 
	C83.236000,87.454498 70.210770,102.961159 52.991089,114.047180 
	C47.659439,117.479691 41.361992,119.752968 35.202488,121.457764 
	C29.627691,123.000725 27.105482,120.472565 28.210701,114.706039 
	C29.264961,109.205399 30.896276,103.616516 33.397083,98.629677 
	C40.563599,84.338936 48.399555,70.385712 55.771992,56.195709 
	C59.760185,48.519485 63.653828,40.759155 66.918648,32.762615 
	C67.947189,30.243389 67.905518,25.336103 66.370094,24.198122 
	C64.290253,22.656641 59.565258,22.476313 57.272602,23.860834 
	C51.369671,27.425581 46.098412,32.074715 40.783901,36.539509 
	C39.844555,37.328667 39.915321,39.320183 39.519627,40.756454 
	C41.096371,40.459213 43.055458,40.653351 44.181637,39.777058 
	C48.371735,36.516697 52.159508,32.736641 56.372627,29.509838 
	C57.981823,28.277365 60.329720,28.009384 62.340977,27.301865 
	C62.715816,27.739223 63.090656,28.176582 63.465500,28.613943 
	C61.523117,33.150604 59.890747,37.852226 57.580776,42.193283 
	C50.380096,55.725281 42.573204,68.944847 35.687733,82.630875 
	C31.068367,91.812637 26.752670,101.327026 23.860947,111.151703 
	C20.399920,122.910583 26.217525,128.447861 38.262421,126.008713 
	C41.808140,125.290695 45.418747,124.073807 48.546146,122.290367 
	C54.023487,119.166824 59.790237,116.100281 64.293152,111.810509 
	C74.259148,102.316216 83.516113,92.077652 93.769081,82.330002 
	C93.736069,84.241394 93.703056,86.152786 93.217827,88.664192 
	C92.681496,90.534012 92.145164,92.403824 91.115547,94.765762 
	C90.692177,96.532700 90.268814,98.299629 89.463387,100.669632 
	C89.392731,101.135040 89.322075,101.600449 88.849129,102.454247 
	C88.827423,102.991852 88.805725,103.529465 88.417961,104.672905 
	C88.358139,105.136108 88.298317,105.599312 87.841560,106.455063 
	C87.829964,106.992401 87.818367,107.529732 87.454041,108.683517 
	C87.408722,109.149696 87.363411,109.615868 86.964035,110.349686 
	C86.950340,110.908195 86.936646,111.466713 86.623741,112.518639 
	C86.587891,113.086105 86.552040,113.653572 86.109947,114.653214 
	C86.016342,115.788452 85.922737,116.923698 85.522568,118.706703 
	C84.972870,123.824554 85.222313,124.136948 89.669838,122.846260 
	C89.852264,121.541779 90.034698,120.237305 90.609390,118.256165 
	C90.669846,117.485825 90.730293,116.715477 91.124001,115.515022 
	C91.119141,114.987518 91.114281,114.460007 91.502213,113.252251 
	C91.595299,112.482483 91.688393,111.712708 92.123741,110.518661 
	C92.141663,109.989403 92.159584,109.460152 92.579178,108.336586 
	C92.627335,107.867210 92.675499,107.397842 93.087654,106.520248 
	C93.114532,105.990364 93.141411,105.460472 93.573151,104.338058 
	C93.624596,103.868492 93.676033,103.398926 94.099968,102.525497 
M114.050514,97.888351 
	C113.996925,99.931915 113.943336,101.975487 113.536613,104.338318 
	C113.867439,104.935913 114.198265,105.533508 114.932953,106.726875 
	C118.774124,111.286148 122.507484,112.380424 127.615463,109.563049 
	C131.369141,107.492653 134.667099,104.595970 138.893646,102.097008 
	C139.617905,102.066460 140.342163,102.035912 141.006012,102.661720 
	C140.830582,103.062439 140.655151,103.463150 139.963699,104.049911 
	C140.126114,105.082863 140.288528,106.115814 141.058121,107.636276 
	C142.419861,107.041138 144.293686,106.806892 145.025818,105.768036 
	C146.184296,104.124222 146.577988,101.941437 148.215363,100.394341 
	C148.814316,100.696861 149.413254,100.999390 150.426208,101.636711 
	C158.284973,110.744278 162.389450,110.721802 180.757462,101.470642 
	C183.690170,107.230530 186.489517,107.945000 191.962555,103.991142 
	C194.585297,102.096428 196.903275,99.779816 198.865067,98.081978 
	C200.645889,102.200882 201.343811,107.779121 204.314987,109.555817 
	C207.200623,111.281380 212.418472,109.106766 216.181168,108.692337 
	C216.864395,109.959030 217.748642,111.598419 218.632889,113.237816 
	C220.122849,111.908424 221.951462,110.806473 223.029953,109.200729 
	C225.066132,106.169098 226.414688,102.667038 228.514740,99.688896 
	C231.664566,95.222069 234.835693,90.653168 238.700058,86.839241 
	C242.818176,82.774879 245.471603,83.460686 249.841782,87.174385 
	C251.693527,88.747963 254.604126,90.319199 256.764160,90.010017 
	C260.492188,89.476387 261.987488,91.281143 262.256561,93.975883 
	C262.406097,95.473412 260.829407,97.493462 259.513855,98.726494 
	C253.831390,104.052361 247.721207,108.945221 242.315887,114.527458 
	C240.914719,115.974495 240.383392,120.187386 241.460648,121.622231 
	C242.797653,123.403107 246.301804,124.546158 248.729980,124.337379 
	C256.746704,123.648132 268.661255,111.663040 269.646881,103.539261 
	C270.040466,100.295303 269.951660,97.387779 273.751282,96.009216 
	C276.689880,94.943039 279.419739,93.301590 282.242371,91.915886 
	C282.427582,95.060089 281.470337,97.031960 281.188232,99.096115 
	C280.782593,102.064110 276.682495,105.756172 280.921539,107.874985 
	C284.766876,109.796967 285.599976,104.720970 287.582336,102.599655 
	C290.754150,99.205544 293.394836,95.272003 296.790497,92.142014 
	C300.320282,88.888420 302.032318,89.650154 303.277039,94.178955 
	C303.497803,94.982079 303.690308,95.792946 303.900146,96.599113 
	C306.497803,106.576660 312.353760,109.651848 321.314514,104.308601 
	C327.331696,100.720596 332.262909,95.258217 337.458099,90.397240 
	C338.320709,89.590103 338.044495,87.565842 338.294525,86.104004 
	C336.753815,86.555725 334.835785,86.577507 333.741516,87.537888 
	C330.121185,90.715286 327.054535,94.551437 323.308960,97.552628 
	C314.773193,104.391930 310.993317,103.103264 308.205994,92.872696 
	C308.162201,92.711922 308.117126,92.551506 308.071625,92.391228 
	C305.855408,84.585434 300.081421,82.926010 293.894226,88.275482 
	C292.693024,89.314049 291.332092,90.167854 290.044830,91.106873 
	C289.892944,88.698509 290.573364,87.154121 291.290405,85.626923 
	C297.370087,72.677673 303.432098,59.720001 309.568848,46.797813 
	C310.420959,45.003498 311.870239,43.478920 312.620575,41.655609 
	C313.036926,40.643944 312.578461,39.272282 312.514313,38.062878 
	C311.203644,38.383404 309.673248,38.391003 308.644592,39.113209 
	C307.632904,39.823490 307.004578,41.197418 306.423645,42.385551 
	C300.211945,55.090237 294.055847,67.822113 287.846588,80.528015 
	C287.061951,82.133682 286.437714,84.338921 285.092865,85.058464 
	C279.587524,88.003975 273.831665,90.481262 267.764404,93.319771 
	C266.412811,90.117805 265.257294,87.380302 264.490936,85.564667 
	C266.823425,84.596626 268.459717,83.917511 270.096039,83.238396 
	C269.039978,81.356636 268.437103,78.748833 266.831879,77.746956 
	C263.663605,75.769554 259.918335,78.003448 258.810699,82.447418 
	C257.954132,85.884117 255.799728,86.492599 253.990311,84.292580 
	C250.253571,79.749168 245.771179,78.430786 241.324890,79.608116 
	C240.477570,77.172920 239.864944,75.412262 239.252335,73.651588 
	C237.745422,74.940590 236.161987,76.153114 234.764481,77.551460 
	C234.083862,78.232475 233.704102,79.237869 233.266891,80.134811 
	C228.692062,89.520439 221.396179,96.541656 213.349869,102.862785 
	C211.511002,104.307396 209.268997,105.238876 206.128937,107.021790 
	C205.862213,103.097076 205.163956,100.434219 205.623077,97.988647 
	C206.569794,92.945885 208.265152,88.047745 209.363770,83.026932 
	C209.688797,81.541512 209.605011,78.897057 208.758514,78.399261 
	C203.449387,75.277122 197.372162,76.493622 192.512558,81.403961 
	C188.893723,85.060593 185.745880,89.219032 181.914017,92.619568 
	C177.723969,96.337997 173.250854,99.899826 168.410385,102.673477 
	C164.264236,105.049248 159.774994,104.472069 156.249191,100.505539 
	C159.595673,97.820015 163.225632,95.624786 165.819260,92.554199 
	C167.354599,90.736496 168.591171,86.454613 167.581161,85.204765 
	C165.969803,83.210686 162.443832,82.473373 159.587936,81.903076 
	C158.245499,81.635002 156.578415,82.992531 154.264313,83.331505 
	C153.963303,82.867210 153.662308,82.402908 153.840912,81.342842 
	C156.306290,75.693787 158.567368,69.940796 161.356995,64.456680 
	C162.235672,62.729317 164.359253,61.362995 166.219833,60.472027 
	C168.914963,59.181423 170.528320,58.198837 166.749420,55.299019 
	C166.569427,54.840210 166.389435,54.381397 166.758942,53.408989 
	C168.985413,49.518456 171.211868,45.627918 173.961761,41.383862 
	C173.640167,40.261761 173.318573,39.139660 172.296509,37.696262 
	C171.069534,38.660473 169.505829,39.399323 168.680557,40.632378 
	C166.462921,43.945759 164.198608,47.314274 162.630814,50.953011 
	C160.908005,54.951542 158.338699,56.999851 153.557190,56.668026 
	C152.725372,56.846809 151.893555,57.025593 150.263000,57.115593 
	C147.850067,57.381550 145.437149,57.647507 142.655228,57.673889 
	C142.115051,57.820442 141.574860,57.966999 140.252487,58.008537 
	C137.265244,58.339401 137.859314,56.925282 138.834717,55.200718 
	C141.013748,51.348091 143.137268,47.464073 145.824219,43.247478 
	C145.605255,42.042809 145.386292,40.838139 144.657135,39.191463 
	C143.427979,40.053349 141.850952,40.670601 141.038666,41.825653 
	C139.060699,44.638248 137.100800,47.554623 135.742920,50.692841 
	C133.088730,56.827011 129.108643,60.572849 121.654060,59.679462 
	C121.113586,59.821823 120.573105,59.964184 119.212593,60.011097 
	C117.434631,60.188793 115.468544,59.971668 113.950546,60.694950 
	C113.065536,61.116627 112.897728,63.043503 112.697617,64.800751 
	C113.788826,64.836678 114.880035,64.872612 116.788696,64.996040 
	C119.855782,64.675774 122.922867,64.355515 126.849442,64.450859 
	C127.145142,64.568481 127.440842,64.686096 127.310951,65.559532 
	C123.762413,73.005936 120.213875,80.452332 116.079506,88.097649 
	C115.719788,89.731781 115.360069,91.365913 114.955330,93.650566 
	C114.806801,94.057373 114.658272,94.464188 114.035904,94.992920 
	C114.049782,95.665855 114.063652,96.338799 114.050514,97.888351 
M485.040649,22.452682 
	C473.834503,16.725906 461.848755,16.794847 449.847351,18.178839 
	C428.554901,20.634262 409.471558,29.172726 391.529266,40.470524 
	C389.497437,41.749908 385.273865,42.212791 387.307556,46.206608 
	C387.545990,46.674889 392.013367,45.664360 393.992859,44.467258 
	C414.207947,32.242306 435.359039,22.903271 459.488342,22.314905 
	C467.565613,22.117952 475.495789,22.839264 482.733124,26.868904 
	C492.103821,32.086407 494.574860,40.900101 488.356750,49.494469 
	C485.206268,53.848892 481.033356,57.768108 476.596222,60.831997 
	C461.187256,71.472122 443.576843,76.384140 425.307220,79.264778 
	C424.777008,79.348381 424.178009,78.995827 423.270996,78.757141 
	C423.750244,77.689926 424.023987,76.927895 424.415161,76.231865 
	C432.005920,62.725090 439.675293,49.261612 447.122986,35.676579 
	C447.974365,34.123642 447.600830,31.899178 447.795258,29.986067 
	C446.101562,31.145678 443.754730,31.923397 442.817932,33.525581 
	C435.587006,45.892174 428.404633,58.299141 421.684235,70.947044 
	C418.476685,76.983757 415.474792,82.252739 407.324402,81.115936 
	C406.210327,80.960541 404.832703,82.694237 403.577118,83.553284 
	C404.417603,84.657288 405.078461,85.997795 406.143188,86.806541 
	C407.532837,87.862061 409.242371,88.496429 410.989441,89.402885 
	C410.339752,90.720711 409.947266,91.623695 409.466095,92.476669 
	C403.490356,103.069466 397.443207,113.622925 391.600830,124.288589 
	C390.968323,125.443336 391.501953,127.236870 391.494659,128.734100 
	C392.951019,128.051010 394.910736,127.744476 395.760986,126.607948 
	C397.641052,124.094971 398.956757,121.160927 400.513733,118.404900 
	C405.486053,109.603394 410.463531,100.804764 415.841736,91.292633 
	C424.800354,96.928932 433.147644,102.335152 441.648499,107.488129 
	C451.327942,113.355553 461.096741,119.081787 470.965637,124.621918 
	C472.110870,125.264816 474.141052,124.331261 475.760956,124.128586 
	C475.060822,122.978600 474.640411,121.370102 473.618896,120.746956 
	C456.561707,110.341225 439.413025,100.085594 422.344604,89.698082 
	C420.974152,88.864059 420.041351,87.311005 418.905151,86.092094 
	C420.364288,85.519119 421.779083,84.637756 423.289368,84.420525 
	C439.722382,82.056870 455.849884,78.331963 470.363129,70.122406 
	C477.776337,65.929085 485.062958,60.702328 490.744751,54.435722 
	C500.836395,43.305363 498.345856,30.985531 485.040649,22.452682 
M495.816589,80.293381 
	C491.951965,86.610298 487.846130,92.800194 484.402374,99.338768 
	C483.601074,100.860176 484.356567,104.500954 485.659363,105.472977 
	C487.016846,106.485832 490.148621,106.010292 492.056580,105.169167 
	C494.411255,104.131111 496.341217,102.089661 498.381165,100.393318 
	C499.548889,99.422295 500.570526,98.275604 502.444153,96.436058 
	C502.585052,99.418266 502.622498,101.060616 502.746826,102.696358 
	C503.324738,110.297943 508.076935,113.062057 514.710022,109.194191 
	C518.549255,106.955467 521.870728,103.817314 525.374939,101.020973 
	C526.796936,99.886185 528.085327,98.583939 530.066589,96.783455 
	C528.839294,105.573357 523.114807,119.788628 516.633362,127.717567 
	C512.613831,132.634689 507.639587,137.100311 502.274170,140.459167 
	C499.278687,142.334427 492.300629,143.202988 491.144287,141.607162 
	C488.250946,137.614182 492.023102,133.136536 495.289856,130.661285 
	C500.354126,126.824005 506.308136,124.171707 511.813354,120.896713 
	C512.951599,120.219604 513.776489,119.015900 514.745789,118.054893 
	C513.564331,117.445358 512.350891,116.254860 511.206390,116.317772 
	C501.627533,116.844345 488.554199,127.315269 485.712738,136.499786 
	C483.436890,143.856216 487.042542,148.314636 494.713806,147.687317 
	C503.922852,146.934235 510.996796,142.278717 516.910400,135.549866 
	C526.027649,125.175568 531.192444,112.749680 535.044983,99.729935 
	C536.789062,93.835670 538.041687,87.784508 539.227478,81.747597 
	C539.429504,80.718933 538.165894,79.402374 537.579407,78.218811 
	C536.587708,79.102158 535.315186,79.818977 534.669495,80.907555 
	C533.682800,82.571045 533.565369,84.902237 532.314880,86.230789 
	C527.074402,91.798225 521.651917,97.207359 516.070251,102.433212 
	C514.245056,104.142006 511.734589,105.118843 508.259491,107.193359 
	C508.016968,102.938065 507.298645,99.965164 507.811890,97.222740 
	C508.724640,92.345665 510.538116,87.643143 511.633850,82.790604 
	C511.954407,81.370880 511.312378,78.408096 510.785950,78.329361 
	C505.906830,77.599503 500.702362,75.200966 495.816589,80.293381 
M299.027588,158.679138 
	C300.465332,157.468979 301.903076,156.258820 303.340790,155.048676 
	C303.091431,154.644333 302.842041,154.240005 302.592682,153.835663 
	C292.529480,153.835663 282.457214,154.090485 272.406860,153.731262 
	C267.154602,153.543533 264.387085,156.408722 260.935791,160.649475 
	C273.156799,160.649475 284.517212,160.680878 295.876587,160.586411 
	C296.731812,160.579300 297.579590,159.675156 299.027588,158.679138 
M244.120941,160.848373 
	C248.931061,161.259308 251.489365,158.398621 254.195221,153.885193 
	C243.596634,153.885193 233.832703,154.164886 224.095627,153.774628 
	C218.720398,153.559174 215.664902,156.230743 211.983856,160.849289 
	C223.069611,160.849289 233.136032,160.849289 244.120941,160.848373 
M339.245300,160.846481 
	C344.528290,161.402878 348.321838,159.432800 350.991364,153.879990 
	C340.336090,153.879990 330.381531,154.115585 320.445892,153.783890 
	C315.215790,153.609299 312.540009,156.545380 308.975952,160.846207 
	C319.463562,160.846207 328.883392,160.846207 339.245300,160.846481 
M540.720215,70.858437 
	C541.023560,69.425301 541.742676,67.916306 541.499390,66.582909 
	C541.303101,65.507088 540.062988,64.450478 539.023193,63.816063 
	C538.751343,63.650265 536.997803,64.973457 536.802246,65.816376 
	C536.382812,67.624405 536.535278,69.565109 536.453674,71.451500 
	C537.744568,71.442024 539.035400,71.432549 540.720215,70.858437 
z"/>
<path fill="#E7E4EA" opacity="1.000000" stroke="none" 
	d="
M147.295319,99.986725 
	C146.577988,101.941437 146.184296,104.124222 145.025818,105.768036 
	C144.293686,106.806892 142.419861,107.041138 140.812439,106.982742 
	C140.537750,105.507431 140.508728,104.685646 140.479721,103.863869 
	C140.655151,103.463150 140.830582,103.062439 141.282486,102.123062 
	C141.558960,100.808914 141.558960,100.033432 141.558960,98.251747 
	C139.985809,100.022049 139.076981,101.044785 138.168137,102.067520 
	C134.667099,104.595970 131.369141,107.492653 127.615463,109.563049 
	C122.507484,112.380424 118.774124,111.286148 114.801346,106.140549 
	C114.409744,105.042503 114.149750,104.530777 113.889755,104.019051 
	C113.943336,101.975487 113.996925,99.931915 114.278275,97.241699 
	C114.507271,96.020363 114.508507,95.445679 114.509743,94.870995 
	C114.658272,94.464188 114.806801,94.057373 115.222488,93.086533 
	C115.881554,90.981239 116.273445,89.439987 116.665344,87.898735 
	C120.213875,80.452332 123.762413,73.005936 127.614426,65.002396 
	C127.275253,64.308586 126.632599,64.171913 125.989952,64.035248 
	C122.922867,64.355515 119.855782,64.675774 116.073792,64.737488 
	C114.375000,64.417015 113.391113,64.355087 112.407242,64.293159 
	C112.897728,63.043503 113.065536,61.116627 113.950546,60.694950 
	C115.468544,59.971668 117.434631,60.188793 119.795090,60.232338 
	C120.925972,60.275326 121.474350,60.097065 122.022728,59.918808 
	C129.108643,60.572849 133.088730,56.827011 135.742920,50.692841 
	C137.100800,47.554623 139.060699,44.638248 141.038666,41.825653 
	C141.850952,40.670601 143.427979,40.053349 144.890198,39.907967 
	C145.176636,41.613930 145.230026,42.603390 145.283417,43.592842 
	C143.137268,47.464073 141.013748,51.348091 138.834717,55.200718 
	C137.859314,56.925282 137.265244,58.339401 140.817001,58.233421 
	C141.929077,58.276688 142.476654,58.095074 143.024216,57.913460 
	C145.437149,57.647507 147.850067,57.381550 150.882339,57.345787 
	C152.343750,57.351143 153.185822,57.126301 154.027893,56.901459 
	C158.338699,56.999851 160.908005,54.951542 162.630814,50.953011 
	C164.198608,47.314274 166.462921,43.945759 168.680557,40.632378 
	C169.505829,39.399323 171.069534,38.660473 172.664886,38.325607 
	C173.168289,39.882431 173.303314,40.809910 173.438339,41.737385 
	C171.211868,45.627918 168.985413,49.518456 166.261322,53.785507 
	C166.199051,54.764332 166.634399,55.366638 167.069763,55.968948 
	C170.528320,58.198837 168.914963,59.181423 166.219833,60.472027 
	C164.359253,61.362995 162.235672,62.729317 161.356995,64.456680 
	C158.567368,69.940796 156.306290,75.693787 153.342957,81.768578 
	C152.819489,83.019630 152.793991,83.844940 152.768494,84.670258 
	C153.531815,84.317978 154.295135,83.965683 155.058441,83.613396 
	C156.578415,82.992531 158.245499,81.635002 159.587936,81.903076 
	C162.443832,82.473373 165.969803,83.210686 167.581161,85.204765 
	C168.591171,86.454613 167.354599,90.736496 165.819260,92.554199 
	C163.225632,95.624786 159.595673,97.820015 156.249191,100.505539 
	C159.774994,104.472069 164.264236,105.049248 168.410385,102.673477 
	C173.250854,99.899826 177.723969,96.337997 181.914017,92.619568 
	C185.745880,89.219032 188.893723,85.060593 192.512558,81.403961 
	C197.372162,76.493622 203.449387,75.277122 208.758514,78.399261 
	C209.605011,78.897057 209.688797,81.541512 209.363770,83.026932 
	C208.265152,88.047745 206.569794,92.945885 205.623077,97.988647 
	C205.163956,100.434219 205.862213,103.097076 206.128937,107.021790 
	C209.268997,105.238876 211.511002,104.307396 213.349869,102.862785 
	C221.396179,96.541656 228.692062,89.520439 233.266891,80.134811 
	C233.704102,79.237869 234.083862,78.232475 234.764481,77.551460 
	C236.161987,76.153114 237.745422,74.940590 239.252319,73.651596 
	C239.864944,75.412262 240.477570,77.172920 241.324890,79.608116 
	C245.771179,78.430786 250.253571,79.749168 253.990311,84.292580 
	C255.799728,86.492599 257.954132,85.884117 258.810699,82.447418 
	C259.918335,78.003448 263.663605,75.769554 266.831879,77.746956 
	C268.437103,78.748833 269.039978,81.356636 270.096039,83.238396 
	C268.459717,83.917511 266.823425,84.596626 264.490936,85.564667 
	C265.257294,87.380302 266.412811,90.117805 267.764404,93.319771 
	C273.831665,90.481262 279.587524,88.003975 285.092865,85.058464 
	C286.437714,84.338921 287.061951,82.133682 287.846588,80.528015 
	C294.055847,67.822113 300.211945,55.090237 306.423645,42.385551 
	C307.004578,41.197418 307.632904,39.823490 308.644592,39.113209 
	C309.673248,38.391003 311.203644,38.383404 312.514313,38.062878 
	C312.578461,39.272282 313.036926,40.643944 312.620575,41.655609 
	C311.870239,43.478920 310.420959,45.003498 309.568848,46.797813 
	C303.432098,59.720001 297.370087,72.677673 291.290405,85.626923 
	C290.573364,87.154121 289.892944,88.698509 290.044830,91.106873 
	C291.332092,90.167854 292.693024,89.314049 293.894226,88.275482 
	C300.081421,82.926010 305.855408,84.585434 308.071625,92.391228 
	C308.117126,92.551506 308.162201,92.711922 308.205994,92.872696 
	C310.993317,103.103264 314.773193,104.391930 323.308960,97.552628 
	C327.054535,94.551437 330.121185,90.715286 333.741516,87.537888 
	C334.835785,86.577507 336.753815,86.555725 338.294556,86.104012 
	C338.044495,87.565842 338.320709,89.590103 337.458099,90.397240 
	C332.262909,95.258217 327.331696,100.720596 321.314514,104.308601 
	C312.353760,109.651848 306.497803,106.576660 303.900146,96.599113 
	C303.690308,95.792946 303.497803,94.982079 303.277039,94.178955 
	C302.032318,89.650154 300.320282,88.888420 296.790497,92.142014 
	C293.394836,95.272003 290.754150,99.205544 287.582336,102.599655 
	C285.599976,104.720970 284.766876,109.796967 280.921539,107.874985 
	C276.682495,105.756172 280.782593,102.064110 281.188232,99.096115 
	C281.470337,97.031960 282.427582,95.060089 282.242371,91.915886 
	C279.419739,93.301590 276.689880,94.943039 273.751282,96.009216 
	C269.951660,97.387779 270.040466,100.295303 269.646881,103.539261 
	C268.661255,111.663040 256.746704,123.648132 248.729980,124.337379 
	C246.301804,124.546158 242.797653,123.403107 241.460648,121.622231 
	C240.383392,120.187386 240.914719,115.974495 242.315887,114.527458 
	C247.721207,108.945221 253.831390,104.052361 259.513855,98.726494 
	C260.829407,97.493462 262.406097,95.473412 262.256561,93.975883 
	C261.987488,91.281143 260.492188,89.476387 256.764160,90.010017 
	C254.604126,90.319199 251.693527,88.747963 249.841782,87.174385 
	C245.471603,83.460686 242.818176,82.774879 238.700058,86.839241 
	C234.835693,90.653168 231.664566,95.222069 228.514740,99.688896 
	C226.414688,102.667038 225.066132,106.169098 223.029953,109.200729 
	C221.951462,110.806473 220.122849,111.908424 218.632889,113.237816 
	C217.748642,111.598419 216.864395,109.959030 216.181168,108.692337 
	C212.418472,109.106766 207.200623,111.281380 204.314987,109.555817 
	C201.343811,107.779121 200.645889,102.200882 198.865067,98.081978 
	C196.903275,99.779816 194.585297,102.096428 191.962555,103.991142 
	C186.489517,107.945000 183.690170,107.230530 180.757462,101.470642 
	C162.389450,110.721802 158.284973,110.744278 150.222900,101.105721 
	C149.016846,97.345688 151.360550,96.645744 153.577377,95.693047 
	C157.680496,93.929703 161.607178,91.896027 163.490829,87.346764 
	C157.762711,85.367210 150.581055,91.115372 147.295319,99.986725 
M127.459167,104.225632 
	C142.615967,94.014999 151.419861,79.481468 156.303223,61.374775 
	C152.834244,61.678112 149.563766,62.478325 146.413605,62.144176 
	C136.538239,61.096661 131.067291,65.823944 128.029663,74.731331 
	C125.203194,83.019531 121.312485,91.000450 119.143082,99.438721 
	C117.530136,105.712555 120.743347,107.488525 127.459167,104.225632 
M264.309296,104.911362 
	C264.377502,104.035645 264.445740,103.159935 264.596405,101.225441 
	C256.961853,106.791451 249.420059,110.939507 246.046509,119.458038 
	C254.665939,118.093307 259.981964,112.632492 264.309296,104.911362 
M202.437683,83.314285 
	C201.123550,83.071983 199.330048,82.154869 198.571045,82.694046 
	C192.438400,87.050484 189.207382,93.344398 187.421982,100.560814 
	C194.083603,96.543083 198.586807,90.661781 202.437683,83.314285 
M264.166962,83.492126 
	C264.356415,83.569588 264.545868,83.647049 264.735321,83.724510 
	C264.681458,83.519073 264.627594,83.313629 264.166962,83.492126 
z"/>
<path fill="#E5E2E8" opacity="1.000000" stroke="none" 
	d="
M485.361145,22.630753 
	C498.345856,30.985531 500.836395,43.305363 490.744751,54.435722 
	C485.062958,60.702328 477.776337,65.929085 470.363129,70.122406 
	C455.849884,78.331963 439.722382,82.056870 423.289368,84.420525 
	C421.779083,84.637756 420.364288,85.519119 418.905151,86.092094 
	C420.041351,87.311005 420.974152,88.864059 422.344604,89.698082 
	C439.413025,100.085594 456.561707,110.341225 473.618896,120.746956 
	C474.640411,121.370102 475.060822,122.978600 475.760956,124.128586 
	C474.141052,124.331261 472.110870,125.264816 470.965637,124.621918 
	C461.096741,119.081787 451.327942,113.355553 441.648499,107.488129 
	C433.147644,102.335152 424.800354,96.928932 415.841736,91.292633 
	C410.463531,100.804764 405.486053,109.603394 400.513733,118.404900 
	C398.956757,121.160927 397.641052,124.094971 395.760986,126.607948 
	C394.910736,127.744476 392.951019,128.051010 391.494690,128.734100 
	C391.501953,127.236870 390.968323,125.443336 391.600830,124.288589 
	C397.443207,113.622925 403.490356,103.069466 409.466095,92.476669 
	C409.947266,91.623695 410.339752,90.720711 410.989441,89.402885 
	C409.242371,88.496429 407.532837,87.862061 406.143188,86.806541 
	C405.078461,85.997795 404.417603,84.657288 403.577118,83.553284 
	C404.832703,82.694237 406.210327,80.960541 407.324402,81.115936 
	C415.474792,82.252739 418.476685,76.983757 421.684235,70.947044 
	C428.404633,58.299141 435.587006,45.892174 442.817932,33.525581 
	C443.754730,31.923397 446.101562,31.145678 447.795258,29.986073 
	C447.600830,31.899178 447.974365,34.123642 447.122986,35.676579 
	C439.675293,49.261612 432.005920,62.725090 424.415161,76.231865 
	C424.023987,76.927895 423.750244,77.689926 423.270996,78.757141 
	C424.178009,78.995827 424.777008,79.348381 425.307220,79.264778 
	C443.576843,76.384140 461.187256,71.472122 476.596222,60.831997 
	C481.033356,57.768108 485.206268,53.848892 488.356750,49.494469 
	C494.574860,40.900101 492.103821,32.086407 482.733124,26.868904 
	C475.495789,22.839264 467.565613,22.117952 459.488342,22.314905 
	C435.359039,22.903271 414.207947,32.242306 393.992859,44.467258 
	C392.013367,45.664360 387.545990,46.674889 387.307556,46.206608 
	C385.273865,42.212791 389.497437,41.749908 391.529266,40.470524 
	C409.471558,29.172726 428.554901,20.634262 449.847351,18.178839 
	C461.848755,16.794847 473.834503,16.725906 485.361145,22.630753 
z"/>
<path fill="#E5E1E8" opacity="1.000000" stroke="none" 
	d="
M93.062256,82.142647 
	C83.516113,92.077652 74.259148,102.316216 64.293152,111.810509 
	C59.790237,116.100281 54.023487,119.166824 48.546146,122.290367 
	C45.418747,124.073807 41.808140,125.290695 38.262421,126.008713 
	C26.217525,128.447861 20.399920,122.910583 23.860947,111.151703 
	C26.752670,101.327026 31.068367,91.812637 35.687733,82.630875 
	C42.573204,68.944847 50.380096,55.725281 57.580776,42.193283 
	C59.890747,37.852226 61.523117,33.150604 63.465500,28.613943 
	C63.090656,28.176582 62.715816,27.739223 62.340977,27.301865 
	C60.329720,28.009384 57.981823,28.277365 56.372627,29.509838 
	C52.159508,32.736641 48.371735,36.516697 44.181637,39.777058 
	C43.055458,40.653351 41.096371,40.459213 39.519627,40.756454 
	C39.915321,39.320183 39.844555,37.328667 40.783901,36.539509 
	C46.098412,32.074715 51.369671,27.425581 57.272602,23.860834 
	C59.565258,22.476313 64.290253,22.656641 66.370094,24.198122 
	C67.905518,25.336103 67.947189,30.243389 66.918648,32.762615 
	C63.653828,40.759155 59.760185,48.519485 55.771992,56.195709 
	C48.399555,70.385712 40.563599,84.338936 33.397083,98.629677 
	C30.896276,103.616516 29.264961,109.205399 28.210701,114.706039 
	C27.105482,120.472565 29.627691,123.000725 35.202488,121.457764 
	C41.361992,119.752968 47.659439,117.479691 52.991089,114.047180 
	C70.210770,102.961159 83.236000,87.454498 95.044868,71.047836 
	C103.498940,59.302162 110.933762,46.822830 118.821434,34.669594 
	C119.635460,33.415344 120.277046,31.994272 121.307396,30.957409 
	C121.861450,30.399843 123.419594,30.034477 123.905891,30.401739 
	C124.657410,30.969299 125.380203,32.338516 125.211594,33.188519 
	C124.932655,34.594711 123.890549,35.837292 123.245499,37.184944 
	C114.770386,54.891258 106.308517,72.603912 97.337357,90.804367 
	C96.705078,92.112984 96.578758,92.932228 96.452438,93.751465 
	C95.863808,95.934113 95.275177,98.116768 94.259071,100.698883 
	C93.796890,101.708694 93.762184,102.319023 93.727478,102.929359 
	C93.676033,103.398926 93.624596,103.868492 93.173767,104.724251 
	C92.757484,105.716454 92.740570,106.322456 92.723663,106.928467 
	C92.675499,107.397842 92.627335,107.867210 92.180466,108.726364 
	C91.781662,109.725075 91.781570,110.334007 91.781479,110.942940 
	C91.688393,111.712708 91.595299,112.482483 91.114044,113.691910 
	C90.747498,114.736092 90.769127,115.340614 90.790756,115.945137 
	C90.730293,116.715477 90.669846,117.485825 90.157135,118.789459 
	C89.491829,120.596558 89.278786,121.870361 89.065750,123.144165 
	C85.222313,124.136948 84.972870,123.824554 85.946777,118.072075 
	C86.419380,116.365311 86.467781,115.293175 86.516190,114.221039 
	C86.552040,113.653572 86.587891,113.086105 86.977493,112.144066 
	C87.326859,111.207008 87.322479,110.644531 87.318092,110.082047 
	C87.363411,109.615868 87.408722,109.149696 87.827263,108.283615 
	C88.213150,107.276642 88.225822,106.669579 88.238495,106.062515 
	C88.298317,105.599312 88.358139,105.136108 88.799767,104.280975 
	C89.204857,103.281319 89.228134,102.673584 89.251419,102.065857 
	C89.322075,101.600449 89.392731,101.135040 89.915672,100.167725 
	C90.781586,97.868423 91.195213,96.071030 91.608841,94.273636 
	C92.145164,92.403824 92.681496,90.534012 93.717148,88.198792 
	C95.389236,84.784874 96.561996,81.836357 97.734756,78.887848 
	C97.317078,78.634102 96.899391,78.380356 96.481705,78.126617 
	C95.341888,79.465294 94.202072,80.803970 93.062256,82.142647 
M98.463234,75.496109 
	C98.463234,75.496109 98.507431,75.477989 98.463234,75.496109 
z"/>
<path fill="#E5E1E8" opacity="1.000000" stroke="none" 
	d="
M496.092621,80.067078 
	C500.702362,75.200966 505.906830,77.599503 510.785950,78.329361 
	C511.312378,78.408096 511.954407,81.370880 511.633850,82.790604 
	C510.538116,87.643143 508.724640,92.345665 507.811890,97.222740 
	C507.298645,99.965164 508.016968,102.938065 508.259491,107.193359 
	C511.734589,105.118843 514.245056,104.142006 516.070251,102.433212 
	C521.651917,97.207359 527.074402,91.798225 532.314880,86.230789 
	C533.565369,84.902237 533.682800,82.571045 534.669495,80.907555 
	C535.315186,79.818977 536.587708,79.102158 537.579407,78.218811 
	C538.165894,79.402374 539.429504,80.718933 539.227478,81.747597 
	C538.041687,87.784508 536.789062,93.835670 535.044983,99.729935 
	C531.192444,112.749680 526.027649,125.175568 516.910400,135.549866 
	C510.996796,142.278717 503.922852,146.934235 494.713806,147.687317 
	C487.042542,148.314636 483.436890,143.856216 485.712738,136.499786 
	C488.554199,127.315269 501.627533,116.844345 511.206390,116.317772 
	C512.350891,116.254860 513.564331,117.445358 514.745789,118.054893 
	C513.776489,119.015900 512.951599,120.219604 511.813354,120.896713 
	C506.308136,124.171707 500.354126,126.824005 495.289856,130.661285 
	C492.023102,133.136536 488.250946,137.614182 491.144287,141.607162 
	C492.300629,143.202988 499.278687,142.334427 502.274170,140.459167 
	C507.639587,137.100311 512.613831,132.634689 516.633362,127.717567 
	C523.114807,119.788628 528.839294,105.573357 530.066589,96.783455 
	C528.085327,98.583939 526.796936,99.886185 525.374939,101.020973 
	C521.870728,103.817314 518.549255,106.955467 514.710022,109.194191 
	C508.076935,113.062057 503.324738,110.297943 502.746826,102.696358 
	C502.622498,101.060616 502.585052,99.418266 502.444153,96.436058 
	C500.570526,98.275604 499.548889,99.422295 498.381165,100.393318 
	C496.341217,102.089661 494.411255,104.131111 492.056580,105.169167 
	C490.148621,106.010292 487.016846,106.485832 485.659363,105.472977 
	C484.356567,104.500954 483.601074,100.860176 484.402374,99.338768 
	C487.846130,92.800194 491.951965,86.610298 496.092621,80.067078 
M494.533356,89.081360 
	C492.615448,92.754807 490.697540,96.428246 488.779663,100.101685 
	C489.257996,100.400208 489.736359,100.698730 490.214691,100.997253 
	C496.177887,96.781601 500.329285,90.881790 504.238068,84.798233 
	C504.625336,84.195496 504.457489,82.609627 503.968811,82.235298 
	C503.407043,81.805000 501.887756,81.848747 501.330139,82.325264 
	C499.085175,84.243835 497.050903,86.408989 494.533356,89.081360 
z"/>
<path fill="#E8E5EB" opacity="1.000000" stroke="none" 
	d="
M298.729218,158.933563 
	C297.579590,159.675156 296.731812,160.579300 295.876587,160.586411 
	C284.517212,160.680878 273.156799,160.649475 260.935791,160.649475 
	C264.387085,156.408722 267.154602,153.543533 272.406860,153.731262 
	C282.457214,154.090485 292.529480,153.835663 302.592682,153.835663 
	C302.842041,154.240005 303.091431,154.644333 303.340790,155.048676 
	C301.903076,156.258820 300.465332,157.468979 298.729218,158.933563 
z"/>
<path fill="#6310BB" opacity="1.000000" stroke="none" 
	d="
M243.661697,160.848831 
	C233.136032,160.849289 223.069611,160.849289 211.983856,160.849289 
	C215.664902,156.230743 218.720398,153.559174 224.095627,153.774628 
	C233.832703,154.164886 243.596634,153.885193 254.195221,153.885193 
	C251.489365,158.398621 248.931061,161.259308 243.661697,160.848831 
z"/>
<path fill="#6510BF" opacity="1.000000" stroke="none" 
	d="
M338.774231,160.846344 
	C328.883392,160.846207 319.463562,160.846207 308.975952,160.846207 
	C312.540009,156.545380 315.215790,153.609299 320.445892,153.783890 
	C330.381531,154.115585 340.336090,153.879990 350.991364,153.879990 
	C348.321838,159.432800 344.528290,161.402878 338.774231,160.846344 
z"/>
<path fill="#533E69" opacity="1.000000" stroke="none" 
	d="
M147.755341,100.190536 
	C150.581055,91.115372 157.762711,85.367210 163.490829,87.346764 
	C161.607178,91.896027 157.680496,93.929703 153.577377,95.693047 
	C151.360550,96.645744 149.016846,97.345688 150.015900,100.938324 
	C149.413254,100.999390 148.814316,100.696861 147.755341,100.190536 
z"/>
<path fill="#D9D5DE" opacity="1.000000" stroke="none" 
	d="
M540.523254,71.140755 
	C539.035400,71.432549 537.744568,71.442024 536.453674,71.451500 
	C536.535278,69.565109 536.382812,67.624405 536.802246,65.816376 
	C536.997803,64.973457 538.751343,63.650265 539.023193,63.816063 
	C540.062988,64.450478 541.303101,65.507088 541.499390,66.582909 
	C541.742676,67.916306 541.023560,69.425301 540.523254,71.140755 
z"/>
<path fill="#D2CCD7" opacity="1.000000" stroke="none" 
	d="
M93.415672,82.236328 
	C94.202072,80.803970 95.341888,79.465294 96.481705,78.126617 
	C96.899391,78.380356 97.317078,78.634102 97.734756,78.887848 
	C96.561996,81.836357 95.389236,84.784874 93.943253,87.898788 
	C93.703056,86.152786 93.736069,84.241394 93.415672,82.236328 
z"/>
<path fill="#533E69" opacity="1.000000" stroke="none" 
	d="
M116.372421,87.998192 
	C116.273445,89.439987 115.881554,90.981239 115.245003,92.761269 
	C115.360069,91.365913 115.719788,89.731781 116.372421,87.998192 
z"/>
<path fill="#533E69" opacity="1.000000" stroke="none" 
	d="
M138.530884,102.082260 
	C139.076981,101.044785 139.985809,100.022049 141.558960,98.251747 
	C141.558960,100.033432 141.558960,100.808914 141.312683,101.794884 
	C140.342163,102.035912 139.617905,102.066460 138.530884,102.082260 
z"/>
<path fill="#D2CCD7" opacity="1.000000" stroke="none" 
	d="
M91.362190,94.519699 
	C91.195213,96.071030 90.781586,97.868423 90.106705,99.866196 
	C90.268814,98.299629 90.692177,96.532700 91.362190,94.519699 
z"/>
<path fill="#D2CCD7" opacity="1.000000" stroke="none" 
	d="
M154.661377,83.472450 
	C154.295135,83.965683 153.531815,84.317978 152.768494,84.670258 
	C152.793991,83.844940 152.819489,83.019630 153.103149,82.066460 
	C153.662308,82.402908 153.963303,82.867210 154.661377,83.472450 
z"/>
<path fill="#D2CCD7" opacity="1.000000" stroke="none" 
	d="
M89.367798,122.995209 
	C89.278786,121.870361 89.491829,120.596558 89.960999,119.127792 
	C90.034698,120.237305 89.852264,121.541779 89.367798,122.995209 
z"/>
<path fill="#D2CCD7" opacity="1.000000" stroke="none" 
	d="
M173.700043,41.560623 
	C173.303314,40.809910 173.168289,39.882431 173.015137,38.486259 
	C173.318573,39.139660 173.640167,40.261761 173.700043,41.560623 
z"/>
<path fill="#D2CCD7" opacity="1.000000" stroke="none" 
	d="
M145.553818,43.420162 
	C145.230026,42.603390 145.176636,41.613930 145.145279,40.128975 
	C145.386292,40.838139 145.605255,42.042809 145.553818,43.420162 
z"/>
<path fill="#D2CCD7" opacity="1.000000" stroke="none" 
	d="
M86.313065,114.437126 
	C86.467781,115.293175 86.419380,116.365311 86.100060,117.748192 
	C85.922737,116.923698 86.016342,115.788452 86.313065,114.437126 
z"/>
<path fill="#533E69" opacity="1.000000" stroke="none" 
	d="
M140.221710,103.956894 
	C140.508728,104.685646 140.537750,105.507431 140.508865,106.738991 
	C140.288528,106.115814 140.126114,105.082863 140.221710,103.956894 
z"/>
<path fill="#D2CCD7" opacity="1.000000" stroke="none" 
	d="
M153.792542,56.784744 
	C153.185822,57.126301 152.343750,57.351143 151.281708,57.390182 
	C151.893555,57.025593 152.725372,56.846809 153.792542,56.784744 
z"/>
<path fill="#D2CCD7" opacity="1.000000" stroke="none" 
	d="
M112.552429,64.546951 
	C113.391113,64.355087 114.375000,64.417015 115.665062,64.693741 
	C114.880035,64.872612 113.788826,64.836678 112.552429,64.546951 
z"/>
<path fill="#D2CCD7" opacity="1.000000" stroke="none" 
	d="
M88.040024,106.258789 
	C88.225822,106.669579 88.213150,107.276642 88.003632,107.975388 
	C87.818367,107.529732 87.829964,106.992401 88.040024,106.258789 
z"/>
<path fill="#D2CCD7" opacity="1.000000" stroke="none" 
	d="
M126.419693,64.243057 
	C126.632599,64.171913 127.275253,64.308586 127.827225,64.624481 
	C127.440842,64.686096 127.145142,64.568481 126.419693,64.243057 
z"/>
<path fill="#D2CCD7" opacity="1.000000" stroke="none" 
	d="
M166.909592,55.633980 
	C166.634399,55.366638 166.199051,54.764332 165.986572,54.042305 
	C166.389435,54.381397 166.569427,54.840210 166.909592,55.633980 
z"/>
<path fill="#D2CCD7" opacity="1.000000" stroke="none" 
	d="
M121.838394,59.799133 
	C121.474350,60.097065 120.925972,60.275326 120.205109,60.280064 
	C120.573105,59.964184 121.113586,59.821823 121.838394,59.799133 
z"/>
<path fill="#D2CCD7" opacity="1.000000" stroke="none" 
	d="
M90.957382,115.730080 
	C90.769127,115.340614 90.747498,114.736092 90.917648,114.032036 
	C91.114281,114.460007 91.119141,114.987518 90.957382,115.730080 
z"/>
<path fill="#D2CCD7" opacity="1.000000" stroke="none" 
	d="
M87.141068,110.215866 
	C87.322479,110.644531 87.326859,111.207008 87.127106,111.897354 
	C86.936646,111.466713 86.950340,110.908195 87.141068,110.215866 
z"/>
<path fill="#D2CCD7" opacity="1.000000" stroke="none" 
	d="
M91.952606,110.730804 
	C91.781570,110.334007 91.781662,109.725075 91.979630,109.023514 
	C92.159584,109.460152 92.141663,109.989403 91.952606,110.730804 
z"/>
<path fill="#D2CCD7" opacity="1.000000" stroke="none" 
	d="
M96.680244,93.539749 
	C96.578758,92.932228 96.705078,92.112984 97.106873,91.116333 
	C97.224251,91.735291 97.066154,92.531662 96.680244,93.539749 
z"/>
<path fill="#D2CCD7" opacity="1.000000" stroke="none" 
	d="
M92.905655,106.724358 
	C92.740570,106.322456 92.757484,105.716454 92.971336,105.020515 
	C93.141411,105.460472 93.114532,105.990364 92.905655,106.724358 
z"/>
<path fill="#533E69" opacity="1.000000" stroke="none" 
	d="
M113.713181,104.178680 
	C114.149750,104.530777 114.409744,105.042503 114.599419,105.842667 
	C114.198265,105.533508 113.867439,104.935913 113.713181,104.178680 
z"/>
<path fill="#D2CCD7" opacity="1.000000" stroke="none" 
	d="
M142.839722,57.793674 
	C142.476654,58.095074 141.929077,58.276688 141.208099,58.285927 
	C141.574860,57.966999 142.115051,57.820442 142.839722,57.793674 
z"/>
<path fill="#D2CCD7" opacity="1.000000" stroke="none" 
	d="
M89.050278,102.260056 
	C89.228134,102.673584 89.204857,103.281319 88.982803,103.978058 
	C88.805725,103.529465 88.827423,102.991852 89.050278,102.260056 
z"/>
<path fill="#D2CCD7" opacity="1.000000" stroke="none" 
	d="
M93.913727,102.727432 
	C93.762184,102.319023 93.796890,101.708694 94.034637,101.014572 
	C94.191772,101.462349 94.145866,101.993927 93.913727,102.727432 
z"/>
<path fill="#533E69" opacity="1.000000" stroke="none" 
	d="
M114.272827,94.931961 
	C114.508507,95.445679 114.507271,96.020363 114.291779,96.803391 
	C114.063652,96.338799 114.049782,95.665855 114.272827,94.931961 
z"/>
<path fill="#291045" opacity="1.000000" stroke="none" 
	d="
M127.146095,104.438675 
	C120.743347,107.488525 117.530136,105.712555 119.143082,99.438721 
	C121.312485,91.000450 125.203194,83.019531 128.029663,74.731331 
	C131.067291,65.823944 136.538239,61.096661 146.413605,62.144176 
	C149.563766,62.478325 152.834244,61.678112 156.303223,61.374775 
	C151.419861,79.481468 142.615967,94.014999 127.146095,104.438675 
z"/>
<path fill="#402958" opacity="1.000000" stroke="none" 
	d="
M264.175659,105.242744 
	C259.981964,112.632492 254.665939,118.093307 246.046509,119.458038 
	C249.420059,110.939507 256.961853,106.791451 264.596405,101.225441 
	C264.445740,103.159935 264.377502,104.035645 264.175659,105.242744 
z"/>
<path fill="#402959" opacity="1.000000" stroke="none" 
	d="
M202.403091,83.719604 
	C198.586807,90.661781 194.083603,96.543083 187.421982,100.560814 
	C189.207382,93.344398 192.438400,87.050484 198.571045,82.694046 
	C199.330048,82.154869 201.123550,83.071983 202.403091,83.719604 
z"/>
<path fill="#22083E" opacity="1.000000" stroke="none" 
	d="
M264.370361,83.300156 
	C264.627594,83.313629 264.681458,83.519073 264.735321,83.724518 
	C264.545868,83.647049 264.356415,83.569588 264.370361,83.300156 
z"/>
<path fill="#D2CCD7" opacity="1.000000" stroke="none" 
	d="
M98.485336,75.487045 
	C98.507431,75.477989 98.463234,75.496109 98.485336,75.487045 
z"/>
<path fill="#3F2858" opacity="1.000000" stroke="none" 
	d="
M494.736084,88.782211 
	C497.050903,86.408989 499.085175,84.243835 501.330139,82.325264 
	C501.887756,81.848747 503.407043,81.805000 503.968811,82.235298 
	C504.457489,82.609627 504.625336,84.195496 504.238068,84.798233 
	C500.329285,90.881790 496.177887,96.781601 490.214691,100.997253 
	C489.736359,100.698730 489.257996,100.400208 488.779663,100.101685 
	C490.697540,96.428246 492.615448,92.754807 494.736084,88.782211 
z"/>
</svg>