<svg xmlns="http://www.w3.org/2000/svg" xmlns:xlink="http://www.w3.org/1999/xlink" width="500" zoomAndPan="magnify" viewBox="0 0 500 75" height="100" preserveAspectRatio="xMidYMid meet" version="1.0">
  <defs>
    <g/>
  </defs>
  
  <!-- Utkarsh -->
  <g fill="#ffffff" fill-opacity="1">
    <g transform="translate(30, 50)">
      <g>
        <!-- U -->
        <path d="M 0 -30 L 0 -10 Q 0 -5 2.5 -2.5 Q 5 0 10 0 Q 15 0 17.5 -2.5 Q 20 -5 20 -10 L 20 -30 L 15 -30 L 15 -10 Q 15 -7 13 -5 Q 11 -3 10 -3 Q 9 -3 7 -5 Q 5 -7 5 -10 L 5 -30 Z"/>
        <!-- t -->
        <path d="M 25 0 L 25 -15 L 22 -15 L 22 -20 L 25 -20 L 25 -25 L 30 -25 L 30 -20 L 35 -20 L 35 -15 L 30 -15 L 30 -5 Q 30 -2 32 -2 Q 34 -2 35 -3 L 35 2 Q 33 3 30 3 Q 25 3 25 -2 Z"/>
        <!-- k -->
        <path d="M 40 0 L 40 -30 L 45 -30 L 45 -12 L 52 -20 L 58 -20 L 50 -10 L 58 0 L 52 0 L 47 -8 L 45 -6 L 45 0 Z"/>
        <!-- a -->
        <path d="M 65 3 Q 60 3 57.5 0 Q 55 -3 55 -8 Q 55 -13 57.5 -16 Q 60 -19 65 -19 Q 68 -19 70 -17 L 70 -20 L 75 -20 L 75 -5 Q 75 0 77 0 L 77 3 Q 72 3 70 -2 Q 68 3 65 3 Z M 66 -2 Q 68 -2 70 -4 L 70 -12 Q 68 -14 66 -14 Q 63 -14 61.5 -11.5 Q 60 -9 60 -6 Q 60 -3.5 61.5 -2.75 Q 63 -2 66 -2 Z"/>
        <!-- r -->
        <path d="M 82 0 L 82 -20 L 87 -20 L 87 -16 Q 89 -19 92 -19 Q 95 -19 96 -17 L 94 -12 Q 92 -14 90 -14 Q 87 -14 87 -11 L 87 0 Z"/>
        <!-- s -->
        <path d="M 105 3 Q 100 3 97 0 L 99 -4 Q 101 -2 105 -2 Q 107 -2 108 -3 Q 109 -4 109 -5 Q 109 -6 108 -7 Q 107 -8 105 -8 L 102 -8 Q 98 -8 96 -10 Q 94 -12 94 -15 Q 94 -18 96.5 -20.5 Q 99 -23 105 -23 Q 109 -23 112 -21 L 110 -17 Q 108 -19 105 -19 Q 103 -19 102 -18 Q 101 -17 101 -16 Q 101 -15 102 -14 Q 103 -13 105 -13 L 108 -13 Q 112 -13 114 -11 Q 116 -9 116 -6 Q 116 -3 113.5 -0.5 Q 111 2 105 3 Z"/>
        <!-- h -->
        <path d="M 121 0 L 121 -12 Q 121 -14 123 -14 Q 125 -14 125 -12 L 125 0 L 130 0 L 130 -12 Q 130 -19 125 -19 Q 122 -19 121 -17 L 121 -30 L 116 -30 L 116 0 Z"/>
      </g>
    </g>
  </g>
  
  <!-- Raj -->
  <g fill="#ffffff" fill-opacity="1">
    <g transform="translate(250, 50)">
      <g>
        <!-- R -->
        <path d="M 0 0 L 0 -25 L 10 -25 Q 15 -25 17.5 -22.5 Q 20 -20 20 -15 Q 20 -12 18 -10 L 20 0 L 15 0 L 13 -8 L 5 -8 L 5 0 Z M 5 -12 L 10 -12 Q 12 -12 13 -13 Q 14 -14 14 -15 Q 14 -16 13 -17 Q 12 -18 10 -18 L 5 -18 Z"/>
        <!-- a -->
        <path d="M 30 3 Q 25 3 22.5 0 Q 20 -3 20 -8 Q 20 -13 22.5 -16 Q 25 -19 30 -19 Q 33 -19 35 -17 L 35 -20 L 40 -20 L 40 -5 Q 40 0 42 0 L 42 3 Q 37 3 35 -2 Q 33 3 30 3 Z M 31 -2 Q 33 -2 35 -4 L 35 -12 Q 33 -14 31 -14 Q 28 -14 26.5 -11.5 Q 25 -9 25 -6 Q 25 -3.5 26.5 -2.75 Q 28 -2 31 -2 Z"/>
        <!-- j -->
        <path d="M 47 5 Q 42 5 40 2 L 42 -2 Q 43 -1 45 -1 Q 47 -1 47 -3 L 47 -20 L 52 -20 L 52 -3 Q 52 5 47 5 Z M 47 -25 Q 45 -25 44 -26 Q 43 -27 43 -28 Q 43 -29 44 -30 Q 45 -31 47 -31 Q 49 -31 50 -30 Q 51 -29 51 -28 Q 51 -27 50 -26 Q 49 -25 47 -25 Z"/>
      </g>
    </g>
  </g>
</svg>
